<svg id="구성_요소_54_2" data-name="구성 요소 54 – 2" xmlns="http://www.w3.org/2000/svg" width="129.383" height="129.383" viewBox="0 0 129.383 129.383">
  <path id="패스_18976" data-name="패스 18976" d="M45.047,1285.7c-.3-.7-.124-1.144.8-1.806a1.685,1.685,0,0,1,1.1-.478c.326-.123.239.07.81-.144.334-.12.334-.036,1.011-.087a2.716,2.716,0,0,1,.656-.239c.531-.169,1.051-.37,1.051-.37s.135-.138.645-.086c.433-.172.879-.441,1.1-.515-.057-.691.018-.656.335-.934.394-.341.465-.284.762-.074.124-.072.181-.094.168-.2-.051-.354-.356-.52-.261-1.3a2.214,2.214,0,0,1-.291-.939c.06-.257.127-.375.279-.458s.217.031.3.13a2.355,2.355,0,0,1,.283.716c.058.609.246,1.393.849.951.352-.359.419-1.313,1.143-1.109l.515.45a3.255,3.255,0,0,1,.718-.577s-.406-.415-.052-.734a7.719,7.719,0,0,0,1.072-.964,29.166,29.166,0,0,1,3.755-3.589,35.494,35.494,0,0,1,8.929-5.264,3.911,3.911,0,0,1,3.084-1.715,23.719,23.719,0,0,1,6.511-6.673c.7-1.258,1-1.122,1.91-1.375.715-.578.882-.578,1.2-1.181.312-1.245-.722-4.566,1.923-4.736a12.192,12.192,0,0,1,1.046-1.351,11.236,11.236,0,0,1-.717-2.671c-.017-.09-1.049-.816-.755-1.76a14.542,14.542,0,0,1-1.512-2.3,1.982,1.982,0,0,1-.339-.062c-.134-.013-.3-.01-.488-.028a1.9,1.9,0,0,1-1.59,1.373c-1.309,2.783-1.767,3.962-5.466,6.265a9.261,9.261,0,0,0-1.928,3.446,2.591,2.591,0,0,0-.028,1.706c-.2.6-.144.667-.144.667a.946.946,0,0,0,.547.593c.443.117.889.1.865.595-.064.614-.872.512-1.257.442-1.475-.231-1.014-1.194-1.956-.872-.725.471-1,1.873-2.18,1.693-.158-.1-.107-.414,0-.635.167-.343.461-.625.286-.762-.765.249-2.311.757-2.311.757-.723.2-1.519-.165-.8-.641a6.592,6.592,0,0,0,1.386-.662s.3-.406-.274-.2a5.745,5.745,0,0,1-2.227.29,11.344,11.344,0,0,1-1.559-.287c-.179-.107-.344-.538.087-.538a14.184,14.184,0,0,0,2.982-.441c.511-.2,1.488-.774,2.037-1.045a4.793,4.793,0,0,1,.919-1.036c.545-.627,1-1,1.484-1.642a30.511,30.511,0,0,1,2.527-4.9,22.517,22.517,0,0,1,2.747-3.522,5.886,5.886,0,0,1,1.766-3.136,23.38,23.38,0,0,1,1.3-2.5c.187-.321.369-.6.549-.9.457-.72.933-2.05,2.712-2.256a6.615,6.615,0,0,0,1.048-.955c.457-.4.352-1,.722-1.424-.563-.551-2.014-1.589-2.153-3.03A4.514,4.514,0,0,1,84,1226.944a4.293,4.293,0,0,1,3.42-1.461,3.323,3.323,0,0,1,2.474,1.325c.5.512.689.184.9.778,1.374.368,1.3.2,1.287,1.22a1.688,1.688,0,0,1,.564,1.133,4.9,4.9,0,0,1,1.786-2.182c.291-.863.49-1.7.749-2.561.237-.8.536-1.616.768-2.23-.248-1.733.261-2.02.933-3.541-.117-.2-.1-.27-.041-.611.259-1.006.669-2.336.913-3.2a.491.491,0,0,1,.439-.368c.307-1.1.771-3.142.846-3.56a2.7,2.7,0,0,0-.129-2.164,4.076,4.076,0,0,0-.179-.745c-.381-.668-.795-1.533-1.078-2.16a5.532,5.532,0,0,1-.574-2.488,5.239,5.239,0,0,1,4.779-5.5,5.107,5.107,0,0,1,1.854.223l1.044-2.342a59.712,59.712,0,0,0-62.737,92.51l3.491-2.642c-.282-.382-.465-.675-.465-.675" transform="translate(-26.114 -1189.888)" fill="#ffaf61"/>
  <path id="패스_18977" data-name="패스 18977" d="M174.641,1218.425a5.239,5.239,0,0,0-4.779,5.5,5.53,5.53,0,0,0,.574,2.488c.283.627.7,1.492,1.078,2.16a4.092,4.092,0,0,1,.179.745,2.7,2.7,0,0,1,.129,2.164c-.075.418-.539,2.463-.846,3.56a.491.491,0,0,0-.439.368c-.244.867-.655,2.2-.913,3.2-.054.342-.076.407.041.611-.673,1.521-1.181,1.808-.933,3.541-.232.615-.532,1.434-.769,2.23-.259.857-.458,1.7-.749,2.561a4.9,4.9,0,0,0-1.786,2.182,1.687,1.687,0,0,0-.564-1.133c.011-1.018.087-.852-1.287-1.22-.212-.595-.4-.266-.9-.778a3.322,3.322,0,0,0-2.474-1.325,4.292,4.292,0,0,0-3.42,1.461,4.515,4.515,0,0,0-1.322,3.721c.139,1.441,1.59,2.479,2.153,3.03-.37.426-.265,1.028-.722,1.424a6.616,6.616,0,0,1-1.048.955c-1.779.206-2.256,1.536-2.712,2.256-.179.3-.362.582-.549.9a23.369,23.369,0,0,0-1.3,2.5,5.886,5.886,0,0,0-1.766,3.136,22.5,22.5,0,0,0-2.747,3.522,30.494,30.494,0,0,0-2.527,4.9c-.482.643-.939,1.015-1.484,1.642a4.791,4.791,0,0,0-.919,1.036c-.548.271-1.526.848-2.037,1.045a14.209,14.209,0,0,1-2.982.441c-.431,0-.266.43-.087.537a11.359,11.359,0,0,0,1.559.287,5.747,5.747,0,0,0,2.227-.29c.574-.2.274.2.274.2a6.575,6.575,0,0,1-1.386.662c-.719.477.077.838.8.641,0,0,1.546-.509,2.311-.757.175.137-.12.419-.286.762-.1.221-.155.531,0,.635,1.184.18,1.455-1.222,2.18-1.693.942-.322.481.641,1.956.872.385.07,1.193.171,1.257-.442.024-.494-.421-.478-.865-.595a.946.946,0,0,1-.547-.593s-.052-.064.144-.667a2.591,2.591,0,0,1,.028-1.706,9.261,9.261,0,0,1,1.928-3.446c3.7-2.3,4.156-3.482,5.466-6.265a1.9,1.9,0,0,0,1.59-1.373c.187.018.354.014.488.028a1.97,1.97,0,0,0,.339.062,14.54,14.54,0,0,0,1.512,2.3c-.294.944.738,1.671.755,1.76a11.234,11.234,0,0,0,.717,2.671,12.213,12.213,0,0,0-1.046,1.351c-2.645.17-1.611,3.491-1.923,4.736-.321.6-.488.6-1.2,1.181-.909.253-1.214.117-1.91,1.376a23.715,23.715,0,0,0-6.511,6.673,3.911,3.911,0,0,0-3.084,1.715,35.494,35.494,0,0,0-8.929,5.264,29.186,29.186,0,0,0-3.755,3.589,7.715,7.715,0,0,1-1.072.964c-.354.32.052.734.052.734a3.257,3.257,0,0,0-.718.577l-.515-.45c-.724-.2-.792.75-1.143,1.109-.6.442-.792-.342-.849-.951a2.358,2.358,0,0,0-.283-.717c-.085-.1-.139-.218-.3-.13s-.219.2-.279.458a2.214,2.214,0,0,0,.291.939c-.1.785.21.951.261,1.3.013.108-.044.131-.168.2-.3-.21-.368-.266-.762.074-.317.279-.392.243-.335.934-.224.074-.67.343-1.1.515-.51-.052-.645.086-.645.086s-.52.2-1.051.37a2.712,2.712,0,0,0-.656.239c-.677.052-.677-.032-1.011.088-.572.213-.484.021-.81.144a1.685,1.685,0,0,0-1.1.477c-.924.661-1.1,1.1-.8,1.806,0,0,.183.293.465.675a7.451,7.451,0,0,0,1.328,1.432,3.14,3.14,0,0,0,2.371.468,3.875,3.875,0,0,0,1.037-.492c1.836-.838,1.942.279,3.464-.245.175.005,1.145-.743,1.114-1.262.53.032.351-.565,1.041-1.056,1.2-.085,1.2-1.246,1.7-1.661.1-.085.164-.25.294-.294.621-.22.32-.115.617-.568.445-.509.51-.278,1.022-.728.271.016.334.147,1.07-.39.185-.135.4-.274.68-.513,1.023.438.986.2,1.519-.273,0,0,.7-.582,1.621-1.274,1.191-.891,2.722-1.985,3.146-2.324.75-.233,2.376-1.261,3.215-1.661a51.928,51.928,0,0,0,5.814-3.969c1.559-.561,4.42-1.991,4.42-1.991,1-.478,1.98-.936,2.824-1.427.938-.537,1.817-1.066,2.776-1.581,1.034-.555,2.149-1.093,3.339-1.708a1.529,1.529,0,0,1,1.024-.157,4.358,4.358,0,0,1,.722.371,11.867,11.867,0,0,0,3.071,1.11,26.628,26.628,0,0,1,3.7,1.411c.661.279,1.323.458,2.084.824a15.633,15.633,0,0,0,4.924,1.674,11,11,0,0,1,1.754.385c.39.115.812.192,1.583.335a12.032,12.032,0,0,0,2.06,1.122c.657.328,4.525,3.253,6.135,4.545a3.684,3.684,0,0,0,1.943.9c3.569,2.536,3.881,3.38,5.232,3.092l1.183.953a6,6,0,0,0,1.694,1.606,5.765,5.765,0,0,0,1.813,2.147c-.091-.007.127.644.426,1.223.27.523.43.766.43.766.358.66.53.96,1.077.6.221-.149.69-.435.867-.589a17.725,17.725,0,0,1,2.732-2.193,16.121,16.121,0,0,0,2.8-1.776,31.427,31.427,0,0,0,2.62-2.377c.384-.375.682-.639.9-.879,0,0,.021-.021.029-.03.6-.624.361-.628-.034-1.074a1.727,1.727,0,0,0-1.789-.27,8.432,8.432,0,0,0-1.377.79,3.122,3.122,0,0,1-2.009.543c-1.321.154-2.292-.242-3.88-.028a10.752,10.752,0,0,1,1.408-1.91,8.494,8.494,0,0,1,1.308-.6c.02-.093.074-.365-.2-.369a3.209,3.209,0,0,0-1.221.276,4.6,4.6,0,0,0-1.106.952s-.294-.179-.473,0c-.494.548-.393.428-.972.574a2.429,2.429,0,0,1-1.146-.7c-.328.082-.328.174-.52.112a8.612,8.612,0,0,1-.735-.568,8.029,8.029,0,0,0,.3-.747c.021-.047,0-.079-.075-.22-.473-.248-.71-.494-1.3-.836a100.323,100.323,0,0,0-12.945-9.86,4.769,4.769,0,0,0-2.749-1.163,25.532,25.532,0,0,0-2.8-2.616c-2.318-1.979-5.128-3.017-6.985-4,1.322-1.9-1.065-3.107-2.02-3.544l-.779-1.833a26.066,26.066,0,0,0,.594-10.172c-.168-1.756-1.3-2.468-1.7-4.181-.4-1.672-.758-2.775-.379-4.38,1.462-3.428,1.306-3.751,1.345-5.911a6.251,6.251,0,0,0,.493-2.585,19.263,19.263,0,0,0,1.369-4.863,1.518,1.518,0,0,0,.741-1.1,28.693,28.693,0,0,0,.413-2.877c.019-.423-.022-.51-.176-.682.042-1.21.338-3.469.394-4.234a1.534,1.534,0,0,0,.08-.44c.707-1.985-.326-1.9-.035-2.359a.569.569,0,0,1,.284-.132,3.954,3.954,0,0,0,.526-.008,5.153,5.153,0,0,0-.719-10.28" transform="translate(-98.893 -1209.685)" fill="#4140b9"/>
  <path id="패스_18978" data-name="패스 18978" d="M64.691,1163.774a64.691,64.691,0,1,0,64.691,64.691,64.692,64.692,0,0,0-64.691-64.691m0,124.419a59.73,59.73,0,1,1,53.473-33.12,59.636,59.636,0,0,1-53.473,33.12" transform="translate(0 -1163.774)" fill="#4140b9"/>
  <path id="패스_18979" data-name="패스 18979" d="M191.944,1652.217a17.742,17.742,0,0,0-2.732,2.193c-.177.155-.646.44-.867.589-.547.359-.719.06-1.077-.6,0,0-.16-.243-.43-.766-.3-.579-.516-1.23-.426-1.223a5.765,5.765,0,0,1-1.813-2.147,6,6,0,0,1-1.694-1.606l-1.183-.953c-1.351.289-1.663-.556-5.233-3.092a3.684,3.684,0,0,1-1.943-.9c-1.61-1.292-5.478-4.216-6.135-4.545a12.037,12.037,0,0,1-2.06-1.122c-.772-.143-1.193-.22-1.583-.335a11,11,0,0,0-1.754-.385,15.634,15.634,0,0,1-4.924-1.674c-.762-.366-1.423-.545-2.084-.824a26.607,26.607,0,0,0-3.7-1.411,11.873,11.873,0,0,1-3.07-1.11,4.358,4.358,0,0,0-.722-.37,1.531,1.531,0,0,0-1.024.157c-1.19.616-2.306,1.153-3.339,1.709-.959.515-1.838,1.044-2.776,1.581-.844.491-1.822.95-2.824,1.428,0,0-2.861,1.43-4.42,1.99a51.914,51.914,0,0,1-5.814,3.969c-.839.4-2.466,1.428-3.215,1.661-.424.339-1.955,1.433-3.146,2.324-.925.692-1.621,1.274-1.621,1.274-.533.478-.5.711-1.519.273-.282.239-.5.378-.68.513-.737.537-.8.406-1.071.39-.512.45-.576.219-1.022.728-.3.453,0,.348-.617.568-.131.044-.19.209-.294.294-.5.415-.5,1.576-1.7,1.661-.691.491-.512,1.088-1.041,1.056.032.519-.939,1.267-1.113,1.262-1.523.524-1.629-.593-3.465.246a3.873,3.873,0,0,1-1.037.492,3.142,3.142,0,0,1-2.371-.468,7.452,7.452,0,0,1-1.328-1.432s-2.328,1.753-3.491,2.642a59.7,59.7,0,0,0,98.776-1.772c-1.536-1.1-3.181-2.193-4.834-3.174a12.7,12.7,0,0,1-1.585.907" transform="translate(-83.679 -1557.126)" fill="#3a8cff"/>
  <path id="패스_18980" data-name="패스 18980" d="M45.047,1285.7c-.3-.7-.124-1.144.8-1.806a1.685,1.685,0,0,1,1.1-.478c.326-.123.239.07.81-.144.334-.12.334-.036,1.011-.087a2.716,2.716,0,0,1,.656-.239c.531-.169,1.051-.37,1.051-.37s.135-.138.645-.086c.433-.172.879-.441,1.1-.515-.057-.691.018-.656.335-.934.394-.341.465-.284.762-.074.124-.072.181-.094.168-.2-.051-.354-.356-.52-.261-1.3a2.214,2.214,0,0,1-.291-.939c.06-.257.127-.375.279-.458s.217.031.3.13a2.355,2.355,0,0,1,.283.716c.058.609.246,1.393.849.951.352-.359.419-1.313,1.143-1.109l.515.45a3.255,3.255,0,0,1,.718-.577s-.406-.415-.052-.734a7.719,7.719,0,0,0,1.072-.964,29.166,29.166,0,0,1,3.755-3.589,35.494,35.494,0,0,1,8.929-5.264,3.911,3.911,0,0,1,3.084-1.715,23.719,23.719,0,0,1,6.511-6.673c.7-1.258,1-1.122,1.91-1.375.715-.578.882-.578,1.2-1.181.312-1.245-.722-4.566,1.923-4.736a12.192,12.192,0,0,1,1.046-1.351,11.236,11.236,0,0,1-.717-2.671c-.017-.09-1.049-.816-.755-1.76a14.542,14.542,0,0,1-1.512-2.3,1.982,1.982,0,0,1-.339-.062c-.134-.013-.3-.01-.488-.028a1.9,1.9,0,0,1-1.59,1.373c-1.309,2.783-1.767,3.962-5.466,6.265a9.261,9.261,0,0,0-1.928,3.446,2.591,2.591,0,0,0-.028,1.706c-.2.6-.144.667-.144.667a.946.946,0,0,0,.547.593c.443.117.889.1.865.595-.064.614-.872.512-1.257.442-1.475-.231-1.014-1.194-1.956-.872-.725.471-1,1.873-2.18,1.693-.158-.1-.107-.414,0-.635.167-.343.461-.625.286-.762-.765.249-2.311.757-2.311.757-.723.2-1.519-.165-.8-.641a6.592,6.592,0,0,0,1.386-.662s.3-.406-.274-.2a5.745,5.745,0,0,1-2.227.29,11.344,11.344,0,0,1-1.559-.287c-.179-.107-.344-.538.087-.538a14.184,14.184,0,0,0,2.982-.441c.511-.2,1.488-.774,2.037-1.045a4.793,4.793,0,0,1,.919-1.036c.545-.627,1-1,1.484-1.642a30.511,30.511,0,0,1,2.527-4.9,22.517,22.517,0,0,1,2.747-3.522,5.886,5.886,0,0,1,1.766-3.136,23.38,23.38,0,0,1,1.3-2.5c.187-.321.369-.6.549-.9.457-.72.933-2.05,2.712-2.256a6.615,6.615,0,0,0,1.048-.955c.457-.4.352-1,.722-1.424-.563-.551-2.014-1.589-2.153-3.03A4.514,4.514,0,0,1,84,1226.944a4.293,4.293,0,0,1,3.42-1.461,3.323,3.323,0,0,1,2.474,1.325c.5.512.689.184.9.778,1.374.368,1.3.2,1.287,1.22a1.688,1.688,0,0,1,.564,1.133,4.9,4.9,0,0,1,1.786-2.182c.291-.863.49-1.7.749-2.561.237-.8.536-1.616.768-2.23-.248-1.733.261-2.02.933-3.541-.117-.2-.1-.27-.041-.611.259-1.006.669-2.336.913-3.2a.491.491,0,0,1,.439-.368c.307-1.1.771-3.142.846-3.56a2.7,2.7,0,0,0-.129-2.164,4.076,4.076,0,0,0-.179-.745c-.381-.668-.795-1.533-1.078-2.16a5.532,5.532,0,0,1-.574-2.488,5.239,5.239,0,0,1,4.779-5.5,5.107,5.107,0,0,1,1.854.223l1.044-2.342a59.712,59.712,0,0,0-62.737,92.51l3.491-2.642c-.282-.382-.465-.675-.465-.675" transform="translate(-26.114 -1189.888)" fill="#e10033"/>
  <path id="패스_18981" data-name="패스 18981" d="M174.641,1218.425a5.239,5.239,0,0,0-4.779,5.5,5.53,5.53,0,0,0,.574,2.488c.283.627.7,1.492,1.078,2.16a4.092,4.092,0,0,1,.179.745,2.7,2.7,0,0,1,.129,2.164c-.075.418-.539,2.463-.846,3.56a.491.491,0,0,0-.439.368c-.244.867-.655,2.2-.913,3.2-.054.342-.076.407.041.611-.673,1.521-1.181,1.808-.933,3.541-.232.615-.532,1.434-.769,2.23-.259.857-.458,1.7-.749,2.561a4.9,4.9,0,0,0-1.786,2.182,1.687,1.687,0,0,0-.564-1.133c.011-1.018.087-.852-1.287-1.22-.212-.595-.4-.266-.9-.778a3.322,3.322,0,0,0-2.474-1.325,4.292,4.292,0,0,0-3.42,1.461,4.515,4.515,0,0,0-1.322,3.721c.139,1.441,1.59,2.479,2.153,3.03-.37.426-.265,1.028-.722,1.424a6.616,6.616,0,0,1-1.048.955c-1.779.206-2.256,1.536-2.712,2.256-.179.3-.362.582-.549.9a23.369,23.369,0,0,0-1.3,2.5,5.886,5.886,0,0,0-1.766,3.136,22.5,22.5,0,0,0-2.747,3.522,30.494,30.494,0,0,0-2.527,4.9c-.482.643-.939,1.015-1.484,1.642a4.791,4.791,0,0,0-.919,1.036c-.548.271-1.526.848-2.037,1.045a14.209,14.209,0,0,1-2.982.441c-.431,0-.266.43-.087.537a11.359,11.359,0,0,0,1.559.287,5.747,5.747,0,0,0,2.227-.29c.574-.2.274.2.274.2a6.575,6.575,0,0,1-1.386.662c-.719.477.077.838.8.641,0,0,1.546-.509,2.311-.757.175.137-.12.419-.286.762-.1.221-.155.531,0,.635,1.184.18,1.455-1.222,2.18-1.693.942-.322.481.641,1.956.872.385.07,1.193.171,1.257-.442.024-.494-.421-.478-.865-.595a.946.946,0,0,1-.547-.593s-.052-.064.144-.667a2.591,2.591,0,0,1,.028-1.706,9.261,9.261,0,0,1,1.928-3.446c3.7-2.3,4.156-3.482,5.466-6.265a1.9,1.9,0,0,0,1.59-1.373c.187.018.354.014.488.028a1.97,1.97,0,0,0,.339.062,14.54,14.54,0,0,0,1.512,2.3c-.294.944.738,1.671.755,1.76a11.234,11.234,0,0,0,.717,2.671,12.213,12.213,0,0,0-1.046,1.351c-2.645.17-1.611,3.491-1.923,4.736-.321.6-.488.6-1.2,1.181-.909.253-1.214.117-1.91,1.376a23.715,23.715,0,0,0-6.511,6.673,3.911,3.911,0,0,0-3.084,1.715,35.494,35.494,0,0,0-8.929,5.264,29.186,29.186,0,0,0-3.755,3.589,7.715,7.715,0,0,1-1.072.964c-.354.32.052.734.052.734a3.257,3.257,0,0,0-.718.577l-.515-.45c-.724-.2-.792.75-1.143,1.109-.6.442-.792-.342-.849-.951a2.358,2.358,0,0,0-.283-.717c-.085-.1-.139-.218-.3-.13s-.219.2-.279.458a2.214,2.214,0,0,0,.291.939c-.1.785.21.951.261,1.3.013.108-.044.131-.168.2-.3-.21-.368-.266-.762.074-.317.279-.392.243-.335.934-.224.074-.67.343-1.1.515-.51-.052-.645.086-.645.086s-.52.2-1.051.37a2.712,2.712,0,0,0-.656.239c-.677.052-.677-.032-1.011.088-.572.213-.484.021-.81.144a1.685,1.685,0,0,0-1.1.477c-.924.661-1.1,1.1-.8,1.806,0,0,.183.293.465.675a7.451,7.451,0,0,0,1.328,1.432,3.14,3.14,0,0,0,2.371.468,3.875,3.875,0,0,0,1.037-.492c1.836-.838,1.942.279,3.464-.245.175.005,1.145-.743,1.114-1.262.53.032.351-.565,1.041-1.056,1.2-.085,1.2-1.246,1.7-1.661.1-.085.164-.25.294-.294.621-.22.32-.115.617-.568.445-.509.51-.278,1.022-.728.271.016.334.147,1.07-.39.185-.135.4-.274.68-.513,1.023.438.986.2,1.519-.273,0,0,.7-.582,1.621-1.274,1.191-.891,2.722-1.985,3.146-2.324.75-.233,2.376-1.261,3.215-1.661a51.928,51.928,0,0,0,5.814-3.969c1.559-.561,4.42-1.991,4.42-1.991,1-.478,1.98-.936,2.824-1.427.938-.537,1.817-1.066,2.776-1.581,1.034-.555,2.149-1.093,3.339-1.708a1.529,1.529,0,0,1,1.024-.157,4.358,4.358,0,0,1,.722.371,11.867,11.867,0,0,0,3.071,1.11,26.628,26.628,0,0,1,3.7,1.411c.661.279,1.323.458,2.084.824a15.633,15.633,0,0,0,4.924,1.674,11,11,0,0,1,1.754.385c.39.115.812.192,1.583.335a12.032,12.032,0,0,0,2.06,1.122c.657.328,4.525,3.253,6.135,4.545a3.684,3.684,0,0,0,1.943.9c3.569,2.536,3.881,3.38,5.232,3.092l1.183.953a6,6,0,0,0,1.694,1.606,5.765,5.765,0,0,0,1.813,2.147c-.091-.007.127.644.426,1.223.27.523.43.766.43.766.358.66.53.96,1.077.6.221-.149.69-.435.867-.589a17.725,17.725,0,0,1,2.732-2.193,16.121,16.121,0,0,0,2.8-1.776,31.427,31.427,0,0,0,2.62-2.377c.384-.375.682-.639.9-.879,0,0,.021-.021.029-.03.6-.624.361-.628-.034-1.074a1.727,1.727,0,0,0-1.789-.27,8.432,8.432,0,0,0-1.377.79,3.122,3.122,0,0,1-2.009.543c-1.321.154-2.292-.242-3.88-.028a10.752,10.752,0,0,1,1.408-1.91,8.494,8.494,0,0,1,1.308-.6c.02-.093.074-.365-.2-.369a3.209,3.209,0,0,0-1.221.276,4.6,4.6,0,0,0-1.106.952s-.294-.179-.473,0c-.494.548-.393.428-.972.574a2.429,2.429,0,0,1-1.146-.7c-.328.082-.328.174-.52.112a8.612,8.612,0,0,1-.735-.568,8.029,8.029,0,0,0,.3-.747c.021-.047,0-.079-.075-.22-.473-.248-.71-.494-1.3-.836a100.323,100.323,0,0,0-12.945-9.86,4.769,4.769,0,0,0-2.749-1.163,25.532,25.532,0,0,0-2.8-2.616c-2.318-1.979-5.128-3.017-6.985-4,1.322-1.9-1.065-3.107-2.02-3.544l-.779-1.833a26.066,26.066,0,0,0,.594-10.172c-.168-1.756-1.3-2.468-1.7-4.181-.4-1.672-.758-2.775-.379-4.38,1.462-3.428,1.306-3.751,1.345-5.911a6.251,6.251,0,0,0,.493-2.585,19.263,19.263,0,0,0,1.369-4.863,1.518,1.518,0,0,0,.741-1.1,28.693,28.693,0,0,0,.413-2.877c.019-.423-.022-.51-.176-.682.042-1.21.338-3.469.394-4.234a1.534,1.534,0,0,0,.08-.44c.707-1.985-.326-1.9-.035-2.359a.569.569,0,0,1,.284-.132,3.954,3.954,0,0,0,.526-.008,5.153,5.153,0,0,0-.719-10.28" transform="translate(-98.893 -1209.685)"/>
  <path id="패스_18982" data-name="패스 18982" d="M64.691,1163.774a64.691,64.691,0,1,0,64.691,64.691,64.692,64.692,0,0,0-64.691-64.691m0,124.419a59.73,59.73,0,1,1,53.473-33.12,59.636,59.636,0,0,1-53.473,33.12" transform="translate(0 -1163.774)"/>
  <path id="패스_18983" data-name="패스 18983" d="M490.977,1289.9a59.723,59.723,0,0,0-39.518-84.679l-1.044,2.342a5.144,5.144,0,0,1-1.135,10.057,3.953,3.953,0,0,1-.526.008.569.569,0,0,0-.284.132c-.291.458.742.374.035,2.359a1.535,1.535,0,0,1-.08.44c-.055.765-.352,3.024-.394,4.234.154.172.195.26.176.682a28.639,28.639,0,0,1-.413,2.877,1.517,1.517,0,0,1-.741,1.1,19.262,19.262,0,0,1-1.369,4.863,6.253,6.253,0,0,1-.493,2.585c-.04,2.16.116,2.483-1.346,5.911-.378,1.6-.019,2.708.379,4.38.406,1.713,1.535,2.425,1.7,4.181a26.066,26.066,0,0,1-.594,10.172l.779,1.833c.954.437,3.342,1.642,2.019,3.544,1.857.978,4.667,2.017,6.985,4a25.533,25.533,0,0,1,2.8,2.616,4.767,4.767,0,0,1,2.749,1.163,100.358,100.358,0,0,1,12.945,9.86c.59.342.827.588,1.3.836.075.142.1.174.075.22-.157.409-.148.421-.3.747a8.662,8.662,0,0,0,.735.568c.191.062.191-.03.52-.112a2.428,2.428,0,0,0,1.146.7c.578-.146.478-.026.972-.574.179-.179.473,0,.473,0a4.6,4.6,0,0,1,1.106-.952,3.209,3.209,0,0,1,1.221-.276c.273,0,.219.276.2.369a8.507,8.507,0,0,0-1.308.6,10.756,10.756,0,0,0-1.408,1.91c1.588-.214,2.559.181,3.88.028a3.122,3.122,0,0,0,2.009-.543,8.429,8.429,0,0,1,1.376-.79,1.728,1.728,0,0,1,1.789.27c.395.446.633.45.034,1.074l-.03.03c-.215.24-.513.5-.9.879a31.436,31.436,0,0,1-2.62,2.377c-.4.308-.814.6-1.219.869,1.653.981,3.3,2.072,4.834,3.174a59.712,59.712,0,0,0,3.479-6.059" transform="translate(-372.813 -1198.597)" fill="#bd7517"/>
</svg>
