<svg id="구성_요소_57_2" data-name="구성 요소 57 – 2" xmlns="http://www.w3.org/2000/svg" width="128.931" height="128.931" viewBox="0 0 128.931 128.931">
  <path id="패스_18988" data-name="패스 18988" d="M2272.963,2555.321a33.215,33.215,0,1,0,33.215,33.215,33.215,33.215,0,0,0-33.215-33.215m0,45.792a12.578,12.578,0,1,1,12.578-12.577,12.578,12.578,0,0,1-12.578,12.577" transform="translate(-2208.498 -2524.071)" fill="#7058ff"/>
  <path id="패스_18989" data-name="패스 18989" d="M2102.583,2353.69a64.466,64.466,0,1,0,64.466,64.466,64.466,64.466,0,0,0-64.466-64.466m0,97.681a33.215,33.215,0,1,1,33.215-33.215,33.215,33.215,0,0,1-33.215,33.215" transform="translate(-2038.117 -2353.69)"/>
  <path id="패스_18990" data-name="패스 18990" d="M2271.594,2807.8a2.126,2.126,0,0,1-1.773-.09c-.926-.688-.225-2.069.031-2.48a12.08,12.08,0,0,0-1.255,1.561,2.44,2.44,0,0,0-.415,2.417c.669,1.092,2.276.593,3.3.147l9.429-4.084Z" transform="translate(-2232.372 -2735.251)"/>
  <path id="패스_18991" data-name="패스 18991" d="M2280.924,2792.618l-.132,1.522.558-1.522h.822l-1.255,3.466h-.811l.1-1.666-.6,1.666h-.812l1.248-3.466Zm1,3.466,1.255-3.466h-.821l-1.255,3.466Zm4.167-.7-.88.005.3-.827h.715l.218-.613h-.708l.245-.689h.712l.234-.644h-2.3l-.833,1.008.384-1.008h-.819l-1.248,3.466h.818l.53-1.481.01,1.481h2.374Zm-.771-2.642.058-.052-1.146,3.176-.063-1.735Z" transform="translate(-2241.488 -2724.59)"/>
  <path id="패스_18992" data-name="패스 18992" d="M2337.908,2892.338h-.78v.417h.711v.549h-.711v.979h-.648v-2.493h1.428Z" transform="translate(-2290.238 -2808.391)"/>
  <path id="패스_18993" data-name="패스 18993" d="M2347.854,2897.537q0,.387.364.387a.325.325,0,0,0,.294-.159h.578a.808.808,0,0,1-.875.582,1.14,1.14,0,0,1-.394-.065.878.878,0,0,1-.306-.183.821.821,0,0,1-.2-.284.94.94,0,0,1-.07-.37,1.05,1.05,0,0,1,.066-.382.8.8,0,0,1,.188-.289.842.842,0,0,1,.3-.184,1.128,1.128,0,0,1,.391-.064,1.108,1.108,0,0,1,.387.064.8.8,0,0,1,.291.187.816.816,0,0,1,.182.3,1.185,1.185,0,0,1,.063.4v.063Zm.7-.347a.36.36,0,0,0-.123-.2.379.379,0,0,0-.451,0,.329.329,0,0,0-.111.2Z" transform="translate(-2299.337 -2812.393)"/>
  <path id="패스_18994" data-name="패스 18994" d="M2362.421,2896.641h.6v1.7h-.6v-.189a.629.629,0,0,1-.519.242.842.842,0,0,1-.34-.068.822.822,0,0,1-.271-.19.879.879,0,0,1-.18-.288.983.983,0,0,1-.064-.36.955.955,0,0,1,.063-.345.889.889,0,0,1,.175-.286.831.831,0,0,1,.268-.194.821.821,0,0,1,.343-.071.693.693,0,0,1,.526.221Zm-.754.843a.394.394,0,0,0,.111.278.364.364,0,0,0,.122.083.4.4,0,0,0,.154.03.385.385,0,0,0,.15-.03.368.368,0,0,0,.122-.083.432.432,0,0,0,.083-.122.359.359,0,0,0,.031-.149.371.371,0,0,0-.031-.15.421.421,0,0,0-.083-.124.364.364,0,0,0-.122-.083.381.381,0,0,0-.15-.03.391.391,0,0,0-.154.03.361.361,0,0,0-.122.083.4.4,0,0,0-.081.121.357.357,0,0,0-.03.147" transform="translate(-2310.996 -2812.445)"/>
  <path id="패스_18995" data-name="패스 18995" d="M2376.388,2894.653v1.2h-.6v-1.2h-.2v-.5h.2v-.509h.6v.509h.34v.5Z" transform="translate(-2323.287 -2809.959)"/>
  <path id="패스_18996" data-name="패스 18996" d="M2384.975,2896.93v.955a.3.3,0,1,0,.608,0v-.955h.6V2898a.606.606,0,0,1-.227.515,1.413,1.413,0,0,1-1.352,0,.6.6,0,0,1-.227-.515v-1.071Z" transform="translate(-2330.711 -2812.734)"/>
  <path id="패스_18997" data-name="패스 18997" d="M2398.644,2896.731h.6v.278a.685.685,0,0,1,.235-.233.631.631,0,0,1,.324-.081h.051a.418.418,0,0,1,.064.007v.572a.57.57,0,0,0-.258-.059.386.386,0,0,0-.313.124.55.55,0,0,0-.1.362v.727h-.6Z" transform="translate(-2342.767 -2812.536)"/>
  <path id="패스_18998" data-name="패스 18998" d="M2408.325,2890.892a.327.327,0,0,1,.026-.13.343.343,0,0,1,.18-.18.336.336,0,0,1,.261,0,.335.335,0,0,1,.107.073.346.346,0,0,1,.073.108.326.326,0,0,1,.026.13.331.331,0,0,1-.026.13.353.353,0,0,1-.073.107.347.347,0,0,1-.107.073.339.339,0,0,1-.261,0,.345.345,0,0,1-.18-.18.331.331,0,0,1-.026-.13m.638,2.347h-.6v-1.7h.6Z" transform="translate(-2350.947 -2807.347)"/>
  <path id="패스_18999" data-name="패스 18999" d="M2415.084,2896.731h.6v.215a.656.656,0,0,1,.248-.2.774.774,0,0,1,.294-.051.735.735,0,0,1,.306.058.611.611,0,0,1,.217.163.476.476,0,0,1,.1.192,1.011,1.011,0,0,1,.027.241v1.077h-.6v-.856a.95.95,0,0,0-.018-.2.256.256,0,0,0-.065-.124.227.227,0,0,0-.089-.056.327.327,0,0,0-.106-.017.3.3,0,0,0-.233.091.379.379,0,0,0-.081.26v.906h-.6Z" transform="translate(-2356.659 -2812.536)"/>
  <path id="패스_19000" data-name="패스 19000" d="M2430.781,2896.676v1.58a1.764,1.764,0,0,1-.017.255,1.084,1.084,0,0,1-.046.2.626.626,0,0,1-.124.2.851.851,0,0,1-.2.164,1.09,1.09,0,0,1-.27.109,1.363,1.363,0,0,1-.689-.01.993.993,0,0,1-.29-.137.8.8,0,0,1-.2-.2.677.677,0,0,1-.106-.257h.674a.268.268,0,0,0,.284.169.382.382,0,0,0,.29-.106.411.411,0,0,0,.1-.294v-.162a.916.916,0,0,1-.127.1.666.666,0,0,1-.124.068.578.578,0,0,1-.132.038.977.977,0,0,1-.152.011.862.862,0,0,1-.333-.063.769.769,0,0,1-.435-.445.957.957,0,0,1-.061-.348.971.971,0,0,1,.066-.362.939.939,0,0,1,.18-.291.828.828,0,0,1,.613-.266.656.656,0,0,1,.506.225v-.179Zm-1.342.839a.393.393,0,0,0,.03.154.389.389,0,0,0,.081.124.358.358,0,0,0,.122.083.393.393,0,0,0,.154.03.386.386,0,0,0,.15-.03.365.365,0,0,0,.122-.083.429.429,0,0,0,.083-.124.373.373,0,0,0,.031-.15.366.366,0,0,0-.031-.152.415.415,0,0,0-.084-.122.381.381,0,0,0-.124-.083.377.377,0,0,0-.147-.03.364.364,0,0,0-.149.031.433.433,0,0,0-.122.083.389.389,0,0,0-.084.121.359.359,0,0,0-.031.148" transform="translate(-2368.264 -2812.481)"/>
  <path id="패스_19001" data-name="패스 19001" d="M2452.368,2894.282h-.648v-2.492h1.031a.884.884,0,0,1,.643.218.959.959,0,0,1,0,1.23.884.884,0,0,1-.643.218h-.384Zm0-1.349h.215c.238,0,.357-.1.357-.31s-.119-.311-.357-.311h-.215Z" transform="translate(-2387.617 -2808.391)"/>
  <path id="패스_19002" data-name="패스 19002" d="M2465.816,2890.171h.6v1.262a.652.652,0,0,1,.248-.2.772.772,0,0,1,.294-.051.627.627,0,0,1,.484.177.675.675,0,0,1,.164.478v1.078h-.6v-.856a.889.889,0,0,0-.02-.208.247.247,0,0,0-.066-.122.281.281,0,0,0-.192-.07.3.3,0,0,0-.233.091.378.378,0,0,0-.081.26v.906h-.6Z" transform="translate(-2399.528 -2807.023)"/>
  <path id="패스_19003" data-name="패스 19003" d="M2479.722,2890.892a.315.315,0,0,1,.027-.13.34.34,0,0,1,.18-.18.337.337,0,0,1,.261,0,.34.34,0,0,1,.107.073.348.348,0,0,1,.073.108.315.315,0,0,1,.027.13.319.319,0,0,1-.027.13.343.343,0,0,1-.18.18.34.34,0,0,1-.261,0,.35.35,0,0,1-.107-.073.343.343,0,0,1-.072-.107.319.319,0,0,1-.027-.13m.638,2.347h-.6v-1.7h.6Z" transform="translate(-2411.279 -2807.347)"/>
  <rect id="사각형_5634" data-name="사각형 5634" width="0.599" height="2.743" transform="translate(69.491 83.148)"/>
  <path id="패스_19004" data-name="패스 19004" d="M2501.246,2892.818l.79-1.028h.8l-.988,1.18,1.081,1.312h-.84l-.843-1.081v1.081h-.648v-2.492h.648Z" transform="translate(-2428.919 -2808.391)"/>
  <path id="패스_19005" data-name="패스 19005" d="M2517.125,2896.731h.6v.215a.659.659,0,0,1,.248-.2.777.777,0,0,1,.294-.051.734.734,0,0,1,.306.058.607.607,0,0,1,.217.163.47.47,0,0,1,.1.192,1,1,0,0,1,.026.241v1.077h-.6v-.856a.915.915,0,0,0-.018-.2.251.251,0,0,0-.064-.124.229.229,0,0,0-.089-.056.327.327,0,0,0-.106-.017.3.3,0,0,0-.233.091.379.379,0,0,0-.081.26v.906h-.6Z" transform="translate(-2442.885 -2812.536)"/>
  <path id="패스_19006" data-name="패스 19006" d="M2531.03,2890.892a.319.319,0,0,1,.027-.13.341.341,0,0,1,.18-.18.337.337,0,0,1,.261,0,.335.335,0,0,1,.107.073.344.344,0,0,1,.072.108.315.315,0,0,1,.027.13.319.319,0,0,1-.027.13.351.351,0,0,1-.072.107.347.347,0,0,1-.107.073.34.34,0,0,1-.261,0,.353.353,0,0,1-.107-.073.348.348,0,0,1-.073-.107.323.323,0,0,1-.027-.13m.638,2.347h-.6v-1.7h.6Z" transform="translate(-2454.635 -2807.347)"/>
  <path id="패스_19007" data-name="패스 19007" d="M2539.328,2896.676v1.58a1.7,1.7,0,0,1-.017.255,1.085,1.085,0,0,1-.046.2.631.631,0,0,1-.124.2.843.843,0,0,1-.2.164,1.081,1.081,0,0,1-.269.109,1.364,1.364,0,0,1-.689-.01.983.983,0,0,1-.289-.137.79.79,0,0,1-.2-.2.686.686,0,0,1-.106-.257h.674a.269.269,0,0,0,.285.169.381.381,0,0,0,.289-.106.408.408,0,0,0,.1-.294v-.162a.9.9,0,0,1-.127.1.686.686,0,0,1-.124.068.593.593,0,0,1-.132.038.971.971,0,0,1-.152.011.865.865,0,0,1-.334-.063.764.764,0,0,1-.434-.445.946.946,0,0,1-.061-.348.976.976,0,0,1,.066-.362.94.94,0,0,1,.18-.291.827.827,0,0,1,.613-.266.655.655,0,0,1,.505.225v-.179Zm-1.342.839a.393.393,0,0,0,.111.278.366.366,0,0,0,.122.083.4.4,0,0,0,.154.03.383.383,0,0,0,.15-.03.364.364,0,0,0,.123-.083.425.425,0,0,0,.083-.124.373.373,0,0,0,.031-.15.366.366,0,0,0-.031-.152.411.411,0,0,0-.085-.122.372.372,0,0,0-.124-.083.379.379,0,0,0-.147-.03.364.364,0,0,0-.148.031.426.426,0,0,0-.122.083.385.385,0,0,0-.084.121.351.351,0,0,0-.031.148" transform="translate(-2459.988 -2812.481)"/>
  <path id="패스_19008" data-name="패스 19008" d="M2552.653,2890.171h.6v1.262a.652.652,0,0,1,.248-.2.773.773,0,0,1,.294-.051.627.627,0,0,1,.484.177.675.675,0,0,1,.164.478v1.078h-.6v-.856a.889.889,0,0,0-.02-.208.246.246,0,0,0-.066-.122.28.28,0,0,0-.192-.07.3.3,0,0,0-.233.091.378.378,0,0,0-.081.26v.906h-.6Z" transform="translate(-2472.906 -2807.023)"/>
  <path id="패스_19009" data-name="패스 19009" d="M2566.778,2894.653v1.2h-.6v-1.2h-.2v-.5h.2v-.509h.6v.509h.341v.5Z" transform="translate(-2484.169 -2809.959)"/>
  <path id="패스_19010" data-name="패스 19010" d="M2356.77,2922.233h.6v1.7h-.6v-.188a.63.63,0,0,1-.519.241.846.846,0,0,1-.34-.067.829.829,0,0,1-.271-.19.889.889,0,0,1-.18-.288.985.985,0,0,1-.064-.36.954.954,0,0,1,.063-.346.881.881,0,0,1,.175-.286.824.824,0,0,1,.268-.193.816.816,0,0,1,.344-.071.692.692,0,0,1,.526.221Zm-.754.843a.4.4,0,0,0,.03.153.389.389,0,0,0,.081.124.369.369,0,0,0,.122.083.4.4,0,0,0,.154.029.391.391,0,0,0,.15-.029.369.369,0,0,0,.122-.083.431.431,0,0,0,.083-.122.363.363,0,0,0,.031-.149.374.374,0,0,0-.031-.15.427.427,0,0,0-.083-.124.368.368,0,0,0-.122-.083.392.392,0,0,0-.15-.03.4.4,0,0,0-.154.03.368.368,0,0,0-.122.083.41.41,0,0,0-.081.121.36.36,0,0,0-.03.147" transform="translate(-2306.221 -2834.071)"/>
  <path id="패스_19011" data-name="패스 19011" d="M2370.77,2922.324h.6v.215a.657.657,0,0,1,.248-.2.774.774,0,0,1,.294-.051.743.743,0,0,1,.306.058.615.615,0,0,1,.217.164.47.47,0,0,1,.1.191,1,1,0,0,1,.027.241v1.078h-.6v-.856a.943.943,0,0,0-.018-.2.25.25,0,0,0-.065-.124.218.218,0,0,0-.089-.056.328.328,0,0,0-.106-.017.3.3,0,0,0-.233.091.377.377,0,0,0-.081.259v.906h-.6Z" transform="translate(-2319.213 -2834.161)"/>
  <path id="패스_19012" data-name="패스 19012" d="M2385.878,2915.763h.6v2.743h-.6v-.188a.629.629,0,0,1-.519.241.823.823,0,0,1-.34-.069.837.837,0,0,1-.271-.192.875.875,0,0,1-.18-.287,1.014,1.014,0,0,1,0-.7.863.863,0,0,1,.174-.286.815.815,0,0,1,.269-.194.828.828,0,0,1,.345-.071.691.691,0,0,1,.526.221Zm-.754,1.891a.4.4,0,0,0,.111.278.364.364,0,0,0,.122.083.4.4,0,0,0,.154.029.392.392,0,0,0,.15-.029.369.369,0,0,0,.122-.083.436.436,0,0,0,.083-.122.36.36,0,0,0,.031-.149.372.372,0,0,0-.031-.151.424.424,0,0,0-.083-.124.373.373,0,0,0-.122-.083.395.395,0,0,0-.3,0,.375.375,0,0,0-.123.083.454.454,0,0,0-.083.121.352.352,0,0,0-.031.147" transform="translate(-2330.817 -2828.649)"/>
  <path id="패스_19013" data-name="패스 19013" d="M2407.159,2917.93v1.943h-.648v-1.943h-.532v-.549h1.712v.549Z" transform="translate(-2348.965 -2830.016)"/>
  <path id="패스_19014" data-name="패스 19014" d="M2418.518,2915.763h.6v1.262a.653.653,0,0,1,.248-.2.769.769,0,0,1,.294-.052.629.629,0,0,1,.484.177.675.675,0,0,1,.164.478v1.077h-.6v-.856a.874.874,0,0,0-.02-.208.239.239,0,0,0-.066-.122.281.281,0,0,0-.192-.07.3.3,0,0,0-.233.091.377.377,0,0,0-.081.26v.905h-.6Z" transform="translate(-2359.561 -2828.649)"/>
  <path id="패스_19015" data-name="패스 19015" d="M2432.856,2923.129q0,.387.364.387a.325.325,0,0,0,.294-.158h.578a.808.808,0,0,1-.876.582,1.139,1.139,0,0,1-.393-.065.872.872,0,0,1-.306-.183.816.816,0,0,1-.2-.285.94.94,0,0,1-.07-.37,1.052,1.052,0,0,1,.066-.382.8.8,0,0,1,.188-.289.839.839,0,0,1,.3-.183,1.12,1.12,0,0,1,.392-.064,1.094,1.094,0,0,1,.387.064.79.79,0,0,1,.291.187.813.813,0,0,1,.182.3,1.186,1.186,0,0,1,.063.4v.063Zm.7-.347a.359.359,0,0,0-.123-.2.378.378,0,0,0-.451,0,.327.327,0,0,0-.111.2Z" transform="translate(-2371.165 -2834.019)"/>
  <path id="패스_19016" data-name="패스 19016" d="M2454.318,2919.441h-.926l-.149.433h-.691l.948-2.492h.708l.949,2.492h-.691Zm-.172-.492-.291-.83-.291.83Z" transform="translate(-2388.321 -2830.017)"/>
  <path id="패스_19017" data-name="패스 19017" d="M2470.8,2916.484a.321.321,0,0,1,.027-.13.341.341,0,0,1,.073-.107.349.349,0,0,1,.107-.073.341.341,0,0,1,.262,0,.344.344,0,0,1,.18.18.33.33,0,0,1,0,.261.344.344,0,0,1-.18.18.341.341,0,0,1-.262,0,.345.345,0,0,1-.107-.073.338.338,0,0,1-.073-.107.324.324,0,0,1-.027-.131m.638,2.347h-.6v-1.7h.6Z" transform="translate(-2403.744 -2828.973)"/>
  <path id="패스_19018" data-name="패스 19018" d="M2477.565,2922.324h.6v.277a.68.68,0,0,1,.235-.232.629.629,0,0,1,.324-.082h.051a.415.415,0,0,1,.064.006v.572a.569.569,0,0,0-.258-.06.386.386,0,0,0-.312.124.55.55,0,0,0-.1.362v.727h-.6Z" transform="translate(-2409.456 -2834.161)"/>
  <path id="패스_19019" data-name="패스 19019" d="M2495.855,2917.643a.788.788,0,0,0-.212-.127.557.557,0,0,0-.2-.042.333.333,0,0,0-.205.06.186.186,0,0,0-.079.156.154.154,0,0,0,.04.109.337.337,0,0,0,.1.074.9.9,0,0,0,.145.054l.16.05a1,1,0,0,1,.465.283.7.7,0,0,1,.147.461.888.888,0,0,1-.064.347.724.724,0,0,1-.188.266.866.866,0,0,1-.3.172,1.274,1.274,0,0,1-.408.061,1.5,1.5,0,0,1-.876-.281l.278-.522a1.144,1.144,0,0,0,.287.191.7.7,0,0,0,.281.063.335.335,0,0,0,.236-.073.223.223,0,0,0,.078-.165.226.226,0,0,0-.02-.1.207.207,0,0,0-.066-.076.523.523,0,0,0-.121-.065c-.05-.02-.11-.042-.18-.066s-.166-.056-.246-.087a.764.764,0,0,1-.215-.127.6.6,0,0,1-.152-.2.713.713,0,0,1-.058-.306.879.879,0,0,1,.061-.335.746.746,0,0,1,.172-.258.759.759,0,0,1,.271-.167,1.027,1.027,0,0,1,.359-.06,1.568,1.568,0,0,1,.386.051,1.712,1.712,0,0,1,.387.15Z" transform="translate(-2423.66 -2829.639)"/>
  <path id="패스_19020" data-name="패스 19020" d="M2508.083,2923.013a.822.822,0,0,1,.076-.352.865.865,0,0,1,.212-.284,1.009,1.009,0,0,1,.322-.19,1.164,1.164,0,0,1,.408-.069,1.179,1.179,0,0,1,.4.068,1.008,1.008,0,0,1,.323.188.84.84,0,0,1,.214.288.88.88,0,0,1,.076.368.861.861,0,0,1-.078.368.874.874,0,0,1-.213.288.969.969,0,0,1-.326.187,1.254,1.254,0,0,1-.412.066,1.2,1.2,0,0,1-.4-.066.936.936,0,0,1-.319-.189.874.874,0,0,1-.21-.292.915.915,0,0,1-.076-.378m.631.006a.386.386,0,0,0,.031.157.43.43,0,0,0,.083.124.365.365,0,0,0,.122.082.4.4,0,0,0,.3,0,.367.367,0,0,0,.122-.082.425.425,0,0,0,.083-.124.37.37,0,0,0,.031-.153.361.361,0,0,0-.031-.15.42.42,0,0,0-.083-.124.361.361,0,0,0-.122-.083.395.395,0,0,0-.3,0,.358.358,0,0,0-.122.083.436.436,0,0,0-.083.122.36.36,0,0,0-.031.148" transform="translate(-2435.244 -2834.019)"/>
  <path id="패스_19021" data-name="패스 19021" d="M2524.036,2922.522v.955a.3.3,0,1,0,.608,0v-.955h.6v1.07a.606.606,0,0,1-.226.516,1.411,1.411,0,0,1-1.352,0,.606.606,0,0,1-.227-.516v-1.07Z" transform="translate(-2448.218 -2834.36)"/>
  <rect id="사각형_5635" data-name="사각형 5635" width="0.599" height="2.743" transform="translate(77.43 87.114)"/>
  <path id="패스_19022" data-name="패스 19022" d="M2544.755,2922.617a.7.7,0,0,0-.324-.086.246.246,0,0,0-.134.033.1.1,0,0,0-.051.089.118.118,0,0,0,.008.048.083.083,0,0,0,.036.035.311.311,0,0,0,.083.03l.144.033a.688.688,0,0,1,.37.177.45.45,0,0,1,.122.325.591.591,0,0,1-.059.268.564.564,0,0,1-.165.2.777.777,0,0,1-.254.125,1.132,1.132,0,0,1-.327.045,1.329,1.329,0,0,1-.677-.2l.218-.423a.855.855,0,0,0,.476.172.236.236,0,0,0,.135-.037.109.109,0,0,0,.053-.093.155.155,0,0,0-.009-.054.087.087,0,0,0-.035-.04.254.254,0,0,0-.078-.033c-.034-.01-.079-.021-.134-.031a.765.765,0,0,1-.388-.167.412.412,0,0,1-.111-.306.6.6,0,0,1,.053-.256.534.534,0,0,1,.152-.193.707.707,0,0,1,.24-.122,1.061,1.061,0,0,1,.313-.043,1.41,1.41,0,0,1,.545.109Z" transform="translate(-2465.193 -2834.019)"/>
  <path id="패스_19023" data-name="패스 19023" d="M2368.071,2944.578h-.561l-.09.262H2367l.574-1.51h.429l.574,1.51h-.418Zm-.1-.3-.176-.5-.176.5Z" transform="translate(-2316.029 -2851.943)"/>
  <path id="패스_19024" data-name="패스 19024" d="M2378.216,2946.324h.362v.168a.418.418,0,0,1,.142-.141.378.378,0,0,1,.2-.049h.031a.237.237,0,0,1,.039,0v.346a.345.345,0,0,0-.156-.036.234.234,0,0,0-.189.075.334.334,0,0,0-.063.22v.44h-.362Z" transform="translate(-2325.505 -2854.455)"/>
  <path id="패스_19025" data-name="패스 19025" d="M2384.236,2946.324h.362v.168a.416.416,0,0,1,.142-.141.378.378,0,0,1,.2-.049h.031a.237.237,0,0,1,.039,0v.346a.344.344,0,0,0-.156-.036.235.235,0,0,0-.189.075.335.335,0,0,0-.063.22v.44h-.362Z" transform="translate(-2330.592 -2854.455)"/>
  <path id="패스_19026" data-name="패스 19026" d="M2390.909,2946.269h.365v1.027h-.365v-.115a.379.379,0,0,1-.314.146.5.5,0,0,1-.206-.041.5.5,0,0,1-.165-.115.533.533,0,0,1-.109-.174.6.6,0,0,1-.039-.218.582.582,0,0,1,.038-.209.54.54,0,0,1,.106-.173.493.493,0,0,1,.37-.16.418.418,0,0,1,.318.134Zm-.457.511a.241.241,0,0,0,.018.093.238.238,0,0,0,.049.075.208.208,0,0,0,.074.05.24.24,0,0,0,.093.018.236.236,0,0,0,.091-.018.215.215,0,0,0,.074-.05.245.245,0,0,0,.05-.074.214.214,0,0,0,.019-.09.218.218,0,0,0-.019-.091.243.243,0,0,0-.05-.075.226.226,0,0,0-.074-.05.236.236,0,0,0-.091-.018.24.24,0,0,0-.093.018.218.218,0,0,0-.074.05.245.245,0,0,0-.049.073.221.221,0,0,0-.018.089" transform="translate(-2335.527 -2854.4)"/>
  <path id="패스_19027" data-name="패스 19027" d="M2399.389,2946.324h.362v.13a.4.4,0,0,1,.151-.121.461.461,0,0,1,.178-.031.453.453,0,0,1,.185.034.375.375,0,0,1,.131.1.29.29,0,0,1,.06.117.6.6,0,0,1,.016.146v.653h-.362v-.519a.535.535,0,0,0-.011-.124.154.154,0,0,0-.039-.075.134.134,0,0,0-.054-.033.2.2,0,0,0-.064-.01.181.181,0,0,0-.141.055.229.229,0,0,0-.049.157v.549h-.362Z" transform="translate(-2343.396 -2854.455)"/>
  <path id="패스_19028" data-name="패스 19028" d="M2408.9,2946.289v.957a1.035,1.035,0,0,1-.01.154.7.7,0,0,1-.028.12.384.384,0,0,1-.075.123.513.513,0,0,1-.123.1.659.659,0,0,1-.163.066.767.767,0,0,1-.2.024.757.757,0,0,1-.22-.03.6.6,0,0,1-.175-.083.491.491,0,0,1-.123-.124.42.42,0,0,1-.064-.156h.409a.163.163,0,0,0,.172.1.231.231,0,0,0,.175-.064.248.248,0,0,0,.062-.178v-.1a.589.589,0,0,1-.077.063.427.427,0,0,1-.075.041.366.366,0,0,1-.08.023.566.566,0,0,1-.092.007.525.525,0,0,1-.2-.038.468.468,0,0,1-.263-.27.578.578,0,0,1-.037-.211.585.585,0,0,1,.04-.219.565.565,0,0,1,.109-.176.5.5,0,0,1,.165-.118.493.493,0,0,1,.207-.043.4.4,0,0,1,.306.136v-.108Zm-.813.509a.242.242,0,0,0,.067.168.213.213,0,0,0,.074.05.234.234,0,0,0,.093.018.231.231,0,0,0,.091-.018.219.219,0,0,0,.074-.05.255.255,0,0,0,.05-.075.227.227,0,0,0,0-.183.26.26,0,0,0-.051-.074.232.232,0,0,0-.075-.05.229.229,0,0,0-.089-.018.21.21,0,0,0-.09.019.254.254,0,0,0-.074.05.236.236,0,0,0-.051.073.217.217,0,0,0-.019.09" transform="translate(-2350.428 -2854.42)"/>
  <path id="패스_19029" data-name="패스 19029" d="M2417.237,2946.811c0,.156.073.234.221.234a.2.2,0,0,0,.178-.1h.35a.489.489,0,0,1-.53.353.7.7,0,0,1-.239-.039.534.534,0,0,1-.185-.111.5.5,0,0,1-.119-.172.575.575,0,0,1-.042-.224.643.643,0,0,1,.04-.231.486.486,0,0,1,.115-.175.5.5,0,0,1,.179-.111.68.68,0,0,1,.237-.039.668.668,0,0,1,.234.039.472.472,0,0,1,.176.114.484.484,0,0,1,.11.181.716.716,0,0,1,.038.241v.038Zm.425-.21a.216.216,0,0,0-.074-.122.229.229,0,0,0-.273,0,.2.2,0,0,0-.067.125Z" transform="translate(-2358.169 -2854.367)"/>
  <path id="패스_19030" data-name="패스 19030" d="M2426.062,2942.349h.364v1.662h-.364v-.114a.38.38,0,0,1-.314.146.5.5,0,0,1-.206-.042.513.513,0,0,1-.164-.116.537.537,0,0,1-.109-.174.592.592,0,0,1-.039-.216.6.6,0,0,1,.037-.209.533.533,0,0,1,.105-.173.492.492,0,0,1,.163-.117.509.509,0,0,1,.209-.043.419.419,0,0,1,.318.134Zm-.456,1.146a.238.238,0,0,0,.067.168.208.208,0,0,0,.074.05.234.234,0,0,0,.093.018.231.231,0,0,0,.091-.018.216.216,0,0,0,.074-.05.256.256,0,0,0,.05-.074.216.216,0,0,0,.019-.09.223.223,0,0,0-.019-.091.254.254,0,0,0-.05-.075.232.232,0,0,0-.074-.05.239.239,0,0,0-.091-.018.236.236,0,0,0-.091.018.225.225,0,0,0-.074.05.26.26,0,0,0-.05.073.206.206,0,0,0-.019.089" transform="translate(-2365.231 -2851.114)"/>
  <path id="패스_19031" data-name="패스 19031" d="M2439.511,2946.269h.364v1.027h-.364v-.115a.379.379,0,0,1-.314.146.506.506,0,0,1-.206-.041.5.5,0,0,1-.164-.115.533.533,0,0,1-.109-.174.6.6,0,0,1-.039-.218.577.577,0,0,1,.038-.209.54.54,0,0,1,.106-.173.494.494,0,0,1,.371-.16.418.418,0,0,1,.318.134Zm-.456.511a.236.236,0,0,0,.018.093.23.23,0,0,0,.049.075.206.206,0,0,0,.074.05.244.244,0,0,0,.184,0,.209.209,0,0,0,.073-.05.239.239,0,0,0,.051-.074.221.221,0,0,0,.019-.09.226.226,0,0,0-.019-.091.237.237,0,0,0-.051-.075.219.219,0,0,0-.073-.05.244.244,0,0,0-.184,0,.216.216,0,0,0-.074.05.236.236,0,0,0-.049.073.217.217,0,0,0-.018.089" transform="translate(-2376.596 -2854.4)"/>
  <path id="패스_19032" data-name="패스 19032" d="M2447.994,2946.324h.362v.13a.4.4,0,0,1,.15-.121.463.463,0,0,1,.178-.031.453.453,0,0,1,.186.034.382.382,0,0,1,.131.1.3.3,0,0,1,.06.117.614.614,0,0,1,.016.146v.653h-.363v-.519a.566.566,0,0,0-.011-.124.152.152,0,0,0-.039-.075.138.138,0,0,0-.054-.033.2.2,0,0,0-.064-.01.181.181,0,0,0-.141.055.23.23,0,0,0-.05.157v.549h-.362Z" transform="translate(-2384.468 -2854.455)"/>
  <path id="패스_19033" data-name="패스 19033" d="M2457.145,2942.349h.365v1.662h-.365v-.114a.379.379,0,0,1-.314.146.5.5,0,0,1-.206-.042.518.518,0,0,1-.164-.116.537.537,0,0,1-.109-.174.611.611,0,0,1,0-.425.517.517,0,0,1,.105-.173.486.486,0,0,1,.163-.117.5.5,0,0,1,.209-.043.419.419,0,0,1,.319.134Zm-.456,1.146a.243.243,0,0,0,.067.168.216.216,0,0,0,.074.05.235.235,0,0,0,.093.018.229.229,0,0,0,.091-.018.211.211,0,0,0,.074-.05.262.262,0,0,0,.05-.074.219.219,0,0,0,.019-.09.227.227,0,0,0-.019-.091.26.26,0,0,0-.05-.075.227.227,0,0,0-.074-.05.238.238,0,0,0-.091-.018.241.241,0,0,0-.091.018.228.228,0,0,0-.074.05.271.271,0,0,0-.05.073.206.206,0,0,0-.019.089" transform="translate(-2391.497 -2851.114)"/>
  <path id="패스_19034" data-name="패스 19034" d="M2470.954,2943.606a.427.427,0,0,0-.5-.134.4.4,0,0,0-.129.087.406.406,0,0,0-.085.131.459.459,0,0,0,0,.331.4.4,0,0,0,.216.22.4.4,0,0,0,.16.032.455.455,0,0,0,.338-.16v.464l-.04.014a1.167,1.167,0,0,1-.168.047.828.828,0,0,1-.154.015.781.781,0,0,1-.3-.059.773.773,0,0,1-.252-.166.826.826,0,0,1-.175-.254.81.81,0,0,1,0-.641.8.8,0,0,1,.174-.25.785.785,0,0,1,.254-.164.776.776,0,0,1,.3-.059.829.829,0,0,1,.178.019,1.1,1.1,0,0,1,.183.059Z" transform="translate(-2402.893 -2851.715)"/>
  <path id="패스_19035" data-name="패스 19035" d="M2478.378,2946.742a.5.5,0,0,1,.046-.213.515.515,0,0,1,.128-.172.611.611,0,0,1,.2-.115.706.706,0,0,1,.247-.042.715.715,0,0,1,.245.041.607.607,0,0,1,.2.114.5.5,0,0,1,.129.174.534.534,0,0,1-.13.621.577.577,0,0,1-.2.113.751.751,0,0,1-.249.04.718.718,0,0,1-.244-.04.561.561,0,0,1-.193-.115.524.524,0,0,1-.127-.177.559.559,0,0,1-.046-.229m.383,0a.244.244,0,0,0,.019.1.255.255,0,0,0,.05.075.21.21,0,0,0,.074.05.233.233,0,0,0,.091.018.23.23,0,0,0,.091-.018.207.207,0,0,0,.074-.05.265.265,0,0,0,.051-.075.235.235,0,0,0,.019-.093.226.226,0,0,0-.019-.091.268.268,0,0,0-.051-.075.221.221,0,0,0-.074-.05.23.23,0,0,0-.091-.018.232.232,0,0,0-.091.018.223.223,0,0,0-.074.05.266.266,0,0,0-.05.074.224.224,0,0,0-.019.09" transform="translate(-2410.143 -2854.368)"/>
  <path id="패스_19036" data-name="패스 19036" d="M2487.681,2946.324h.363v.13a.394.394,0,0,1,.15-.121.464.464,0,0,1,.178-.031.452.452,0,0,1,.186.034.382.382,0,0,1,.131.1.292.292,0,0,1,.06.117.6.6,0,0,1,.016.146v.653h-.363v-.519a.566.566,0,0,0-.011-.124.154.154,0,0,0-.039-.075.135.135,0,0,0-.054-.033.2.2,0,0,0-.064-.01.181.181,0,0,0-.141.055.23.23,0,0,0-.049.157v.549h-.363Z" transform="translate(-2418.004 -2854.455)"/>
  <path id="패스_19037" data-name="패스 19037" d="M2496.833,2942.349h.364v1.662h-.364v-.114a.38.38,0,0,1-.314.146.5.5,0,0,1-.206-.042.515.515,0,0,1-.164-.116.533.533,0,0,1-.109-.174.6.6,0,0,1-.039-.216.588.588,0,0,1,.038-.209.516.516,0,0,1,.1-.173.49.49,0,0,1,.163-.117.505.505,0,0,1,.209-.043.42.42,0,0,1,.319.134Zm-.457,1.146a.243.243,0,0,0,.067.168.221.221,0,0,0,.074.05.235.235,0,0,0,.093.018.229.229,0,0,0,.091-.018.211.211,0,0,0,.074-.05.256.256,0,0,0,.05-.074.216.216,0,0,0,.019-.09.223.223,0,0,0-.019-.091.255.255,0,0,0-.05-.075.227.227,0,0,0-.074-.05.239.239,0,0,0-.182,0,.228.228,0,0,0-.074.05.271.271,0,0,0-.05.073.206.206,0,0,0-.019.089" transform="translate(-2425.033 -2851.114)"/>
  <path id="패스_19038" data-name="패스 19038" d="M2505.677,2946.442v.579a.184.184,0,1,0,.369,0v-.579h.362v.649a.369.369,0,0,1-.137.313.857.857,0,0,1-.819,0,.367.367,0,0,1-.137-.312v-.649Z" transform="translate(-2432.905 -2854.573)"/>
  <path id="패스_19039" data-name="패스 19039" d="M2514.514,2946.6a.338.338,0,0,0-.19-.064.26.26,0,0,0-.1.018.245.245,0,0,0-.079.052.237.237,0,0,0-.053.078.249.249,0,0,0-.019.1.244.244,0,0,0,.071.177.227.227,0,0,0,.079.051.268.268,0,0,0,.1.018.3.3,0,0,0,.19-.07v.309a.646.646,0,0,1-.254.058.6.6,0,0,1-.213-.038.533.533,0,0,1-.3-.28.516.516,0,0,1-.046-.221.532.532,0,0,1,.345-.511.617.617,0,0,1,.226-.041.538.538,0,0,1,.244.056Z" transform="translate(-2439.99 -2854.4)"/>
  <path id="패스_19040" data-name="패스 19040" d="M2520.268,2945.065v.725h-.363v-.725h-.12v-.3h.12v-.308h.363v.308h.207v.3Z" transform="translate(-2445.133 -2852.894)"/>
  <path id="패스_19041" data-name="패스 19041" d="M2525.345,2946.811c0,.156.073.234.22.234a.2.2,0,0,0,.178-.1h.35a.489.489,0,0,1-.531.353.7.7,0,0,1-.238-.039.53.53,0,0,1-.185-.111.487.487,0,0,1-.119-.172.57.57,0,0,1-.042-.224.632.632,0,0,1,.04-.231.488.488,0,0,1,.114-.175.5.5,0,0,1,.179-.111.682.682,0,0,1,.237-.039.668.668,0,0,1,.234.039.473.473,0,0,1,.176.114.491.491,0,0,1,.11.181.716.716,0,0,1,.038.241v.038Zm.425-.21a.216.216,0,0,0-.074-.122.206.206,0,0,0-.136-.046.21.21,0,0,0-.137.044.2.2,0,0,0-.067.125Z" transform="translate(-2449.521 -2854.367)"/>
  <path id="패스_19042" data-name="패스 19042" d="M2534.17,2942.349h.364v1.662h-.364v-.114a.38.38,0,0,1-.315.146.5.5,0,0,1-.206-.042.518.518,0,0,1-.164-.116.533.533,0,0,1-.109-.174.609.609,0,0,1,0-.425.513.513,0,0,1,.105-.173.487.487,0,0,1,.163-.117.506.506,0,0,1,.209-.043.419.419,0,0,1,.319.134Zm-.457,1.146a.242.242,0,0,0,.067.168.216.216,0,0,0,.074.05.234.234,0,0,0,.093.018.23.23,0,0,0,.091-.018.211.211,0,0,0,.074-.05.267.267,0,0,0,.05-.074.223.223,0,0,0,.019-.09.231.231,0,0,0-.019-.091.265.265,0,0,0-.05-.075.227.227,0,0,0-.074-.05.239.239,0,0,0-.091-.018.243.243,0,0,0-.091.018.23.23,0,0,0-.074.05.277.277,0,0,0-.05.073.209.209,0,0,0-.019.089" transform="translate(-2456.584 -2851.114)"/>
  <path id="패스_19043" data-name="패스 19043" d="M2413.446,2957.851v.737a.425.425,0,0,1,.321-.134.507.507,0,0,1,.209.042.482.482,0,0,1,.162.117.541.541,0,0,1,.105.171.594.594,0,0,1,.038.212.579.579,0,0,1-.039.214.529.529,0,0,1-.109.174.513.513,0,0,1-.165.117.5.5,0,0,1-.205.043.383.383,0,0,1-.317-.146v.115h-.362v-1.662Zm.457,1.151a.235.235,0,0,0-.068-.167.264.264,0,0,0-.074-.051.229.229,0,0,0-.092-.019.224.224,0,0,0-.09.018.215.215,0,0,0-.073.05.238.238,0,0,0-.05.075.212.212,0,0,0-.019.09.228.228,0,0,0,.068.164.27.27,0,0,0,.075.05.231.231,0,0,0,.181,0,.224.224,0,0,0,.073-.05.251.251,0,0,0,.05-.074.208.208,0,0,0,.019-.088" transform="translate(-2354.969 -2864.214)"/>
  <path id="패스_19044" data-name="패스 19044" d="M2421.488,2962.833l-.5-.887h.42l.274.526.266-.526h.417l-.825,1.54h-.406Z" transform="translate(-2361.651 -2867.674)"/>
  <path id="패스_19045" data-name="패스 19045" d="M2435.293,2960.344v-1.51h.392l.725.923v-.923h.39v1.51h-.39l-.725-.923v.923Z" transform="translate(-2373.736 -2865.044)"/>
  <rect id="사각형_5636" data-name="사각형 5636" width="0.392" height="1.51" transform="translate(63.381 93.79)"/>
  <path id="패스_19046" data-name="패스 19046" d="M2452.027,2959.456l.479-.623h.485l-.6.715.655.795h-.509l-.511-.655v.655h-.393v-1.51h.393Z" transform="translate(-2387.545 -2865.044)"/>
  <path id="패스_19047" data-name="패스 19047" d="M2462.725,2959.166h-.467v.252h.441v.332h-.441v.26h.467v.332h-.859v-1.51h.859Z" transform="translate(-2396.19 -2865.044)"/>
  <path id="패스_19048" data-name="패스 19048" d="M2468.79,2966.436h.341l-.368.663h-.233Z" transform="translate(-2401.821 -2871.468)"/>
  <rect id="사각형_5637" data-name="사각형 5637" width="0.392" height="1.51" transform="translate(68.179 93.79)"/>
  <path id="패스_19049" data-name="패스 19049" d="M2482.371,2961.827h.363v.13a.389.389,0,0,1,.15-.121.465.465,0,0,1,.178-.031.449.449,0,0,1,.185.034.378.378,0,0,1,.132.1.291.291,0,0,1,.06.116.606.606,0,0,1,.016.146v.653h-.362v-.519a.559.559,0,0,0-.011-.124.152.152,0,0,0-.039-.075.144.144,0,0,0-.054-.034.2.2,0,0,0-.064-.01.179.179,0,0,0-.141.055.228.228,0,0,0-.049.157v.549h-.363Z" transform="translate(-2413.517 -2867.555)"/>
  <path id="패스_19050" data-name="패스 19050" d="M2491.5,2962.1a.338.338,0,0,0-.19-.064.265.265,0,0,0-.1.018.238.238,0,0,0-.132.129.251.251,0,0,0-.019.1.246.246,0,0,0,.019.1.249.249,0,0,0,.052.078.223.223,0,0,0,.079.051.268.268,0,0,0,.1.018.3.3,0,0,0,.19-.07v.308a.65.65,0,0,1-.254.058.6.6,0,0,1-.213-.038.55.55,0,0,1-.178-.109.541.541,0,0,1-.123-.17.517.517,0,0,1-.046-.221.532.532,0,0,1,.345-.511.615.615,0,0,1,.226-.041.538.538,0,0,1,.244.056Z" transform="translate(-2420.546 -2867.5)"/>
  <path id="패스_19051" data-name="패스 19051" d="M2563.406,2796.725h-.461l-.353-.548v.548h-.37V2795.3h.576a.576.576,0,0,1,.208.035.415.415,0,0,1,.146.1.419.419,0,0,1,.087.14.5.5,0,0,1,.029.17.417.417,0,0,1-.079.263.394.394,0,0,1-.231.137Zm-.814-.788h.07a.27.27,0,0,0,.168-.045.175.175,0,0,0,0-.261.272.272,0,0,0-.168-.045h-.07Z" transform="translate(-2480.992 -2726.856)"/>
  <path id="패스_19052" data-name="패스 19052" d="M2570.489,2798.584q0,.221.208.221a.186.186,0,0,0,.168-.091h.331a.462.462,0,0,1-.5.333.662.662,0,0,1-.225-.037.5.5,0,0,1-.174-.1.465.465,0,0,1-.113-.163.541.541,0,0,1-.04-.211.6.6,0,0,1,.038-.218.455.455,0,0,1,.108-.166.475.475,0,0,1,.169-.1.644.644,0,0,1,.224-.037.628.628,0,0,1,.221.037.441.441,0,0,1,.166.106.46.46,0,0,1,.1.171.675.675,0,0,1,.036.227v.036Zm.4-.2a.206.206,0,0,0-.07-.115.217.217,0,0,0-.258,0,.189.189,0,0,0-.063.117Z" transform="translate(-2487.686 -2729.143)"/>
  <path id="패스_19053" data-name="패스 19053" d="M2578.886,2798.385a.315.315,0,0,0-.179-.061.249.249,0,0,0-.092.017.235.235,0,0,0-.074.048.209.209,0,0,0-.051.074.239.239,0,0,0-.018.1.233.233,0,0,0,.018.093.23.23,0,0,0,.049.074.225.225,0,0,0,.074.048.255.255,0,0,0,.093.017.283.283,0,0,0,.179-.066v.291a.6.6,0,0,1-.24.055.56.56,0,0,1-.2-.036.506.506,0,0,1-.284-.264.491.491,0,0,1-.043-.208.518.518,0,0,1,.042-.21.494.494,0,0,1,.113-.164.513.513,0,0,1,.171-.108.587.587,0,0,1,.212-.038.5.5,0,0,1,.231.053Z" transform="translate(-2494.425 -2729.172)"/>
  <path id="패스_19054" data-name="패스 19054" d="M2584.08,2798.517a.471.471,0,0,1,.043-.2.5.5,0,0,1,.121-.162.563.563,0,0,1,.185-.108.7.7,0,0,1,.464,0,.569.569,0,0,1,.186.107.486.486,0,0,1,.122.164.5.5,0,0,1,.043.21.49.49,0,0,1-.166.375.546.546,0,0,1-.187.107.73.73,0,0,1-.235.038.7.7,0,0,1-.23-.038.534.534,0,0,1-.183-.108.5.5,0,0,1-.12-.167.523.523,0,0,1-.043-.216m.361,0a.219.219,0,0,0,.018.09.237.237,0,0,0,.047.071.206.206,0,0,0,.07.047.225.225,0,0,0,.172,0,.215.215,0,0,0,.07-.047.245.245,0,0,0,.047-.071.221.221,0,0,0,0-.174.254.254,0,0,0-.047-.071.224.224,0,0,0-.242-.046.2.2,0,0,0-.07.046.247.247,0,0,0-.047.07.2.2,0,0,0-.018.085" transform="translate(-2499.462 -2729.142)"/>
  <path id="패스_19055" data-name="패스 19055" d="M2592.744,2798.124h.342v.158a.39.39,0,0,1,.134-.133.359.359,0,0,1,.186-.046h.029a.179.179,0,0,1,.037,0v.326a.324.324,0,0,0-.147-.034.22.22,0,0,0-.179.071.315.315,0,0,0-.059.207v.416h-.342Z" transform="translate(-2506.784 -2729.224)"/>
  <path id="패스_19056" data-name="패스 19056" d="M2598.93,2794.372h.343v1.568h-.343v-.107a.359.359,0,0,1-.3.138.473.473,0,0,1-.195-.04.486.486,0,0,1-.155-.11.5.5,0,0,1-.1-.164.578.578,0,0,1,0-.4.5.5,0,0,1,.1-.163.468.468,0,0,1,.351-.151.4.4,0,0,1,.3.126Zm-.431,1.081a.222.222,0,0,0,.017.088.23.23,0,0,0,.046.071.213.213,0,0,0,.07.048.23.23,0,0,0,.087.017.227.227,0,0,0,.086-.017.215.215,0,0,0,.07-.048.23.23,0,0,0,.047-.07.205.205,0,0,0,.018-.085.212.212,0,0,0-.018-.086.237.237,0,0,0-.047-.071.221.221,0,0,0-.312,0,.26.26,0,0,0-.047.069.2.2,0,0,0-.018.084" transform="translate(-2511.347 -2726.072)"/>
  <path id="패스_19057" data-name="패스 19057" d="M2606.621,2798.584q0,.221.207.221a.187.187,0,0,0,.168-.091h.331a.463.463,0,0,1-.5.333.661.661,0,0,1-.225-.037.494.494,0,0,1-.175-.1.473.473,0,0,1-.113-.163.55.55,0,0,1-.04-.211.592.592,0,0,1,.038-.218.46.46,0,0,1,.107-.166.476.476,0,0,1,.169-.1.642.642,0,0,1,.224-.037.629.629,0,0,1,.221.037.438.438,0,0,1,.166.106.459.459,0,0,1,.1.171.663.663,0,0,1,.036.227v.036Zm.4-.2a.207.207,0,0,0-.07-.115.217.217,0,0,0-.258,0,.191.191,0,0,0-.063.117Z" transform="translate(-2518.218 -2729.143)"/>
  <path id="패스_19058" data-name="패스 19058" d="M2614.836,2794.372h.344v1.568h-.344v-.107a.359.359,0,0,1-.3.138.474.474,0,0,1-.195-.04.486.486,0,0,1-.155-.11.5.5,0,0,1-.1-.164.576.576,0,0,1,0-.4.488.488,0,0,1,.1-.163.467.467,0,0,1,.351-.151.4.4,0,0,1,.3.126Zm-.431,1.081a.226.226,0,0,0,.017.088.235.235,0,0,0,.046.071.213.213,0,0,0,.07.048.232.232,0,0,0,.088.017.229.229,0,0,0,.086-.017.214.214,0,0,0,.07-.048.234.234,0,0,0,.047-.07.205.205,0,0,0,.018-.085.212.212,0,0,0-.018-.086.241.241,0,0,0-.047-.071.216.216,0,0,0-.07-.047.22.22,0,0,0-.086-.017.221.221,0,0,0-.156.064.26.26,0,0,0-.047.069.2.2,0,0,0-.018.084" transform="translate(-2524.788 -2726.072)"/>
  <path id="패스_19059" data-name="패스 19059" d="M2541.823,2812.694h.344v.969h-.344v-.108a.359.359,0,0,1-.3.138.482.482,0,0,1-.195-.039.469.469,0,0,1-.155-.109.507.507,0,0,1-.1-.164.561.561,0,0,1-.037-.206.546.546,0,0,1,.036-.2.5.5,0,0,1,.1-.163.463.463,0,0,1,.349-.151.4.4,0,0,1,.3.127Zm-.431.481a.226.226,0,0,0,.017.088.229.229,0,0,0,.046.071.215.215,0,0,0,.07.047.227.227,0,0,0,.088.017.222.222,0,0,0,.086-.017.21.21,0,0,0,.07-.047.248.248,0,0,0,.047-.07.2.2,0,0,0,.018-.085.211.211,0,0,0-.018-.086.249.249,0,0,0-.047-.071.217.217,0,0,0-.07-.047.213.213,0,0,0-.086-.017.219.219,0,0,0-.088.017.222.222,0,0,0-.07.047.241.241,0,0,0-.046.069.21.21,0,0,0-.017.084" transform="translate(-2463.091 -2741.529)"/>
  <path id="패스_19060" data-name="패스 19060" d="M2549.415,2812.747h.342v.123a.374.374,0,0,1,.142-.115.453.453,0,0,1,.168-.029.429.429,0,0,1,.175.033.353.353,0,0,1,.124.094.268.268,0,0,1,.057.11.573.573,0,0,1,.015.138v.616h-.342v-.489a.532.532,0,0,0-.01-.116.144.144,0,0,0-.037-.071.129.129,0,0,0-.051-.032.182.182,0,0,0-.06-.01.17.17,0,0,0-.133.052.216.216,0,0,0-.046.148v.518h-.342Z" transform="translate(-2470.17 -2741.581)"/>
  <path id="패스_19061" data-name="패스 19061" d="M2557.739,2809h.344v1.568h-.344v-.108a.358.358,0,0,1-.3.138.473.473,0,0,1-.195-.04.48.48,0,0,1-.155-.11.5.5,0,0,1-.1-.164.579.579,0,0,1,0-.4.491.491,0,0,1,.1-.163.472.472,0,0,1,.154-.111.48.48,0,0,1,.2-.041.394.394,0,0,1,.3.127Zm-.431,1.081a.225.225,0,0,0,.063.158.208.208,0,0,0,.07.048.23.23,0,0,0,.088.017.227.227,0,0,0,.086-.017.212.212,0,0,0,.07-.048.238.238,0,0,0,.047-.07.205.205,0,0,0,.018-.085.211.211,0,0,0-.018-.086.245.245,0,0,0-.047-.071.218.218,0,0,0-.07-.047.221.221,0,0,0-.242.047.25.25,0,0,0-.047.069.2.2,0,0,0-.018.084" transform="translate(-2476.54 -2738.428)"/>
  <path id="패스_19062" data-name="패스 19062" d="M2569.24,2811.347h-.37v-1.424h.589a.5.5,0,0,1,.367.125.549.549,0,0,1,0,.7.5.5,0,0,1-.367.125h-.219Zm0-.771h.123q.2,0,.2-.177t-.2-.178h-.123Z" transform="translate(-2486.61 -2739.212)"/>
  <path id="패스_19063" data-name="패스 19063" d="M2576.817,2812.747h.342v.159a.393.393,0,0,1,.134-.133.363.363,0,0,1,.185-.046h.03a.2.2,0,0,1,.037,0v.326a.33.33,0,0,0-.147-.034.22.22,0,0,0-.178.071.315.315,0,0,0-.06.207v.416h-.342Z" transform="translate(-2493.325 -2741.581)"/>
  <path id="패스_19064" data-name="패스 19064" d="M2582.09,2813.14a.468.468,0,0,1,.043-.2.5.5,0,0,1,.121-.163.568.568,0,0,1,.185-.108.7.7,0,0,1,.464,0,.582.582,0,0,1,.186.107.486.486,0,0,1,.122.165.5.5,0,0,1,.043.21.49.49,0,0,1-.166.375.547.547,0,0,1-.186.107.72.72,0,0,1-.235.038.684.684,0,0,1-.23-.038.539.539,0,0,1-.183-.108.506.506,0,0,1-.12-.167.523.523,0,0,1-.043-.216m.361,0a.219.219,0,0,0,.018.09.234.234,0,0,0,.048.071.206.206,0,0,0,.07.048.225.225,0,0,0,.172,0,.217.217,0,0,0,.07-.048.242.242,0,0,0,.047-.071.218.218,0,0,0,.018-.088.214.214,0,0,0-.018-.086.246.246,0,0,0-.047-.071.208.208,0,0,0-.07-.047.228.228,0,0,0-.172,0,.2.2,0,0,0-.07.047.237.237,0,0,0-.048.07.2.2,0,0,0-.018.085" transform="translate(-2497.781 -2741.498)"/>
  <path id="패스_19065" data-name="패스 19065" d="M2591,2809h.344v1.568H2591v-.108a.358.358,0,0,1-.3.138.472.472,0,0,1-.195-.04.488.488,0,0,1-.155-.11.505.505,0,0,1-.1-.164.56.56,0,0,1-.037-.2.55.55,0,0,1,.035-.2.486.486,0,0,1,.1-.163.473.473,0,0,1,.154-.111.479.479,0,0,1,.2-.041.394.394,0,0,1,.3.127Zm-.431,1.081a.222.222,0,0,0,.017.088.229.229,0,0,0,.046.071.217.217,0,0,0,.07.048.23.23,0,0,0,.087.017.227.227,0,0,0,.086-.017.212.212,0,0,0,.07-.048.235.235,0,0,0,.048-.07.209.209,0,0,0,.018-.085.215.215,0,0,0-.018-.086.242.242,0,0,0-.048-.071.218.218,0,0,0-.07-.047.225.225,0,0,0-.172,0,.222.222,0,0,0-.07.047.266.266,0,0,0-.047.069.2.2,0,0,0-.018.084" transform="translate(-2504.644 -2738.428)"/>
  <path id="패스_19066" data-name="패스 19066" d="M2599.03,2812.86v.546a.174.174,0,1,0,.347,0v-.546h.342v.612a.347.347,0,0,1-.129.295.811.811,0,0,1-.772,0,.345.345,0,0,1-.13-.295v-.612Z" transform="translate(-2511.806 -2741.694)"/>
  <path id="패스_19067" data-name="패스 19067" d="M2606.955,2813.008a.315.315,0,0,0-.179-.061.259.259,0,0,0-.092.017.231.231,0,0,0-.074.049.217.217,0,0,0-.05.074.242.242,0,0,0-.018.1.236.236,0,0,0,.018.093.227.227,0,0,0,.049.074.214.214,0,0,0,.074.048.246.246,0,0,0,.093.017.281.281,0,0,0,.179-.066v.291a.6.6,0,0,1-.24.055.567.567,0,0,1-.2-.036.511.511,0,0,1-.168-.1.5.5,0,0,1-.116-.16.488.488,0,0,1-.043-.208.528.528,0,0,1,.041-.211.5.5,0,0,1,.114-.164.513.513,0,0,1,.171-.108.576.576,0,0,1,.212-.039.5.5,0,0,1,.231.053Z" transform="translate(-2518.142 -2741.529)"/>
  <path id="패스_19068" data-name="패스 19068" d="M2612.3,2813.206q0,.221.207.221a.186.186,0,0,0,.168-.091H2613a.462.462,0,0,1-.5.333.662.662,0,0,1-.225-.037.5.5,0,0,1-.175-.1.478.478,0,0,1-.113-.163.54.54,0,0,1-.04-.211.591.591,0,0,1,.038-.218.452.452,0,0,1,.107-.165.473.473,0,0,1,.169-.1.641.641,0,0,1,.224-.037.628.628,0,0,1,.221.037.447.447,0,0,1,.166.106.471.471,0,0,1,.1.171.681.681,0,0,1,.036.227v.036Zm.4-.2a.207.207,0,0,0-.07-.115.217.217,0,0,0-.258,0,.189.189,0,0,0-.063.117Z" transform="translate(-2523.013 -2741.498)"/>
  <path id="패스_19069" data-name="패스 19069" d="M2620.41,2809h.343v1.568h-.343v-.108a.358.358,0,0,1-.3.138.475.475,0,0,1-.2-.04.491.491,0,0,1-.155-.11.5.5,0,0,1-.1-.164.579.579,0,0,1,0-.4.487.487,0,0,1,.1-.163.467.467,0,0,1,.351-.151.4.4,0,0,1,.3.127Zm-.431,1.081a.222.222,0,0,0,.017.088.234.234,0,0,0,.046.071.216.216,0,0,0,.07.048.232.232,0,0,0,.088.017.228.228,0,0,0,.086-.017.215.215,0,0,0,.07-.048.234.234,0,0,0,.047-.07.205.205,0,0,0,.018-.085.211.211,0,0,0-.018-.086.241.241,0,0,0-.047-.071.221.221,0,0,0-.07-.047.225.225,0,0,0-.172,0,.22.22,0,0,0-.07.047.259.259,0,0,0-.047.069.2.2,0,0,0-.018.084" transform="translate(-2529.498 -2738.428)"/>
  <path id="패스_19070" data-name="패스 19070" d="M2631.888,2809.408a.18.18,0,0,1,.015-.075.183.183,0,0,1,.041-.061.191.191,0,0,1,.062-.042.187.187,0,0,1,.149,0,.2.2,0,0,1,.062.042.2.2,0,0,1,.042.061.195.195,0,0,1,0,.149.2.2,0,0,1-.042.061.2.2,0,0,1-.062.042.187.187,0,0,1-.149,0,.191.191,0,0,1-.062-.042.194.194,0,0,1-.057-.136m.364,1.341h-.342v-.969h.342Z" transform="translate(-2539.861 -2738.614)"/>
  <path id="패스_19071" data-name="패스 19071" d="M2635.543,2812.747h.342v.123a.374.374,0,0,1,.142-.115.449.449,0,0,1,.168-.029.429.429,0,0,1,.175.033.351.351,0,0,1,.124.094.274.274,0,0,1,.057.11.573.573,0,0,1,.015.138v.616h-.342v-.489a.513.513,0,0,0-.011-.116.144.144,0,0,0-.037-.071.131.131,0,0,0-.051-.032.182.182,0,0,0-.061-.01.169.169,0,0,0-.133.052.216.216,0,0,0-.046.148v.518h-.342Z" transform="translate(-2542.949 -2741.581)"/>
  <path id="패스_19072" data-name="패스 19072" d="M2546.769,2824.546h.551a.427.427,0,0,1,.3.094.354.354,0,0,1,.1.272.363.363,0,0,1-.039.178.32.32,0,0,1-.118.12.449.449,0,0,1,.135.047.289.289,0,0,1,.091.077.281.281,0,0,1,.05.1.46.46,0,0,1,.015.121.429.429,0,0,1-.035.177.367.367,0,0,1-.1.131.43.43,0,0,1-.154.079.738.738,0,0,1-.2.026h-.595Zm.37.559h.068c.116,0,.174-.046.174-.138s-.058-.138-.174-.138h-.068Zm0,.578h.081a.419.419,0,0,0,.2-.035.14.14,0,0,0,0-.23.411.411,0,0,0-.2-.036h-.081Z" transform="translate(-2467.934 -2751.569)"/>
  <path id="패스_19073" data-name="패스 19073" d="M2554.886,2827.828q0,.221.208.221a.186.186,0,0,0,.168-.091h.331a.461.461,0,0,1-.5.333.663.663,0,0,1-.225-.037.492.492,0,0,1-.175-.1.468.468,0,0,1-.112-.163.537.537,0,0,1-.04-.211.6.6,0,0,1,.038-.218.461.461,0,0,1,.108-.166.48.48,0,0,1,.169-.1.649.649,0,0,1,.224-.037.634.634,0,0,1,.221.037.441.441,0,0,1,.166.107.466.466,0,0,1,.1.171.682.682,0,0,1,.036.227v.036Zm.4-.2a.205.205,0,0,0-.07-.115.217.217,0,0,0-.258,0,.19.19,0,0,0-.063.117Z" transform="translate(-2474.501 -2753.854)"/>
  <path id="패스_19074" data-name="패스 19074" d="M2562.9,2827.318h.344v.969h-.344v-.108a.359.359,0,0,1-.3.138.481.481,0,0,1-.195-.039.462.462,0,0,1-.155-.109.5.5,0,0,1-.1-.164.566.566,0,0,1-.037-.206.545.545,0,0,1,.036-.2.5.5,0,0,1,.1-.163.463.463,0,0,1,.349-.151.4.4,0,0,1,.3.127Zm-.431.481a.222.222,0,0,0,.017.088.218.218,0,0,0,.046.071.2.2,0,0,0,.07.048.227.227,0,0,0,.088.017.221.221,0,0,0,.086-.017.206.206,0,0,0,.07-.048.239.239,0,0,0,.047-.07.209.209,0,0,0,.018-.085.213.213,0,0,0-.018-.086.24.24,0,0,0-.047-.071.218.218,0,0,0-.156-.064.218.218,0,0,0-.088.017.21.21,0,0,0-.07.047.226.226,0,0,0-.046.069.2.2,0,0,0-.017.084" transform="translate(-2480.903 -2753.885)"/>
  <path id="패스_19075" data-name="패스 19075" d="M2570.344,2827.483l.231.5.234-.5h.382l-.5.969h-.229l-.5-.969Z" transform="translate(-2487.53 -2754.051)"/>
  <path id="패스_19076" data-name="패스 19076" d="M2578.06,2827.828q0,.221.208.221a.187.187,0,0,0,.168-.091h.331a.462.462,0,0,1-.5.333.663.663,0,0,1-.225-.037.493.493,0,0,1-.174-.1.469.469,0,0,1-.113-.163.537.537,0,0,1-.04-.211.6.6,0,0,1,.038-.218.451.451,0,0,1,.107-.166.479.479,0,0,1,.169-.1.647.647,0,0,1,.224-.037.635.635,0,0,1,.221.037.441.441,0,0,1,.166.107.462.462,0,0,1,.1.171.676.676,0,0,1,.036.227v.036Zm.4-.2a.21.21,0,0,0-.07-.115.2.2,0,0,0-.128-.043.2.2,0,0,0-.129.042.187.187,0,0,0-.063.117Z" transform="translate(-2494.083 -2753.854)"/>
  <path id="패스_19077" data-name="패스 19077" d="M2585.232,2827.37h.342v.159a.39.39,0,0,1,.134-.134.362.362,0,0,1,.185-.046h.029a.2.2,0,0,1,.037,0v.326a.332.332,0,0,0-.148-.033.221.221,0,0,0-.179.071.317.317,0,0,0-.059.207v.415h-.342Z" transform="translate(-2500.436 -2753.938)"/>
  <path id="패스_19078" data-name="패스 19078" d="M2591.013,2826.181v.684h-.342v-.684h-.114v-.285h.114v-.291h.342v.291h.195v.285Z" transform="translate(-2504.937 -2752.464)"/>
  <path id="패스_19079" data-name="패스 19079" d="M2595.235,2827.763a.472.472,0,0,1,.043-.2.5.5,0,0,1,.121-.163.569.569,0,0,1,.184-.108.7.7,0,0,1,.464,0,.568.568,0,0,1,.186.107.482.482,0,0,1,.122.165.5.5,0,0,1-.122.585.55.55,0,0,1-.186.107.727.727,0,0,1-.235.038.689.689,0,0,1-.23-.038.542.542,0,0,1-.183-.108.507.507,0,0,1-.12-.167.529.529,0,0,1-.043-.217m.361,0a.22.22,0,0,0,.018.09.231.231,0,0,0,.047.07.205.205,0,0,0,.07.048.225.225,0,0,0,.172,0,.212.212,0,0,0,.07-.048.235.235,0,0,0,.047-.07.218.218,0,0,0,.018-.088.214.214,0,0,0-.018-.086.242.242,0,0,0-.047-.071.215.215,0,0,0-.07-.047.225.225,0,0,0-.172,0,.208.208,0,0,0-.07.047.238.238,0,0,0-.047.07.2.2,0,0,0-.018.085" transform="translate(-2508.889 -2753.855)"/>
  <path id="패스_19080" data-name="패스 19080" d="M2603.4,2827.37h.342v.123a.377.377,0,0,1,.142-.115.447.447,0,0,1,.168-.029.429.429,0,0,1,.175.032.349.349,0,0,1,.124.094.271.271,0,0,1,.057.11.575.575,0,0,1,.015.138v.615h-.342v-.489a.515.515,0,0,0-.011-.116.143.143,0,0,0-.037-.071.128.128,0,0,0-.051-.032.185.185,0,0,0-.061-.01.169.169,0,0,0-.133.052.216.216,0,0,0-.047.149v.517h-.342Z" transform="translate(-2515.788 -2753.938)"/>
  <path id="패스_19081" data-name="패스 19081" d="M2610.367,2831.974h.322l-.348.625h-.219Z" transform="translate(-2521.468 -2757.845)"/>
  <path id="패스_19082" data-name="패스 19082" d="M2617.392,2825.043a.75.75,0,0,1,.058-.3.732.732,0,0,1,.411-.4.9.9,0,0,1,.635,0,.733.733,0,0,1,.414.4.781.781,0,0,1,0,.591.728.728,0,0,1-.164.239.745.745,0,0,1-.25.16.9.9,0,0,1-.635,0,.741.741,0,0,1-.248-.16.733.733,0,0,1-.163-.239.752.752,0,0,1-.058-.3m.387,0a.375.375,0,0,0,.032.157.39.39,0,0,0,.087.124.377.377,0,0,0,.128.082.413.413,0,0,0,.436-.082.384.384,0,0,0,.087-.124.4.4,0,0,0,0-.314.385.385,0,0,0-.087-.125.406.406,0,0,0-.283-.112.409.409,0,0,0-.153.029.392.392,0,0,0-.215.207.375.375,0,0,0-.032.157" transform="translate(-2527.611 -2751.354)"/>
  <path id="패스_19083" data-name="패스 19083" d="M2630.006,2825.97h-.461l-.354-.548v.548h-.37v-1.424h.576a.57.57,0,0,1,.208.035.4.4,0,0,1,.147.1.41.41,0,0,1,.087.14.482.482,0,0,1,.03.17.417.417,0,0,1-.079.263.4.4,0,0,1-.231.137Zm-.814-.787h.07a.271.271,0,0,0,.168-.045.174.174,0,0,0,0-.261.269.269,0,0,0-.168-.045h-.07Z" transform="translate(-2537.27 -2751.569)"/>
  <path id="패스_19084" data-name="패스 19084" d="M2303.3,2830.76v1.344h.537v.38h-.985v-1.724Z" transform="translate(-2261.818 -2756.82)"/>
  <path id="패스_19085" data-name="패스 19085" d="M2310.762,2834.117h.416v1.172h-.416v-.13a.434.434,0,0,1-.359.167.577.577,0,0,1-.235-.047.558.558,0,0,1-.187-.131.6.6,0,0,1-.125-.2.7.7,0,0,1,0-.488.62.62,0,0,1,.121-.2.563.563,0,0,1,.423-.183.478.478,0,0,1,.363.153Zm-.521.583a.274.274,0,0,0,.021.106.268.268,0,0,0,.056.086.252.252,0,0,0,.084.057.269.269,0,0,0,.106.021.261.261,0,0,0,.1-.021.256.256,0,0,0,.085-.057.3.3,0,0,0,.057-.084.248.248,0,0,0,.022-.1.257.257,0,0,0-.022-.1.294.294,0,0,0-.057-.086.26.26,0,0,0-.085-.057.265.265,0,0,0-.1-.02.273.273,0,0,0-.106.02.256.256,0,0,0-.084.057.285.285,0,0,0-.056.083.251.251,0,0,0-.021.1" transform="translate(-2267.702 -2759.625)"/>
  <path id="패스_19086" data-name="패스 19086" d="M2319.71,2834.18h.414v.148a.45.45,0,0,1,.172-.138.528.528,0,0,1,.2-.036.5.5,0,0,1,.211.04.428.428,0,0,1,.15.113.33.33,0,0,1,.068.132.678.678,0,0,1,.018.167v.746h-.414v-.592a.643.643,0,0,0-.013-.141.17.17,0,0,0-.045-.086.151.151,0,0,0-.061-.039.227.227,0,0,0-.073-.011.206.206,0,0,0-.162.063.262.262,0,0,0-.056.179v.627h-.414Z" transform="translate(-2276.066 -2759.688)"/>
  <path id="패스_19087" data-name="패스 19087" d="M2328.89,2834.735c0,.179.083.268.251.268a.224.224,0,0,0,.2-.11h.4a.559.559,0,0,1-.606.4.79.79,0,0,1-.272-.045.615.615,0,0,1-.212-.126.581.581,0,0,1-.136-.2.658.658,0,0,1-.048-.256.734.734,0,0,1,.045-.264.564.564,0,0,1,.131-.2.579.579,0,0,1,.2-.127.78.78,0,0,1,.271-.044.77.77,0,0,1,.268.044.548.548,0,0,1,.2.129.563.563,0,0,1,.126.207.824.824,0,0,1,.043.276v.043Zm.485-.24a.251.251,0,0,0-.085-.139.261.261,0,0,0-.312,0,.23.23,0,0,0-.077.142Z" transform="translate(-2283.47 -2759.588)"/>
  <path id="패스_19088" data-name="패스 19088" d="M2341.2,2831.361a.887.887,0,0,1,.568-.84,1.1,1.1,0,0,1,.77,0,.916.916,0,0,1,.3.193.9.9,0,0,1,.2.29.946.946,0,0,1,0,.716.893.893,0,0,1-.2.289.914.914,0,0,1-.3.193,1.1,1.1,0,0,1-.77,0,.9.9,0,0,1-.3-.193.889.889,0,0,1-.2-.289.9.9,0,0,1-.071-.358m.469,0a.461.461,0,0,0,.039.19.474.474,0,0,0,.1.151.464.464,0,0,0,.155.1.5.5,0,0,0,.528-.1.47.47,0,0,0,.106-.151.484.484,0,0,0,0-.38.476.476,0,0,0-.106-.151.487.487,0,0,0-.155-.1.505.505,0,0,0-.373,0,.468.468,0,0,0-.155.1.48.48,0,0,0-.1.151.461.461,0,0,0-.039.19" transform="translate(-2294.226 -2756.559)"/>
  <path id="패스_19089" data-name="패스 19089" d="M2354.359,2834.18h.414v.148a.45.45,0,0,1,.172-.138.528.528,0,0,1,.2-.036.507.507,0,0,1,.212.04.427.427,0,0,1,.15.113.327.327,0,0,1,.068.132.678.678,0,0,1,.019.167v.746h-.414v-.592a.628.628,0,0,0-.013-.141.166.166,0,0,0-.045-.086.15.15,0,0,0-.061-.039.226.226,0,0,0-.073-.011.2.2,0,0,0-.161.063.262.262,0,0,0-.056.179v.627h-.414Z" transform="translate(-2305.345 -2759.688)"/>
  <path id="패스_19090" data-name="패스 19090" d="M2363.54,2834.735c0,.179.083.268.251.268a.224.224,0,0,0,.2-.11h.4a.559.559,0,0,1-.606.4.79.79,0,0,1-.272-.045.61.61,0,0,1-.211-.126.579.579,0,0,1-.136-.2.662.662,0,0,1-.048-.256.723.723,0,0,1,.046-.264.564.564,0,0,1,.13-.2.579.579,0,0,1,.2-.127.781.781,0,0,1,.271-.044.771.771,0,0,1,.268.044.548.548,0,0,1,.2.129.567.567,0,0,1,.126.207.836.836,0,0,1,.043.276v.043Zm.485-.24a.248.248,0,0,0-.085-.139.261.261,0,0,0-.312,0,.229.229,0,0,0-.077.142Z" transform="translate(-2312.75 -2759.588)"/>
  <path id="패스_19091" data-name="패스 19091" d="M2282.07,2721.756l-10.85-.9.355-1.79,6.9.79-6.668-1.957.327-1.646,6.853.725-6.618-1.905.329-1.66,10.366,3.336-.388,1.958-5.934-.651,5.733,1.663Z" transform="translate(-2235.092 -2657.662)"/>
  <path id="패스_19092" data-name="패스 19092" d="M2298.5,2682.438c1.415.714,2,1.871,1.407,3.051l-.179.354c-.626,1.238-1.8,1.473-3.309.712l-5.1-2.576c-1.492-.754-2.2-1.777-1.512-3.133l.179-.354c.7-1.38,1.921-1.384,3.4-.636Zm-6.072-1.008c-.428-.217-.7-.192-.845.091-.155.307-.007.53.421.746l5.295,2.674c.3.151.625.183.792-.148s-.07-.539-.368-.689Z" transform="translate(-2250.577 -2628.883)"/>
  <path id="패스_19093" data-name="패스 19093" d="M2317.825,2652.525l-1.156,1.326-8.156-7.106,1.825-2.093a1.539,1.539,0,0,1,2.419-.032l1.3,1.137a1.488,1.488,0,0,1,.583,1.543,1.277,1.277,0,0,1,1.46.273l2.773,2.416a1.648,1.648,0,0,0,.7.416l.055.047-1.156,1.326a1.5,1.5,0,0,1-.729-.425l-2.379-2.073c-.373-.324-.552-.34-.787-.071l-.243.279Zm-4.834-4.212.226-.259c.226-.259.212-.464-.172-.8l-1.107-.964c-.351-.306-.512-.341-.747-.073l-.261.3Z" transform="translate(-2266.606 -2599.048)"/>
  <path id="패스_19094" data-name="패스 19094" d="M2343.016,2621.115l5.067,7.283,1.53-1.065,1.113,1.6-2.973,2.069-6.18-8.883Z" transform="translate(-2294.541 -2579.667)"/>
  <path id="패스_19095" data-name="패스 19095" d="M2377.945,2599.365l2.344-.867c1.228-.454,2.031-.037,2.6,1.5l2.118,5.728c.534,1.445.385,2.415-.967,2.915l-2.344.866Zm4.776,7.846.323-.119c.372-.138.4-.4.221-.888l-2.017-5.455c-.181-.491-.376-.636-.686-.521l-.372.138Z" transform="translate(-2325.276 -2560.409)"/>
  <path id="패스_19096" data-name="패스 19096" d="M2434.869,2599.741l-1.757.065-.4-10.813,2.774-.1c1.07-.04,1.635.594,1.677,1.742l.063,1.73a1.492,1.492,0,0,1-.726,1.483,1.275,1.275,0,0,1,.8,1.251l.134,3.677a1.643,1.643,0,0,0,.175.794l0,.072-1.757.065a1.5,1.5,0,0,1-.188-.823l-.116-3.154c-.018-.494-.129-.635-.485-.623l-.37.014Zm-.234-6.41.344-.013c.343-.013.483-.164.465-.672l-.054-1.468c-.017-.465-.1-.608-.458-.594l-.4.015Z" transform="translate(-2371.559 -2552.436)"/>
  <path id="패스_19097" data-name="패스 19097" d="M2471.336,2591.146l-.393,1.864-1.876-.4-.486,2.3,1.475.311-.4,1.907-1.475-.312-.549,2.6,1.967.415-.4,1.907-3.687-.778,2.232-10.587Z" transform="translate(-2399.268 -2553.702)"/>
  <path id="패스_19098" data-name="패스 19098" d="M2495.268,2611.853l1.023-2.154,1.577.749-1.048,2.207c-.555,1.169-1.5,2.055-2.912,1.386l-.323-.153c-1.529-.726-1.357-1.98-.777-3.2l2.62-5.517c.561-1.182,1.52-2,2.929-1.329l.323.154c1.517.72,1.347,1.911.816,3.027l-.779,1.642-1.577-.748.749-1.577c.175-.367.161-.615-.138-.757s-.481,0-.663.377l-2.62,5.517c-.181.381-.161.648.126.783s.507-.049.675-.4" transform="translate(-2421.982 -2564.865)"/>
  <path id="패스_19099" data-name="패스 19099" d="M2522.625,2634.468c-1.013,1.219-2.272,1.533-3.288.688l-.305-.254c-1.067-.888-1.032-2.088.046-3.385l3.653-4.395c1.069-1.286,2.224-1.744,3.393-.771l.3.254c1.189.989.919,2.183-.141,3.458Zm2.343-5.693c.307-.369.344-.641.1-.844-.264-.22-.514-.125-.821.244l-3.793,4.563c-.214.257-.317.568-.032.8s.541.052.754-.2Z" transform="translate(-2443.835 -2583.65)"/>
  <path id="패스_19100" data-name="패스 19100" d="M2536.581,2659.941l-1.033-1.423,8.754-6.362,1.632,2.246a1.539,1.539,0,0,1-.511,2.365l-1.4,1.018a1.491,1.491,0,0,1-1.635.224,1.277,1.277,0,0,1-.593,1.362l-2.977,2.164a1.645,1.645,0,0,0-.562.588l-.059.043-1.033-1.423a1.513,1.513,0,0,1,.577-.615l2.553-1.855c.4-.291.456-.462.246-.751l-.217-.3Zm5.189-3.771.2.278c.2.278.405.31.817.011l1.188-.864c.376-.273.447-.423.238-.712l-.233-.321Z" transform="translate(-2458.452 -2605.897)"/>
  <path id="패스_19101" data-name="패스 19101" d="M2563.509,2694.092l.861,2.345c.451,1.229.033,2.03-1.51,2.6l-5.734,2.105c-1.447.531-2.417.38-2.914-.972l-.861-2.344Zm-7.859,4.758.119.323c.137.372.4.4.888.223l5.461-2.005c.491-.18.637-.374.523-.685l-.137-.372Z" transform="translate(-2473.496 -2641.334)"/>
  <path id="패스_19102" data-name="패스 19102" d="M2565.244,2738.179l1.938-.209.186,1.722-1.721.186c-.433.047-.636.2-.6.517s.307.406.828.349l.2-.021a2.091,2.091,0,0,0,1.616-.747l1.12-1.144a3.959,3.959,0,0,1,2.632-1.228l.462-.05a1.9,1.9,0,0,1,2.354,1.754l.038.355c.147,1.367-.491,1.954-1.909,2.107l-1.445.156-.181-1.682,1.345-.145c.347-.038.556-.127.523-.442s-.258-.358-.619-.319l-.246.026a1.948,1.948,0,0,0-1.33.689l-1.121,1.131a3.96,3.96,0,0,1-2.647,1.363l-.506.054c-1.6.173-2.734-.4-2.889-1.842l-.037-.342c-.143-1.328.566-2.082,2.011-2.238" transform="translate(-2481.831 -2678.042)"/>
  <path id="패스_19103" data-name="패스 19103" d="M2319.733,2862.622h1.232a1.451,1.451,0,0,1,.614.132,1.679,1.679,0,0,1,.5.35,1.632,1.632,0,0,1,.338.51,1.573,1.573,0,0,1,0,1.216,1.617,1.617,0,0,1-.336.512,1.645,1.645,0,0,1-.5.353,1.459,1.459,0,0,1-.618.132h-1.232Zm.833,2.5h.191a1.034,1.034,0,0,0,.387-.068.827.827,0,0,0,.287-.187.8.8,0,0,0,.179-.283,1.017,1.017,0,0,0,.062-.359.989.989,0,0,0-.064-.357.806.806,0,0,0-.468-.472,1.029,1.029,0,0,0-.383-.068h-.191Z" transform="translate(-2276.086 -2783.744)" fill="#fff"/>
  <path id="패스_19104" data-name="패스 19104" d="M2340.276,2865.27h-1.19l-.191.557h-.888l1.219-3.2h.909l1.22,3.2h-.888Zm-.221-.633-.374-1.067-.374,1.067Z" transform="translate(-2291.528 -2783.744)" fill="#fff"/>
  <rect id="사각형_5638" data-name="사각형 5638" width="1.22" height="0.642" transform="translate(49.992 80.159)" fill="#fff"/>
  <path id="패스_19105" data-name="패스 19105" d="M2372.154,2862.622h1.232a1.451,1.451,0,0,1,.615.132,1.679,1.679,0,0,1,.5.35,1.632,1.632,0,0,1,.338.51,1.568,1.568,0,0,1,0,1.216,1.612,1.612,0,0,1-.335.512,1.645,1.645,0,0,1-.5.353,1.459,1.459,0,0,1-.619.132h-1.232Zm.833,2.5h.191a1.034,1.034,0,0,0,.387-.068.829.829,0,0,0,.287-.187.8.8,0,0,0,.178-.283,1.012,1.012,0,0,0,.062-.359.989.989,0,0,0-.063-.357.825.825,0,0,0-.181-.284.837.837,0,0,0-.287-.187,1.029,1.029,0,0,0-.383-.068h-.191Z" transform="translate(-2320.382 -2783.744)" fill="#fff"/>
  <path id="패스_19106" data-name="패스 19106" d="M2392.771,2863.738a1.651,1.651,0,0,1,1.056-1.562,2.04,2.04,0,0,1,1.43,0,1.683,1.683,0,0,1,.563.359,1.647,1.647,0,0,1,.368.538,1.747,1.747,0,0,1,0,1.33,1.649,1.649,0,0,1-.368.538,1.686,1.686,0,0,1-.563.359,2.029,2.029,0,0,1-1.43,0,1.658,1.658,0,0,1-1.056-1.561m.871,0a.85.85,0,0,0,.072.353.88.88,0,0,0,.482.466.927.927,0,0,0,.982-.185.877.877,0,0,0,.2-.281.9.9,0,0,0,0-.705.877.877,0,0,0-.2-.281.937.937,0,0,0-.982-.185.88.88,0,0,0-.482.466.851.851,0,0,0-.072.353" transform="translate(-2337.804 -2783.258)" fill="#fff"/>
  <path id="패스_19107" data-name="패스 19107" d="M2418.135,2863.738a1.651,1.651,0,0,1,1.056-1.562,2.04,2.04,0,0,1,1.43,0,1.688,1.688,0,0,1,.563.359,1.65,1.65,0,0,1,.368.538,1.747,1.747,0,0,1,0,1.33,1.653,1.653,0,0,1-.368.538,1.691,1.691,0,0,1-.563.359,2.029,2.029,0,0,1-1.43,0,1.657,1.657,0,0,1-1.056-1.561m.871,0a.85.85,0,0,0,.072.353.882.882,0,0,0,.482.466.927.927,0,0,0,.982-.185.884.884,0,0,0,.2-.281.894.894,0,0,0,0-.705.884.884,0,0,0-.2-.281.937.937,0,0,0-.982-.185.882.882,0,0,0-.482.466.851.851,0,0,0-.072.353" transform="translate(-2359.237 -2783.258)" fill="#fff"/>
  <rect id="사각형_5639" data-name="사각형 5639" width="1.22" height="0.642" transform="translate(63.075 80.159)" fill="#fff"/>
  <rect id="사각형_5640" data-name="사각형 5640" width="1.22" height="0.642" transform="translate(74.915 80.159)" fill="#fff"/>
  <path id="패스_19108" data-name="패스 19108" d="M2459.732,2865.825H2458.7l-.795-1.232v1.232h-.833v-3.2h1.3a1.266,1.266,0,0,1,.468.079.878.878,0,0,1,.525.529,1.1,1.1,0,0,1,.066.382.94.94,0,0,1-.177.593.885.885,0,0,1-.521.308Zm-1.832-1.772h.157a.612.612,0,0,0,.378-.1.393.393,0,0,0,0-.587.605.605,0,0,0-.378-.1h-.157Z" transform="translate(-2392.136 -2783.743)" fill="#fff"/>
  <path id="패스_19109" data-name="패스 19109" d="M2476.067,2862.622v1.742c0,.093,0,.189.01.287a.787.787,0,0,0,.064.266.436.436,0,0,0,.167.193.59.59,0,0,0,.323.074.579.579,0,0,0,.321-.074.456.456,0,0,0,.168-.193.755.755,0,0,0,.066-.266c.007-.1.011-.194.011-.287v-1.742h.828v1.857a1.5,1.5,0,0,1-.342,1.092,1.781,1.781,0,0,1-2.105,0,1.494,1.494,0,0,1-.344-1.092v-1.857Z" transform="translate(-2407.486 -2783.744)" fill="#fff"/>
  <path id="패스_19110" data-name="패스 19110" d="M2497.04,2865.826v-3.2h.833l1.539,1.959v-1.959h.828v3.2h-.828l-1.539-1.959v1.959Z" transform="translate(-2425.913 -2783.743)" fill="#fff"/>
  <path id="패스_19111" data-name="패스 19111" d="M2535.991,2865.825h-1.037l-.795-1.232v1.232h-.833v-3.2h1.3a1.267,1.267,0,0,1,.468.079.9.9,0,0,1,.329.214.908.908,0,0,1,.2.314,1.094,1.094,0,0,1,.066.382.94.94,0,0,1-.177.593.885.885,0,0,1-.521.308Zm-1.832-1.772h.157a.612.612,0,0,0,.378-.1.393.393,0,0,0,0-.587.606.606,0,0,0-.378-.1h-.157Z" transform="translate(-2456.576 -2783.743)" fill="#fff"/>
  <path id="패스_19112" data-name="패스 19112" d="M2553.409,2862.622v1.742c0,.093,0,.189.01.287a.787.787,0,0,0,.064.266.438.438,0,0,0,.168.193.59.59,0,0,0,.323.074.58.58,0,0,0,.321-.074.459.459,0,0,0,.168-.193.766.766,0,0,0,.066-.266c.007-.1.01-.194.01-.287v-1.742h.829v1.857a1.5,1.5,0,0,1-.342,1.092,1.781,1.781,0,0,1-2.106,0,1.5,1.5,0,0,1-.344-1.092v-1.857Z" transform="translate(-2472.841 -2783.744)" fill="#fff"/>
  <path id="패스_19113" data-name="패스 19113" d="M2574.922,2865.826v-3.2h.833l1.539,1.959v-1.959h.829v3.2h-.829l-1.539-1.959v1.959Z" transform="translate(-2491.724 -2783.743)" fill="#fff"/>
  <path id="패스_19114" data-name="패스 19114" d="M2393,2576.178l.653-.191-.2-.671.453-.133.51,1.74-.452.132-.211-.718-.653.192.21.717-.452.133-.51-1.74.452-.132Z" transform="translate(-2337.45 -2540.854)"/>
  <rect id="사각형_5641" data-name="사각형 5641" width="0.471" height="1.813" transform="translate(56.906 34.224) rotate(-13.562)"/>
  <path id="패스_19115" data-name="패스 19115" d="M2412.417,2572.431l.919-.173a2.6,2.6,0,0,1,.037.26.914.914,0,0,1-.007.224.857.857,0,0,1-.088.272.8.8,0,0,1-.165.217.962.962,0,0,1-.231.157,1.09,1.09,0,0,1-.281.092,1.024,1.024,0,0,1-.392,0,.862.862,0,0,1-.331-.137.876.876,0,0,1-.248-.262,1.049,1.049,0,0,1-.141-.371,1.07,1.07,0,0,1,0-.395.861.861,0,0,1,.135-.333.885.885,0,0,1,.263-.248,1.081,1.081,0,0,1,.377-.143.988.988,0,0,1,.512.028.851.851,0,0,1,.4.311l-.405.265a.454.454,0,0,0-.2-.18.408.408,0,0,0-.236-.022.471.471,0,0,0-.182.075.417.417,0,0,0-.124.138.546.546,0,0,0-.062.192.738.738,0,0,0,.009.233.729.729,0,0,0,.07.2.487.487,0,0,0,.12.151.408.408,0,0,0,.167.082.513.513,0,0,0,.211,0,.555.555,0,0,0,.129-.041.355.355,0,0,0,.105-.071.29.29,0,0,0,.067-.1.36.36,0,0,0,.02-.141l-.38.072Z" transform="translate(-2353.604 -2537.807)"/>
  <path id="패스_19116" data-name="패스 19116" d="M2425.7,2570.157l.676-.08-.082-.695.469-.055.211,1.8-.468.055-.087-.743-.676.079.087.743-.468.055-.212-1.8.468-.055Z" transform="translate(-2365.164 -2535.906)"/>
  <path id="패스_19117" data-name="패스 19117" d="M2445.037,2568.947l-.567.019.01.3.517-.018.014.4-.517.018.024.711-.471.017-.063-1.812,1.039-.036Z" transform="translate(-2381.08 -2535.248)"/>
  <rect id="사각형_5642" data-name="사각형 5642" width="1.813" height="0.471" transform="translate(64.277 35.11) rotate(-89.068)"/>
  <path id="패스_19118" data-name="패스 19118" d="M2458.263,2568.548l.7.033a.82.82,0,0,1,.344.091.944.944,0,0,1,.274.211.927.927,0,0,1,.177.3.891.891,0,0,1-.031.687.93.93,0,0,1-.2.281.952.952,0,0,1-.293.186.836.836,0,0,1-.354.058l-.7-.033Zm.405,1.435.108,0a.588.588,0,0,0,.22-.028.463.463,0,0,0,.167-.1.449.449,0,0,0,.108-.155.573.573,0,0,0,.044-.2.556.556,0,0,0-.027-.2.455.455,0,0,0-.094-.166.466.466,0,0,0-.157-.113.584.584,0,0,0-.215-.049l-.108,0Z" transform="translate(-2393.074 -2535.248)"/>
  <path id="패스_19119" data-name="패스 19119" d="M2471.406,2569.769l-.557-.056-.031.3.526.054-.04.4-.526-.053-.032.312.557.056-.04.4-1.027-.1.183-1.8,1.026.1Z" transform="translate(-2403.263 -2535.856)"/>
  <path id="패스_19120" data-name="패스 19120" d="M2479.65,2570.342l-.205,1.4.559.082-.058.4-1.026-.151.263-1.794Z" transform="translate(-2410.602 -2536.706)"/>
  <rect id="사각형_5643" data-name="사각형 5643" width="1.813" height="0.471" transform="translate(69.564 35.555) rotate(-79.614)"/>
  <path id="패스_19121" data-name="패스 19121" d="M2494.063,2573.015l-.306,1.38-.46-.1.305-1.38-.378-.083.086-.39,1.216.27-.086.39Z" transform="translate(-2422.689 -2538.536)"/>
  <path id="패스_19122" data-name="패스 19122" d="M2503.117,2575.489l-.383-1.086.542.151.19.568.456-.387.542.152-.893.729-.235.839-.454-.127Z" transform="translate(-2430.724 -2540.195)"/>
</svg>
