<svg id="구성_요소_58_2" data-name="구성 요소 58 – 2" xmlns="http://www.w3.org/2000/svg" width="128.931" height="128.931" viewBox="0 0 128.931 128.931">
  <path id="패스_19123" data-name="패스 19123" d="M237.648,2555.321a33.215,33.215,0,1,0,33.215,33.215,33.215,33.215,0,0,0-33.215-33.215m0,45.792a12.578,12.578,0,1,1,12.578-12.578,12.578,12.578,0,0,1-12.578,12.578" transform="translate(-173.183 -2524.071)" fill="lime"/>
  <path id="패스_19124" data-name="패스 19124" d="M67.268,2353.69a64.466,64.466,0,1,0,64.466,64.465,64.465,64.465,0,0,0-64.466-64.465m0,97.681a33.215,33.215,0,1,1,33.215-33.216,33.215,33.215,0,0,1-33.215,33.216" transform="translate(-2.802 -2353.69)"/>
  <path id="패스_19125" data-name="패스 19125" d="M236.279,2807.8a2.126,2.126,0,0,1-1.773-.089c-.926-.688-.225-2.069.031-2.48a12.083,12.083,0,0,0-1.255,1.561,2.439,2.439,0,0,0-.415,2.417c.669,1.092,2.276.593,3.3.147l9.429-4.084Z" transform="translate(-197.057 -2735.251)"/>
  <path id="패스_19126" data-name="패스 19126" d="M245.607,2792.618l-.131,1.521.557-1.521h.822l-1.255,3.465h-.811l.1-1.666-.6,1.666h-.812l1.247-3.465Zm1,3.465,1.255-3.465h-.821l-1.255,3.465Zm4.167-.7-.879.005.3-.827h.715l.218-.612h-.708l.246-.689h.712l.234-.644h-2.3l-.833,1.007.384-1.007h-.819l-1.247,3.465h.818l.53-1.481.01,1.481h2.374Zm-.772-2.642.058-.052-1.146,3.176-.063-1.735Z" transform="translate(-206.172 -2724.59)"/>
  <path id="패스_19127" data-name="패스 19127" d="M302.594,2892.339h-.78v.416h.711v.549h-.711v.979h-.648v-2.493h1.428Z" transform="translate(-254.923 -2808.391)"/>
  <path id="패스_19128" data-name="패스 19128" d="M312.539,2897.537q0,.387.364.387a.325.325,0,0,0,.294-.159h.578a.808.808,0,0,1-.876.582,1.145,1.145,0,0,1-.393-.064.874.874,0,0,1-.306-.183.816.816,0,0,1-.2-.284.945.945,0,0,1-.069-.37,1.051,1.051,0,0,1,.066-.382.8.8,0,0,1,.188-.289.846.846,0,0,1,.3-.183,1.124,1.124,0,0,1,.392-.064,1.1,1.1,0,0,1,.387.064.8.8,0,0,1,.291.187.814.814,0,0,1,.182.3,1.185,1.185,0,0,1,.063.4v.063Zm.7-.347a.359.359,0,0,0-.122-.2.379.379,0,0,0-.451,0,.327.327,0,0,0-.111.2Z" transform="translate(-264.022 -2812.393)"/>
  <path id="패스_19129" data-name="패스 19129" d="M327.106,2896.641h.6v1.7h-.6v-.188a.629.629,0,0,1-.519.241.845.845,0,0,1-.34-.067.822.822,0,0,1-.271-.19.876.876,0,0,1-.18-.288.979.979,0,0,1-.065-.36.95.95,0,0,1,.063-.345.877.877,0,0,1,.175-.286.813.813,0,0,1,.611-.265.692.692,0,0,1,.526.221Zm-.754.843a.395.395,0,0,0,.111.277.368.368,0,0,0,.122.083.391.391,0,0,0,.154.029.382.382,0,0,0,.15-.029.371.371,0,0,0,.122-.083.433.433,0,0,0,.083-.122.359.359,0,0,0,.031-.149.372.372,0,0,0-.031-.151.423.423,0,0,0-.083-.124.359.359,0,0,0-.122-.082.379.379,0,0,0-.15-.031.387.387,0,0,0-.154.031.356.356,0,0,0-.122.082.4.4,0,0,0-.081.121.359.359,0,0,0-.03.147" transform="translate(-275.681 -2812.446)"/>
  <path id="패스_19130" data-name="패스 19130" d="M341.073,2894.654v1.2h-.6v-1.2h-.2v-.5h.2v-.509h.6v.509h.34v.5Z" transform="translate(-287.972 -2809.959)"/>
  <path id="패스_19131" data-name="패스 19131" d="M349.66,2896.93v.955a.3.3,0,1,0,.608,0v-.955h.6V2898a.6.6,0,0,1-.226.515,1.411,1.411,0,0,1-1.352,0,.6.6,0,0,1-.226-.515v-1.072Z" transform="translate(-295.396 -2812.734)"/>
  <path id="패스_19132" data-name="패스 19132" d="M363.329,2896.731h.6v.278a.688.688,0,0,1,.235-.233.63.63,0,0,1,.324-.081h.051a.393.393,0,0,1,.064.007v.572a.567.567,0,0,0-.258-.059.385.385,0,0,0-.312.124.549.549,0,0,0-.1.362v.727h-.6Z" transform="translate(-307.452 -2812.536)"/>
  <path id="패스_19133" data-name="패스 19133" d="M373.01,2890.892a.323.323,0,0,1,.026-.131.339.339,0,0,1,.073-.107.334.334,0,0,1,.107-.073.336.336,0,0,1,.261,0,.335.335,0,0,1,.107.073.342.342,0,0,1,.073.107.336.336,0,0,1,0,.261.345.345,0,0,1-.18.181.339.339,0,0,1-.261,0,.351.351,0,0,1-.107-.073.345.345,0,0,1-.073-.108.324.324,0,0,1-.026-.13m.638,2.346h-.6v-1.7h.6Z" transform="translate(-315.632 -2807.347)"/>
  <path id="패스_19134" data-name="패스 19134" d="M379.769,2896.731h.6v.215a.654.654,0,0,1,.248-.2.77.77,0,0,1,.294-.052.735.735,0,0,1,.306.058.6.6,0,0,1,.217.164.468.468,0,0,1,.1.192,1.006,1.006,0,0,1,.026.241v1.077h-.6v-.856a.933.933,0,0,0-.018-.2.251.251,0,0,0-.065-.124.228.228,0,0,0-.089-.057.34.34,0,0,0-.106-.017.3.3,0,0,0-.233.091.379.379,0,0,0-.081.259v.906h-.6Z" transform="translate(-321.344 -2812.536)"/>
  <path id="패스_19135" data-name="패스 19135" d="M395.465,2896.677v1.58a1.761,1.761,0,0,1-.017.255,1.094,1.094,0,0,1-.046.2.622.622,0,0,1-.124.2.85.85,0,0,1-.2.164,1.092,1.092,0,0,1-.269.109,1.355,1.355,0,0,1-.689-.01.992.992,0,0,1-.289-.137.793.793,0,0,1-.2-.2.677.677,0,0,1-.106-.256h.674a.269.269,0,0,0,.284.169.381.381,0,0,0,.289-.106.409.409,0,0,0,.1-.294v-.162a.971.971,0,0,1-.127.1.7.7,0,0,1-.124.068.592.592,0,0,1-.132.038,1.007,1.007,0,0,1-.152.011.858.858,0,0,1-.334-.063.779.779,0,0,1-.263-.175.788.788,0,0,1-.172-.27.952.952,0,0,1-.061-.349.976.976,0,0,1,.066-.362.936.936,0,0,1,.18-.291.826.826,0,0,1,.613-.266.658.658,0,0,1,.506.225v-.178Zm-1.342.839a.395.395,0,0,0,.111.278.364.364,0,0,0,.122.083.4.4,0,0,0,.154.03.387.387,0,0,0,.15-.03.368.368,0,0,0,.122-.083.418.418,0,0,0,.083-.124.372.372,0,0,0,.031-.15.365.365,0,0,0-.031-.152.406.406,0,0,0-.084-.122.385.385,0,0,0-.271-.112.36.36,0,0,0-.149.031.434.434,0,0,0-.122.083.392.392,0,0,0-.085.121.357.357,0,0,0-.031.148" transform="translate(-332.948 -2812.481)"/>
  <path id="패스_19136" data-name="패스 19136" d="M417.053,2894.283h-.648v-2.492h1.031a.883.883,0,0,1,.643.218.959.959,0,0,1,0,1.23.883.883,0,0,1-.643.218h-.384Zm0-1.349h.215q.357,0,.357-.31t-.357-.311h-.215Z" transform="translate(-352.302 -2808.391)"/>
  <path id="패스_19137" data-name="패스 19137" d="M430.5,2890.171h.6v1.262a.657.657,0,0,1,.248-.2.777.777,0,0,1,.294-.051.627.627,0,0,1,.484.177.675.675,0,0,1,.164.478v1.078h-.6v-.856a.876.876,0,0,0-.02-.208.243.243,0,0,0-.066-.122.28.28,0,0,0-.192-.07.3.3,0,0,0-.233.091.378.378,0,0,0-.081.26v.906h-.6Z" transform="translate(-364.213 -2807.023)"/>
  <path id="패스_19138" data-name="패스 19138" d="M444.406,2890.892a.317.317,0,0,1,.027-.131.341.341,0,0,1,.18-.18.337.337,0,0,1,.261,0,.337.337,0,0,1,.107.073.341.341,0,0,1,.072.107.33.33,0,0,1,0,.261.348.348,0,0,1-.072.108.354.354,0,0,1-.107.073.34.34,0,0,1-.261,0,.355.355,0,0,1-.107-.073.343.343,0,0,1-.072-.108.318.318,0,0,1-.027-.13m.638,2.346h-.6v-1.7h.6Z" transform="translate(-375.963 -2807.347)"/>
  <rect id="사각형_5644" data-name="사각형 5644" width="0.599" height="2.743" transform="translate(69.491 83.148)"/>
  <path id="패스_19139" data-name="패스 19139" d="M465.931,2892.818l.79-1.028h.8l-.988,1.18,1.081,1.312h-.84l-.843-1.081v1.081h-.648v-2.492h.648Z" transform="translate(-393.604 -2808.391)"/>
  <path id="패스_19140" data-name="패스 19140" d="M481.809,2896.731h.6v.215a.656.656,0,0,1,.248-.2.772.772,0,0,1,.294-.052.735.735,0,0,1,.306.058.6.6,0,0,1,.217.164.464.464,0,0,1,.1.192,1.007,1.007,0,0,1,.026.241v1.077H483v-.856a.906.906,0,0,0-.018-.2.249.249,0,0,0-.064-.124.232.232,0,0,0-.089-.057.34.34,0,0,0-.106-.017.3.3,0,0,0-.233.091.379.379,0,0,0-.081.259v.906h-.6Z" transform="translate(-407.569 -2812.536)"/>
  <path id="패스_19141" data-name="패스 19141" d="M495.715,2890.892a.318.318,0,0,1,.027-.131.334.334,0,0,1,.072-.107.338.338,0,0,1,.107-.073.337.337,0,0,1,.262,0,.338.338,0,0,1,.107.073.343.343,0,0,1,.072.107.331.331,0,0,1,0,.261.35.35,0,0,1-.072.108.355.355,0,0,1-.107.073.34.34,0,0,1-.262,0,.356.356,0,0,1-.107-.073.34.34,0,0,1-.072-.108.319.319,0,0,1-.027-.13m.638,2.346h-.6v-1.7h.6Z" transform="translate(-419.32 -2807.347)"/>
  <path id="패스_19142" data-name="패스 19142" d="M504.012,2896.677v1.58a1.735,1.735,0,0,1-.017.255,1.109,1.109,0,0,1-.046.2.63.63,0,0,1-.124.2.855.855,0,0,1-.2.164,1.091,1.091,0,0,1-.27.109,1.356,1.356,0,0,1-.689-.01.984.984,0,0,1-.289-.137.794.794,0,0,1-.2-.2.688.688,0,0,1-.106-.256h.674a.269.269,0,0,0,.285.169.381.381,0,0,0,.289-.106.407.407,0,0,0,.1-.294v-.162a.94.94,0,0,1-.127.1.7.7,0,0,1-.124.068.6.6,0,0,1-.132.038,1,1,0,0,1-.152.011.859.859,0,0,1-.334-.063.78.78,0,0,1-.263-.175.791.791,0,0,1-.172-.27.95.95,0,0,1-.061-.349.979.979,0,0,1,.066-.362.943.943,0,0,1,.18-.291.827.827,0,0,1,.613-.266.657.657,0,0,1,.505.225v-.178Zm-1.342.839a.4.4,0,0,0,.029.154.4.4,0,0,0,.081.124.365.365,0,0,0,.122.083.4.4,0,0,0,.154.03.384.384,0,0,0,.15-.03.369.369,0,0,0,.123-.083.424.424,0,0,0,.082-.124.371.371,0,0,0,.031-.15.364.364,0,0,0-.031-.152.408.408,0,0,0-.084-.122.375.375,0,0,0-.124-.083.383.383,0,0,0-.147-.03.36.36,0,0,0-.148.031.429.429,0,0,0-.122.083.386.386,0,0,0-.084.121.347.347,0,0,0-.031.148" transform="translate(-424.672 -2812.481)"/>
  <path id="패스_19143" data-name="패스 19143" d="M517.338,2890.171h.6v1.262a.656.656,0,0,1,.247-.2.778.778,0,0,1,.294-.051.627.627,0,0,1,.484.177.675.675,0,0,1,.164.478v1.078h-.6v-.856a.88.88,0,0,0-.02-.208.243.243,0,0,0-.066-.122.28.28,0,0,0-.192-.07.3.3,0,0,0-.233.091.378.378,0,0,0-.081.26v.906h-.6Z" transform="translate(-437.591 -2807.023)"/>
  <path id="패스_19144" data-name="패스 19144" d="M531.463,2894.654v1.2h-.6v-1.2h-.2v-.5h.2v-.509h.6v.509h.341v.5Z" transform="translate(-448.854 -2809.959)"/>
  <path id="패스_19145" data-name="패스 19145" d="M321.455,2922.233h.6v1.7h-.6v-.188a.629.629,0,0,1-.519.241.846.846,0,0,1-.34-.068.826.826,0,0,1-.271-.19.877.877,0,0,1-.18-.288.976.976,0,0,1-.065-.36.954.954,0,0,1,.063-.345.882.882,0,0,1,.175-.286.814.814,0,0,1,.611-.265.691.691,0,0,1,.526.221Zm-.754.843a.395.395,0,0,0,.111.278.368.368,0,0,0,.122.083.4.4,0,0,0,.154.03.387.387,0,0,0,.15-.03.371.371,0,0,0,.122-.083.433.433,0,0,0,.083-.122.36.36,0,0,0,.031-.149.369.369,0,0,0-.031-.15.422.422,0,0,0-.083-.124.367.367,0,0,0-.122-.082.383.383,0,0,0-.15-.03.391.391,0,0,0-.154.03.364.364,0,0,0-.122.082.413.413,0,0,0-.081.121.363.363,0,0,0-.03.147" transform="translate(-270.906 -2834.071)"/>
  <path id="패스_19146" data-name="패스 19146" d="M335.455,2922.324h.6v.214a.652.652,0,0,1,.248-.2.765.765,0,0,1,.294-.052.743.743,0,0,1,.306.058.614.614,0,0,1,.217.164.471.471,0,0,1,.1.191,1.008,1.008,0,0,1,.027.241v1.078h-.6v-.856a.929.929,0,0,0-.018-.2.252.252,0,0,0-.065-.124.233.233,0,0,0-.089-.056.326.326,0,0,0-.106-.017.3.3,0,0,0-.233.091.377.377,0,0,0-.081.259v.906h-.6Z" transform="translate(-283.898 -2834.161)"/>
  <path id="패스_19147" data-name="패스 19147" d="M350.563,2915.763h.6v2.743h-.6v-.189a.628.628,0,0,1-.519.242.819.819,0,0,1-.34-.07.834.834,0,0,1-.271-.192.865.865,0,0,1-.18-.287,1.013,1.013,0,0,1,0-.7.861.861,0,0,1,.174-.286.824.824,0,0,1,.269-.194.832.832,0,0,1,.345-.071.691.691,0,0,1,.526.221Zm-.754,1.891a.395.395,0,0,0,.111.278.363.363,0,0,0,.122.083.4.4,0,0,0,.154.029.386.386,0,0,0,.15-.029.367.367,0,0,0,.122-.083.432.432,0,0,0,.083-.122.361.361,0,0,0,.031-.149.371.371,0,0,0-.031-.15.422.422,0,0,0-.083-.124.366.366,0,0,0-.122-.082.392.392,0,0,0-.3,0,.369.369,0,0,0-.122.082.444.444,0,0,0-.083.121.347.347,0,0,0-.031.147" transform="translate(-295.503 -2828.649)"/>
  <path id="패스_19148" data-name="패스 19148" d="M371.844,2917.93v1.944H371.2v-1.944h-.532v-.549h1.712v.549Z" transform="translate(-313.65 -2830.017)"/>
  <path id="패스_19149" data-name="패스 19149" d="M383.2,2915.763h.6v1.263a.653.653,0,0,1,.248-.2.775.775,0,0,1,.294-.051.628.628,0,0,1,.484.177.676.676,0,0,1,.164.478v1.077h-.6v-.856a.888.888,0,0,0-.02-.208.241.241,0,0,0-.066-.122.28.28,0,0,0-.192-.069.3.3,0,0,0-.233.091.378.378,0,0,0-.081.26v.906h-.6Z" transform="translate(-324.246 -2828.649)"/>
  <path id="패스_19150" data-name="패스 19150" d="M397.541,2923.129q0,.387.364.386a.325.325,0,0,0,.294-.158h.578a.808.808,0,0,1-.876.582,1.139,1.139,0,0,1-.393-.064.877.877,0,0,1-.306-.183.819.819,0,0,1-.2-.284.947.947,0,0,1-.069-.37,1.053,1.053,0,0,1,.066-.382.806.806,0,0,1,.188-.289.844.844,0,0,1,.3-.183,1.119,1.119,0,0,1,.392-.064,1.1,1.1,0,0,1,.387.064.792.792,0,0,1,.291.187.813.813,0,0,1,.182.3,1.184,1.184,0,0,1,.063.4v.063Zm.7-.347a.361.361,0,0,0-.122-.2.378.378,0,0,0-.451,0,.329.329,0,0,0-.111.2Z" transform="translate(-335.85 -2834.019)"/>
  <path id="패스_19151" data-name="패스 19151" d="M419,2919.441h-.925l-.149.433h-.691l.948-2.492h.707l.949,2.492h-.691Zm-.172-.492-.291-.83-.291.83Z" transform="translate(-353.006 -2830.016)"/>
  <path id="패스_19152" data-name="패스 19152" d="M435.49,2916.484a.32.32,0,0,1,.027-.131.339.339,0,0,1,.072-.107.35.35,0,0,1,.107-.073.34.34,0,0,1,.261,0,.343.343,0,0,1,.18.18.331.331,0,0,1,0,.261.341.341,0,0,1-.18.18.337.337,0,0,1-.261,0,.349.349,0,0,1-.107-.073.34.34,0,0,1-.072-.107.321.321,0,0,1-.027-.131m.638,2.347h-.6v-1.7h.6Z" transform="translate(-368.429 -2828.973)"/>
  <path id="패스_19153" data-name="패스 19153" d="M442.25,2922.324h.6v.277a.68.68,0,0,1,.234-.232.629.629,0,0,1,.324-.082h.051a.37.37,0,0,1,.065.007v.571a.569.569,0,0,0-.258-.06.383.383,0,0,0-.312.125.548.548,0,0,0-.1.362v.727h-.6Z" transform="translate(-374.141 -2834.161)"/>
  <path id="패스_19154" data-name="패스 19154" d="M460.54,2917.642a.783.783,0,0,0-.212-.127.556.556,0,0,0-.2-.042.334.334,0,0,0-.205.059.187.187,0,0,0-.079.156.154.154,0,0,0,.04.109.339.339,0,0,0,.1.074.9.9,0,0,0,.145.054c.054.016.107.032.161.05a1,1,0,0,1,.464.283.7.7,0,0,1,.147.461.886.886,0,0,1-.065.347.722.722,0,0,1-.188.266.857.857,0,0,1-.3.172,1.265,1.265,0,0,1-.408.062,1.5,1.5,0,0,1-.876-.281l.278-.522a1.125,1.125,0,0,0,.287.191.7.7,0,0,0,.281.063.336.336,0,0,0,.236-.073.223.223,0,0,0,.078-.165.228.228,0,0,0-.02-.1.212.212,0,0,0-.066-.076.526.526,0,0,0-.12-.064c-.05-.02-.11-.042-.18-.066s-.166-.056-.246-.088a.763.763,0,0,1-.215-.127.6.6,0,0,1-.152-.2.714.714,0,0,1-.058-.306.884.884,0,0,1,.061-.335.751.751,0,0,1,.172-.258.769.769,0,0,1,.271-.167,1.028,1.028,0,0,1,.359-.059,1.567,1.567,0,0,1,.386.051,1.691,1.691,0,0,1,.387.15Z" transform="translate(-388.345 -2829.639)"/>
  <path id="패스_19155" data-name="패스 19155" d="M472.768,2923.013a.823.823,0,0,1,.076-.352.86.86,0,0,1,.212-.284,1.011,1.011,0,0,1,.322-.19,1.164,1.164,0,0,1,.408-.069,1.179,1.179,0,0,1,.4.068,1,1,0,0,1,.324.188.847.847,0,0,1,.213.288.876.876,0,0,1,.076.368.862.862,0,0,1-.078.369.872.872,0,0,1-.213.288.969.969,0,0,1-.326.187,1.249,1.249,0,0,1-.412.066,1.193,1.193,0,0,1-.4-.066.933.933,0,0,1-.319-.189.869.869,0,0,1-.21-.292.918.918,0,0,1-.076-.379m.631.007a.387.387,0,0,0,.031.157.434.434,0,0,0,.083.124.371.371,0,0,0,.123.082.4.4,0,0,0,.3,0,.368.368,0,0,0,.122-.082.423.423,0,0,0,.083-.124.372.372,0,0,0,.031-.154.362.362,0,0,0-.031-.15.415.415,0,0,0-.083-.124.362.362,0,0,0-.122-.083.394.394,0,0,0-.3,0,.364.364,0,0,0-.123.083.437.437,0,0,0-.083.122.359.359,0,0,0-.031.149" transform="translate(-399.929 -2834.019)"/>
  <path id="패스_19156" data-name="패스 19156" d="M488.721,2922.522v.955a.3.3,0,1,0,.608,0v-.955h.6v1.071a.607.607,0,0,1-.226.516,1.413,1.413,0,0,1-1.352,0,.607.607,0,0,1-.226-.516v-1.071Z" transform="translate(-412.903 -2834.36)"/>
  <rect id="사각형_5645" data-name="사각형 5645" width="0.599" height="2.743" transform="translate(77.43 87.114)"/>
  <path id="패스_19157" data-name="패스 19157" d="M509.44,2922.617a.7.7,0,0,0-.324-.086.243.243,0,0,0-.134.033.1.1,0,0,0-.051.089.114.114,0,0,0,.008.048.081.081,0,0,0,.036.035.3.3,0,0,0,.083.03l.143.032a.687.687,0,0,1,.37.177.45.45,0,0,1,.122.326.589.589,0,0,1-.06.267.567.567,0,0,1-.165.2.777.777,0,0,1-.254.125,1.133,1.133,0,0,1-.327.045,1.329,1.329,0,0,1-.677-.2l.218-.423a.855.855,0,0,0,.476.172.238.238,0,0,0,.136-.037.109.109,0,0,0,.053-.093.15.15,0,0,0-.008-.054.089.089,0,0,0-.035-.04.264.264,0,0,0-.078-.033c-.034-.01-.079-.021-.134-.031a.766.766,0,0,1-.388-.167.413.413,0,0,1-.111-.305.6.6,0,0,1,.053-.257.537.537,0,0,1,.152-.193.709.709,0,0,1,.24-.122,1.06,1.06,0,0,1,.312-.043,1.418,1.418,0,0,1,.545.109Z" transform="translate(-429.878 -2834.019)"/>
  <path id="패스_19158" data-name="패스 19158" d="M332.756,2944.578H332.2l-.09.262h-.418l.575-1.51h.429l.575,1.51h-.419Zm-.1-.3-.176-.5-.176.5Z" transform="translate(-280.714 -2851.943)"/>
  <path id="패스_19159" data-name="패스 19159" d="M342.9,2946.323h.362v.168a.421.421,0,0,1,.142-.141.38.38,0,0,1,.2-.049h.031a.216.216,0,0,1,.039,0v.346a.342.342,0,0,0-.156-.036.235.235,0,0,0-.189.075.333.333,0,0,0-.063.219v.441H342.9Z" transform="translate(-290.189 -2854.454)"/>
  <path id="패스_19160" data-name="패스 19160" d="M348.921,2946.323h.362v.168a.421.421,0,0,1,.142-.141.38.38,0,0,1,.2-.049h.031a.219.219,0,0,1,.039,0v.346a.343.343,0,0,0-.156-.036.235.235,0,0,0-.189.075.333.333,0,0,0-.063.219v.441h-.362Z" transform="translate(-295.277 -2854.454)"/>
  <path id="패스_19161" data-name="패스 19161" d="M355.594,2946.269h.364v1.027h-.364v-.115a.379.379,0,0,1-.314.146.5.5,0,0,1-.206-.041.493.493,0,0,1-.164-.115.531.531,0,0,1-.109-.174.6.6,0,0,1-.039-.218.581.581,0,0,1,.038-.209.535.535,0,0,1,.106-.173.494.494,0,0,1,.37-.16.418.418,0,0,1,.318.134Zm-.456.511a.243.243,0,0,0,.018.093.231.231,0,0,0,.049.074.209.209,0,0,0,.074.051.24.24,0,0,0,.093.018.235.235,0,0,0,.091-.018.212.212,0,0,0,.074-.051.246.246,0,0,0,.05-.073.218.218,0,0,0,.019-.091.22.22,0,0,0-.019-.09.244.244,0,0,0-.05-.075.226.226,0,0,0-.074-.051.239.239,0,0,0-.091-.018.244.244,0,0,0-.093.018.222.222,0,0,0-.074.051.243.243,0,0,0-.049.073.225.225,0,0,0-.018.09" transform="translate(-300.212 -2854.4)"/>
  <path id="패스_19162" data-name="패스 19162" d="M364.074,2946.323h.362v.131a.4.4,0,0,1,.15-.121.469.469,0,0,1,.178-.031.452.452,0,0,1,.185.034.376.376,0,0,1,.131.1.291.291,0,0,1,.06.116.607.607,0,0,1,.016.146v.653h-.362v-.519a.549.549,0,0,0-.011-.123.155.155,0,0,0-.039-.075.142.142,0,0,0-.054-.033.2.2,0,0,0-.064-.01.181.181,0,0,0-.141.055.229.229,0,0,0-.049.157v.549h-.362Z" transform="translate(-308.081 -2854.454)"/>
  <path id="패스_19163" data-name="패스 19163" d="M373.585,2946.289v.958a1.058,1.058,0,0,1-.01.154.67.67,0,0,1-.028.121.386.386,0,0,1-.075.123.513.513,0,0,1-.123.1.66.66,0,0,1-.163.066.767.767,0,0,1-.2.024.758.758,0,0,1-.22-.03.58.58,0,0,1-.175-.083.481.481,0,0,1-.123-.124.411.411,0,0,1-.064-.155h.409a.163.163,0,0,0,.172.1.231.231,0,0,0,.175-.064.249.249,0,0,0,.061-.178v-.1a.566.566,0,0,1-.077.063.429.429,0,0,1-.075.041.378.378,0,0,1-.08.023.565.565,0,0,1-.092.007.523.523,0,0,1-.2-.038.465.465,0,0,1-.263-.269.58.58,0,0,1-.037-.211.6.6,0,0,1,.04-.22.574.574,0,0,1,.109-.176.5.5,0,0,1,.372-.161.4.4,0,0,1,.306.136v-.108Zm-.813.509a.238.238,0,0,0,.018.093.233.233,0,0,0,.049.075.218.218,0,0,0,.074.051.24.24,0,0,0,.093.018.235.235,0,0,0,.091-.018.224.224,0,0,0,.074-.051.251.251,0,0,0,.05-.075.227.227,0,0,0,0-.183.255.255,0,0,0-.051-.074.234.234,0,0,0-.075-.05.229.229,0,0,0-.089-.018.211.211,0,0,0-.09.019.253.253,0,0,0-.074.05.236.236,0,0,0-.051.073.215.215,0,0,0-.019.09" transform="translate(-315.113 -2854.42)"/>
  <path id="패스_19164" data-name="패스 19164" d="M381.922,2946.811c0,.156.074.234.22.234a.2.2,0,0,0,.178-.1h.35a.49.49,0,0,1-.531.353.7.7,0,0,1-.238-.039.538.538,0,0,1-.185-.111.5.5,0,0,1-.119-.173.572.572,0,0,1-.042-.224.64.64,0,0,1,.04-.231.49.49,0,0,1,.114-.176.511.511,0,0,1,.179-.111.687.687,0,0,1,.237-.039.673.673,0,0,1,.234.039.48.48,0,0,1,.176.114.486.486,0,0,1,.11.181.718.718,0,0,1,.038.241v.038Zm.424-.21a.217.217,0,0,0-.074-.122.229.229,0,0,0-.273,0,.2.2,0,0,0-.067.125Z" transform="translate(-322.854 -2854.367)"/>
  <path id="패스_19165" data-name="패스 19165" d="M390.748,2942.349h.364v1.662h-.364v-.114a.38.38,0,0,1-.314.146.5.5,0,0,1-.206-.042.507.507,0,0,1-.164-.116.537.537,0,0,1-.109-.174.589.589,0,0,1-.039-.216.6.6,0,0,1,.037-.21.534.534,0,0,1,.105-.173.494.494,0,0,1,.163-.117.5.5,0,0,1,.209-.043.418.418,0,0,1,.318.134Zm-.456,1.146a.243.243,0,0,0,.018.093.239.239,0,0,0,.049.075.21.21,0,0,0,.074.05.235.235,0,0,0,.093.018.23.23,0,0,0,.091-.018.214.214,0,0,0,.074-.05.261.261,0,0,0,.05-.074.218.218,0,0,0,.019-.091.225.225,0,0,0-.019-.091.246.246,0,0,0-.05-.075.223.223,0,0,0-.074-.051.241.241,0,0,0-.182,0,.222.222,0,0,0-.074.051.255.255,0,0,0-.05.073.21.21,0,0,0-.019.09" transform="translate(-329.917 -2851.114)"/>
  <path id="패스_19166" data-name="패스 19166" d="M404.2,2946.269h.364v1.027H404.2v-.115a.378.378,0,0,1-.314.146.5.5,0,0,1-.206-.041.493.493,0,0,1-.164-.115.531.531,0,0,1-.109-.174.6.6,0,0,1-.039-.218.58.58,0,0,1,.038-.209.531.531,0,0,1,.106-.173.494.494,0,0,1,.37-.16.417.417,0,0,1,.318.134Zm-.456.511a.242.242,0,0,0,.018.093.23.23,0,0,0,.049.074.208.208,0,0,0,.074.051.24.24,0,0,0,.093.018.235.235,0,0,0,.091-.018.21.21,0,0,0,.074-.051.232.232,0,0,0,.05-.073.225.225,0,0,0,0-.181.23.23,0,0,0-.05-.075.224.224,0,0,0-.074-.051.239.239,0,0,0-.091-.018.244.244,0,0,0-.093.018.222.222,0,0,0-.074.051.242.242,0,0,0-.049.073.224.224,0,0,0-.018.09" transform="translate(-341.282 -2854.4)"/>
  <path id="패스_19167" data-name="패스 19167" d="M412.678,2946.323h.362v.131a.4.4,0,0,1,.15-.121.469.469,0,0,1,.178-.031.452.452,0,0,1,.185.034.379.379,0,0,1,.131.1.291.291,0,0,1,.06.116.608.608,0,0,1,.016.146v.653H413.4v-.519a.561.561,0,0,0-.011-.123.154.154,0,0,0-.039-.075.144.144,0,0,0-.054-.033.2.2,0,0,0-.064-.01.18.18,0,0,0-.141.055.229.229,0,0,0-.049.157v.549h-.362Z" transform="translate(-349.152 -2854.454)"/>
  <path id="패스_19168" data-name="패스 19168" d="M421.829,2942.349h.364v1.662h-.364v-.114a.379.379,0,0,1-.314.146.5.5,0,0,1-.206-.042.508.508,0,0,1-.164-.116.536.536,0,0,1-.109-.174.611.611,0,0,1,0-.426.516.516,0,0,1,.105-.173.488.488,0,0,1,.163-.117.5.5,0,0,1,.209-.043.418.418,0,0,1,.318.134Zm-.456,1.146a.243.243,0,0,0,.018.093.238.238,0,0,0,.049.075.217.217,0,0,0,.074.05.234.234,0,0,0,.093.018.228.228,0,0,0,.091-.018.21.21,0,0,0,.074-.05.268.268,0,0,0,.05-.074.222.222,0,0,0,.019-.091.229.229,0,0,0-.019-.091.253.253,0,0,0-.05-.075.217.217,0,0,0-.074-.051.237.237,0,0,0-.091-.018.24.24,0,0,0-.091.018.218.218,0,0,0-.074.051.26.26,0,0,0-.05.073.208.208,0,0,0-.019.09" transform="translate(-356.181 -2851.114)"/>
  <path id="패스_19169" data-name="패스 19169" d="M435.639,2943.606a.42.42,0,0,0-.336-.166.407.407,0,0,0-.163.032.383.383,0,0,0-.129.087.394.394,0,0,0-.085.131.456.456,0,0,0,0,.331.4.4,0,0,0,.086.132.408.408,0,0,0,.129.088.4.4,0,0,0,.16.032.456.456,0,0,0,.339-.16v.464l-.04.014a1.234,1.234,0,0,1-.168.047.829.829,0,0,1-.154.015.788.788,0,0,1-.552-.225.823.823,0,0,1-.175-.254.773.773,0,0,1-.067-.322.762.762,0,0,1,.066-.319.786.786,0,0,1,.427-.415.785.785,0,0,1,.3-.059.814.814,0,0,1,.178.019,1.085,1.085,0,0,1,.183.059Z" transform="translate(-367.578 -2851.715)"/>
  <path id="패스_19170" data-name="패스 19170" d="M443.063,2946.741a.5.5,0,0,1,.046-.213.521.521,0,0,1,.128-.172.611.611,0,0,1,.2-.115.7.7,0,0,1,.247-.042.709.709,0,0,1,.245.041.616.616,0,0,1,.2.114.513.513,0,0,1,.13.174.537.537,0,0,1,.046.223.518.518,0,0,1-.176.4.575.575,0,0,1-.2.113.752.752,0,0,1-.249.04.717.717,0,0,1-.244-.04.563.563,0,0,1-.193-.114.536.536,0,0,1-.127-.177.562.562,0,0,1-.046-.229m.383,0a.239.239,0,0,0,.019.1.256.256,0,0,0,.05.075.214.214,0,0,0,.074.05.241.241,0,0,0,.091.018.237.237,0,0,0,.091-.018.214.214,0,0,0,.074-.05.258.258,0,0,0,.05-.075.236.236,0,0,0,.019-.093.228.228,0,0,0-.019-.091.266.266,0,0,0-.05-.075.22.22,0,0,0-.074-.05.232.232,0,0,0-.091-.018.236.236,0,0,0-.091.018.22.22,0,0,0-.074.05.26.26,0,0,0-.05.074.219.219,0,0,0-.019.09" transform="translate(-374.828 -2854.367)"/>
  <path id="패스_19171" data-name="패스 19171" d="M452.366,2946.323h.362v.131a.4.4,0,0,1,.15-.121.469.469,0,0,1,.178-.031.452.452,0,0,1,.185.034.379.379,0,0,1,.131.1.29.29,0,0,1,.06.116.6.6,0,0,1,.016.146v.653h-.362v-.519a.559.559,0,0,0-.011-.123.154.154,0,0,0-.039-.075.144.144,0,0,0-.054-.033.2.2,0,0,0-.064-.01.18.18,0,0,0-.141.055.229.229,0,0,0-.049.157v.549h-.362Z" transform="translate(-382.689 -2854.454)"/>
  <path id="패스_19172" data-name="패스 19172" d="M461.517,2942.349h.364v1.662h-.364v-.114a.379.379,0,0,1-.315.146A.494.494,0,0,1,461,2944a.509.509,0,0,1-.164-.116.537.537,0,0,1-.109-.174.611.611,0,0,1,0-.426.517.517,0,0,1,.105-.173.488.488,0,0,1,.163-.117.5.5,0,0,1,.209-.043.418.418,0,0,1,.318.134Zm-.456,1.146a.243.243,0,0,0,.018.093.239.239,0,0,0,.049.075.217.217,0,0,0,.074.05.234.234,0,0,0,.093.018.229.229,0,0,0,.091-.018.21.21,0,0,0,.074-.05.268.268,0,0,0,.05-.074.222.222,0,0,0,.019-.091.229.229,0,0,0-.019-.091.253.253,0,0,0-.05-.075.218.218,0,0,0-.074-.051.237.237,0,0,0-.091-.018.24.24,0,0,0-.091.018.219.219,0,0,0-.074.051.259.259,0,0,0-.05.073.207.207,0,0,0-.019.09" transform="translate(-389.718 -2851.114)"/>
  <path id="패스_19173" data-name="패스 19173" d="M470.362,2946.442v.579a.184.184,0,1,0,.368,0v-.579h.363v.649a.368.368,0,0,1-.137.313.856.856,0,0,1-.819,0,.367.367,0,0,1-.137-.312v-.649Z" transform="translate(-397.59 -2854.573)"/>
  <path id="패스_19174" data-name="패스 19174" d="M479.2,2946.6a.339.339,0,0,0-.19-.064.258.258,0,0,0-.1.018.238.238,0,0,0-.079.052.235.235,0,0,0-.053.078.252.252,0,0,0-.019.1.248.248,0,0,0,.019.1.242.242,0,0,0,.052.078.231.231,0,0,0,.079.051.269.269,0,0,0,.1.018.3.3,0,0,0,.19-.07v.309a.646.646,0,0,1-.254.057.6.6,0,0,1-.213-.038.533.533,0,0,1-.3-.279.521.521,0,0,1-.046-.221.551.551,0,0,1,.044-.223.539.539,0,0,1,.12-.174.549.549,0,0,1,.181-.114.621.621,0,0,1,.225-.041.542.542,0,0,1,.244.055Z" transform="translate(-404.675 -2854.4)"/>
  <path id="패스_19175" data-name="패스 19175" d="M484.953,2945.065v.725h-.362v-.725h-.12v-.3h.12v-.308h.362v.308h.207v.3Z" transform="translate(-409.818 -2852.894)"/>
  <path id="패스_19176" data-name="패스 19176" d="M490.029,2946.811c0,.156.073.234.22.234a.2.2,0,0,0,.178-.1h.35a.49.49,0,0,1-.531.353.7.7,0,0,1-.238-.039.532.532,0,0,1-.185-.111.488.488,0,0,1-.119-.173.568.568,0,0,1-.042-.224.634.634,0,0,1,.04-.231.492.492,0,0,1,.114-.176.513.513,0,0,1,.179-.111.688.688,0,0,1,.237-.039.672.672,0,0,1,.234.039.479.479,0,0,1,.176.114.493.493,0,0,1,.11.181.722.722,0,0,1,.038.241v.038Zm.425-.21a.218.218,0,0,0-.074-.122.23.23,0,0,0-.273,0,.2.2,0,0,0-.067.125Z" transform="translate(-414.205 -2854.367)"/>
  <path id="패스_19177" data-name="패스 19177" d="M498.855,2942.349h.364v1.662h-.364v-.114a.38.38,0,0,1-.315.146.5.5,0,0,1-.206-.042.508.508,0,0,1-.164-.116.536.536,0,0,1-.109-.174.611.611,0,0,1,0-.426.516.516,0,0,1,.105-.173.487.487,0,0,1,.163-.117.5.5,0,0,1,.209-.043.418.418,0,0,1,.319.134Zm-.456,1.146a.238.238,0,0,0,.067.168.217.217,0,0,0,.074.05.234.234,0,0,0,.093.018.229.229,0,0,0,.091-.018.21.21,0,0,0,.074-.05.27.27,0,0,0,.05-.074.223.223,0,0,0,.019-.091.23.23,0,0,0-.019-.091.254.254,0,0,0-.05-.075.218.218,0,0,0-.074-.051.237.237,0,0,0-.091-.018.24.24,0,0,0-.091.018.219.219,0,0,0-.074.051.259.259,0,0,0-.05.073.207.207,0,0,0-.019.09" transform="translate(-421.269 -2851.114)"/>
  <path id="패스_19178" data-name="패스 19178" d="M378.131,2957.851v.737a.424.424,0,0,1,.32-.134.5.5,0,0,1,.209.043.489.489,0,0,1,.162.116.535.535,0,0,1,.105.172.608.608,0,0,1,0,.425.526.526,0,0,1-.109.174.514.514,0,0,1-.165.117.5.5,0,0,1-.205.043.382.382,0,0,1-.317-.146v.114h-.362v-1.662Zm.457,1.151a.233.233,0,0,0-.018-.091.238.238,0,0,0-.05-.075.247.247,0,0,0-.074-.051.233.233,0,0,0-.182,0,.224.224,0,0,0-.073.05.246.246,0,0,0-.05.075.215.215,0,0,0-.019.091.228.228,0,0,0,.018.09.223.223,0,0,0,.05.073.265.265,0,0,0,.075.051.235.235,0,0,0,.091.019.228.228,0,0,0,.09-.018.216.216,0,0,0,.073-.05.256.256,0,0,0,.05-.074.215.215,0,0,0,.019-.088" transform="translate(-319.654 -2864.214)"/>
  <path id="패스_19179" data-name="패스 19179" d="M386.173,2962.833l-.5-.887h.42l.274.527.266-.527h.417l-.825,1.54h-.406Z" transform="translate(-326.336 -2867.674)"/>
  <path id="패스_19180" data-name="패스 19180" d="M399.978,2960.344v-1.51h.392l.725.923v-.923h.391v1.51H401.1l-.725-.923v.923Z" transform="translate(-338.42 -2865.044)"/>
  <rect id="사각형_5646" data-name="사각형 5646" width="0.392" height="1.51" transform="translate(63.381 93.79)"/>
  <path id="패스_19181" data-name="패스 19181" d="M416.712,2959.456l.479-.622h.485l-.6.714.655.8h-.509l-.511-.655v.655h-.392v-1.51h.392Z" transform="translate(-352.23 -2865.044)"/>
  <path id="패스_19182" data-name="패스 19182" d="M427.41,2959.166h-.467v.252h.441v.333h-.441v.26h.467v.332h-.859v-1.509h.859Z" transform="translate(-360.875 -2865.044)"/>
  <path id="패스_19183" data-name="패스 19183" d="M433.475,2966.436h.341l-.368.663h-.232Z" transform="translate(-366.506 -2871.468)"/>
  <rect id="사각형_5647" data-name="사각형 5647" width="0.392" height="1.51" transform="translate(68.179 93.79)"/>
  <path id="패스_19184" data-name="패스 19184" d="M447.056,2961.827h.362v.131a.393.393,0,0,1,.15-.122.469.469,0,0,1,.178-.031.456.456,0,0,1,.185.034.379.379,0,0,1,.131.1.289.289,0,0,1,.06.116.609.609,0,0,1,.016.146v.653h-.362v-.519a.565.565,0,0,0-.011-.124.153.153,0,0,0-.039-.075.145.145,0,0,0-.054-.034.2.2,0,0,0-.064-.01.179.179,0,0,0-.141.055.227.227,0,0,0-.049.157v.549h-.362Z" transform="translate(-378.202 -2867.555)"/>
  <path id="패스_19185" data-name="패스 19185" d="M456.189,2962.1a.338.338,0,0,0-.191-.064.263.263,0,0,0-.1.018.237.237,0,0,0-.132.129.254.254,0,0,0,.052.278.223.223,0,0,0,.079.051.274.274,0,0,0,.1.018.3.3,0,0,0,.191-.07v.308a.648.648,0,0,1-.255.058.6.6,0,0,1-.213-.038.55.55,0,0,1-.178-.109.542.542,0,0,1-.123-.17.521.521,0,0,1-.046-.221.531.531,0,0,1,.345-.511.616.616,0,0,1,.225-.041.54.54,0,0,1,.244.056Z" transform="translate(-385.231 -2867.5)"/>
  <path id="패스_19186" data-name="패스 19186" d="M528.091,2796.725h-.461l-.353-.548v.548h-.37V2795.3h.576a.568.568,0,0,1,.208.035.391.391,0,0,1,.233.235.494.494,0,0,1,.029.17.417.417,0,0,1-.078.263.394.394,0,0,1-.231.137Zm-.814-.787h.07a.272.272,0,0,0,.168-.045.175.175,0,0,0,0-.261.272.272,0,0,0-.168-.045h-.07Z" transform="translate(-445.677 -2726.857)"/>
  <path id="패스_19187" data-name="패스 19187" d="M535.174,2798.584q0,.221.208.221a.186.186,0,0,0,.168-.091h.331a.462.462,0,0,1-.5.332.661.661,0,0,1-.225-.037.493.493,0,0,1-.175-.1.465.465,0,0,1-.112-.163.541.541,0,0,1-.04-.211.6.6,0,0,1,.038-.219.452.452,0,0,1,.108-.166.474.474,0,0,1,.169-.1.644.644,0,0,1,.224-.037.627.627,0,0,1,.221.037.443.443,0,0,1,.166.106.465.465,0,0,1,.1.171.683.683,0,0,1,.036.227v.036Zm.4-.2a.208.208,0,0,0-.07-.115.2.2,0,0,0-.128-.043.2.2,0,0,0-.129.041.188.188,0,0,0-.063.117Z" transform="translate(-452.371 -2729.143)"/>
  <path id="패스_19188" data-name="패스 19188" d="M543.571,2798.385a.313.313,0,0,0-.179-.061.248.248,0,0,0-.092.017.23.23,0,0,0-.074.048.214.214,0,0,0-.051.074.242.242,0,0,0-.017.1.231.231,0,0,0,.066.167.216.216,0,0,0,.075.048.246.246,0,0,0,.093.017.28.28,0,0,0,.179-.066v.291a.6.6,0,0,1-.24.055.567.567,0,0,1-.2-.036.515.515,0,0,1-.168-.1.5.5,0,0,1-.116-.16.492.492,0,0,1-.043-.208.52.52,0,0,1,.042-.21.493.493,0,0,1,.113-.164.513.513,0,0,1,.171-.108.584.584,0,0,1,.212-.038.5.5,0,0,1,.231.053Z" transform="translate(-459.109 -2729.172)"/>
  <path id="패스_19189" data-name="패스 19189" d="M548.766,2798.517a.472.472,0,0,1,.043-.2.5.5,0,0,1,.121-.163.572.572,0,0,1,.184-.108.7.7,0,0,1,.464,0,.586.586,0,0,1,.185.107.492.492,0,0,1,.122.165.5.5,0,0,1,.043.21.492.492,0,0,1-.166.375.545.545,0,0,1-.186.107.726.726,0,0,1-.235.038.689.689,0,0,1-.23-.038.531.531,0,0,1-.183-.108.5.5,0,0,1-.12-.167.525.525,0,0,1-.043-.217m.36,0a.219.219,0,0,0,.018.09.23.23,0,0,0,.047.071.2.2,0,0,0,.07.047.222.222,0,0,0,.172,0,.208.208,0,0,0,.07-.047.235.235,0,0,0,.047-.071.219.219,0,0,0,0-.174.254.254,0,0,0-.047-.071.2.2,0,0,0-.07-.047.225.225,0,0,0-.172,0,.2.2,0,0,0-.07.047.25.25,0,0,0-.047.07.2.2,0,0,0-.018.085" transform="translate(-464.148 -2729.141)"/>
  <path id="패스_19190" data-name="패스 19190" d="M557.429,2798.124h.342v.158a.391.391,0,0,1,.134-.133.358.358,0,0,1,.185-.046h.029a.2.2,0,0,1,.037,0v.326a.328.328,0,0,0-.148-.034.22.22,0,0,0-.179.071.314.314,0,0,0-.059.207v.416h-.342Z" transform="translate(-471.469 -2729.225)"/>
  <path id="패스_19191" data-name="패스 19191" d="M563.615,2794.372h.343v1.568h-.343v-.108a.358.358,0,0,1-.3.138.477.477,0,0,1-.195-.04.491.491,0,0,1-.155-.11.5.5,0,0,1-.1-.164.58.58,0,0,1,0-.4.492.492,0,0,1,.1-.163.469.469,0,0,1,.351-.151.4.4,0,0,1,.3.126Zm-.431,1.081a.223.223,0,0,0,.017.088.227.227,0,0,0,.046.07.207.207,0,0,0,.07.048.227.227,0,0,0,.088.017.222.222,0,0,0,.086-.017.206.206,0,0,0,.07-.048.235.235,0,0,0,.047-.069.206.206,0,0,0,.018-.085.212.212,0,0,0-.018-.086.242.242,0,0,0-.047-.071.215.215,0,0,0-.07-.047.225.225,0,0,0-.172,0,.218.218,0,0,0-.07.047.259.259,0,0,0-.047.069.2.2,0,0,0-.018.084" transform="translate(-476.032 -2726.072)"/>
  <path id="패스_19192" data-name="패스 19192" d="M571.306,2798.584q0,.221.207.221a.187.187,0,0,0,.168-.091h.331a.462.462,0,0,1-.5.332.659.659,0,0,1-.225-.037.491.491,0,0,1-.175-.1.467.467,0,0,1-.113-.163.543.543,0,0,1-.04-.211.6.6,0,0,1,.038-.219.461.461,0,0,1,.107-.166.48.48,0,0,1,.169-.1.642.642,0,0,1,.224-.037.629.629,0,0,1,.221.037.441.441,0,0,1,.166.106.467.467,0,0,1,.1.171.678.678,0,0,1,.036.227v.036Zm.4-.2a.207.207,0,0,0-.07-.115.218.218,0,0,0-.258,0,.189.189,0,0,0-.063.117Z" transform="translate(-482.902 -2729.143)"/>
  <path id="패스_19193" data-name="패스 19193" d="M579.521,2794.372h.343v1.568h-.343v-.108a.359.359,0,0,1-.3.138.477.477,0,0,1-.195-.04.49.49,0,0,1-.155-.11.5.5,0,0,1-.1-.164.579.579,0,0,1,0-.4.492.492,0,0,1,.1-.163.469.469,0,0,1,.351-.151.4.4,0,0,1,.3.126Zm-.431,1.081a.222.222,0,0,0,.017.088.225.225,0,0,0,.046.07.206.206,0,0,0,.07.048.227.227,0,0,0,.088.017.223.223,0,0,0,.086-.017.206.206,0,0,0,.07-.048.236.236,0,0,0,.047-.069.206.206,0,0,0,.018-.085.212.212,0,0,0-.018-.086.243.243,0,0,0-.047-.071.216.216,0,0,0-.07-.047.225.225,0,0,0-.172,0,.217.217,0,0,0-.07.047.256.256,0,0,0-.047.069.2.2,0,0,0-.018.084" transform="translate(-489.472 -2726.072)"/>
  <path id="패스_19194" data-name="패스 19194" d="M506.508,2812.694h.344v.969h-.344v-.108a.359.359,0,0,1-.3.138.482.482,0,0,1-.195-.039.469.469,0,0,1-.155-.109.505.505,0,0,1-.1-.164.564.564,0,0,1-.037-.206.546.546,0,0,1,.036-.2.5.5,0,0,1,.1-.163.461.461,0,0,1,.349-.151.4.4,0,0,1,.3.127Zm-.431.481a.226.226,0,0,0,.017.088.221.221,0,0,0,.046.07.209.209,0,0,0,.07.048.236.236,0,0,0,.088.017.23.23,0,0,0,.086-.017.212.212,0,0,0,.07-.048.243.243,0,0,0,.047-.069.206.206,0,0,0,.018-.085.212.212,0,0,0-.018-.086.255.255,0,0,0-.047-.071.221.221,0,0,0-.156-.064.218.218,0,0,0-.088.017.21.21,0,0,0-.07.047.242.242,0,0,0-.046.07.205.205,0,0,0-.017.084" transform="translate(-427.776 -2741.529)"/>
  <path id="패스_19195" data-name="패스 19195" d="M514.1,2812.747h.342v.123a.375.375,0,0,1,.141-.114.454.454,0,0,1,.168-.029.432.432,0,0,1,.175.032.357.357,0,0,1,.124.094.268.268,0,0,1,.057.11.566.566,0,0,1,.015.138v.616h-.342v-.489a.53.53,0,0,0-.01-.116.143.143,0,0,0-.037-.071.132.132,0,0,0-.051-.032.188.188,0,0,0-.06-.009.17.17,0,0,0-.133.052.214.214,0,0,0-.046.148v.518H514.1Z" transform="translate(-434.854 -2741.581)"/>
  <path id="패스_19196" data-name="패스 19196" d="M522.424,2809h.344v1.568h-.344v-.108a.359.359,0,0,1-.3.138.474.474,0,0,1-.195-.04.487.487,0,0,1-.155-.11.5.5,0,0,1-.1-.164.578.578,0,0,1,0-.4.494.494,0,0,1,.1-.163.474.474,0,0,1,.154-.111.485.485,0,0,1,.2-.04.4.4,0,0,1,.3.127Zm-.431,1.08a.224.224,0,0,0,.063.159.208.208,0,0,0,.07.048.236.236,0,0,0,.088.017.23.23,0,0,0,.086-.017.21.21,0,0,0,.07-.048.24.24,0,0,0,.047-.07.205.205,0,0,0,.018-.085.212.212,0,0,0-.018-.086.247.247,0,0,0-.047-.071.222.222,0,0,0-.156-.064.21.21,0,0,0-.086.017.207.207,0,0,0-.07.047.255.255,0,0,0-.047.069.2.2,0,0,0-.018.084" transform="translate(-441.225 -2738.428)"/>
  <path id="패스_19197" data-name="패스 19197" d="M533.925,2811.347h-.37v-1.424h.589a.5.5,0,0,1,.367.125.548.548,0,0,1,0,.7.5.5,0,0,1-.367.125h-.219Zm0-.771h.123q.2,0,.2-.177t-.2-.178h-.123Z" transform="translate(-451.295 -2739.213)"/>
  <path id="패스_19198" data-name="패스 19198" d="M541.5,2812.747h.342v.159a.392.392,0,0,1,.134-.133.36.36,0,0,1,.185-.046h.03a.2.2,0,0,1,.037,0v.326a.331.331,0,0,0-.148-.034.22.22,0,0,0-.178.071.316.316,0,0,0-.06.207v.416H541.5Z" transform="translate(-458.009 -2741.581)"/>
  <path id="패스_19199" data-name="패스 19199" d="M546.774,2813.14a.47.47,0,0,1,.043-.2.5.5,0,0,1,.121-.163.575.575,0,0,1,.184-.108.71.71,0,0,1,.464,0,.582.582,0,0,1,.185.107.485.485,0,0,1,.122.165.5.5,0,0,1,.043.21.491.491,0,0,1-.166.375.545.545,0,0,1-.186.107.712.712,0,0,1-.235.038.678.678,0,0,1-.23-.038.533.533,0,0,1-.183-.108.505.505,0,0,1-.12-.167.525.525,0,0,1-.043-.216m.361,0a.22.22,0,0,0,.018.09.237.237,0,0,0,.047.071.211.211,0,0,0,.07.047.224.224,0,0,0,.172,0,.219.219,0,0,0,.07-.047.244.244,0,0,0,.047-.071.215.215,0,0,0,.018-.088.211.211,0,0,0-.018-.086.242.242,0,0,0-.047-.071.2.2,0,0,0-.07-.047.227.227,0,0,0-.172,0,.2.2,0,0,0-.07.047.237.237,0,0,0-.047.07.2.2,0,0,0-.018.085" transform="translate(-462.465 -2741.498)"/>
  <path id="패스_19200" data-name="패스 19200" d="M555.683,2809h.343v1.568h-.343v-.108a.359.359,0,0,1-.3.138.473.473,0,0,1-.195-.04.49.49,0,0,1-.155-.11.5.5,0,0,1-.1-.164.579.579,0,0,1,0-.4.491.491,0,0,1,.1-.163.475.475,0,0,1,.154-.111.482.482,0,0,1,.2-.04.4.4,0,0,1,.3.127Zm-.431,1.08a.221.221,0,0,0,.017.088.226.226,0,0,0,.046.071.213.213,0,0,0,.07.048.236.236,0,0,0,.088.017.233.233,0,0,0,.086-.017.214.214,0,0,0,.07-.048.233.233,0,0,0,.047-.07.205.205,0,0,0,.018-.085.212.212,0,0,0-.018-.086.24.24,0,0,0-.047-.071.222.222,0,0,0-.242-.047.214.214,0,0,0-.07.047.258.258,0,0,0-.047.069.2.2,0,0,0-.018.084" transform="translate(-469.329 -2738.428)"/>
  <path id="패스_19201" data-name="패스 19201" d="M563.714,2812.86v.545a.174.174,0,1,0,.347,0v-.545h.342v.612a.347.347,0,0,1-.129.294.809.809,0,0,1-.773,0,.345.345,0,0,1-.13-.294v-.612Z" transform="translate(-476.491 -2741.695)"/>
  <path id="패스_19202" data-name="패스 19202" d="M571.64,2813.008a.314.314,0,0,0-.179-.06.252.252,0,0,0-.092.017.236.236,0,0,0-.074.048.222.222,0,0,0-.05.074.242.242,0,0,0-.018.1.238.238,0,0,0,.018.093.231.231,0,0,0,.049.074.22.22,0,0,0,.075.048.249.249,0,0,0,.093.017.283.283,0,0,0,.179-.066v.291a.606.606,0,0,1-.24.055.56.56,0,0,1-.2-.036.507.507,0,0,1-.168-.1.5.5,0,0,1-.116-.16.49.49,0,0,1-.043-.208.522.522,0,0,1,.041-.211.5.5,0,0,1,.113-.164.511.511,0,0,1,.171-.108.581.581,0,0,1,.212-.039.506.506,0,0,1,.231.053Z" transform="translate(-482.827 -2741.529)"/>
  <path id="패스_19203" data-name="패스 19203" d="M576.981,2813.206q0,.221.207.221a.186.186,0,0,0,.168-.091h.331a.462.462,0,0,1-.5.333.66.66,0,0,1-.225-.037.5.5,0,0,1-.175-.1.477.477,0,0,1-.113-.163.542.542,0,0,1-.04-.211.594.594,0,0,1,.038-.218.453.453,0,0,1,.107-.165.474.474,0,0,1,.169-.1.642.642,0,0,1,.224-.037.63.63,0,0,1,.221.037.442.442,0,0,1,.166.106.467.467,0,0,1,.1.171.677.677,0,0,1,.036.227v.036Zm.4-.2a.205.205,0,0,0-.07-.115.217.217,0,0,0-.258,0,.189.189,0,0,0-.063.117Z" transform="translate(-487.698 -2741.498)"/>
  <path id="패스_19204" data-name="패스 19204" d="M585.095,2809h.344v1.568h-.344v-.108a.359.359,0,0,1-.3.138.473.473,0,0,1-.195-.04.49.49,0,0,1-.155-.11.505.505,0,0,1-.1-.164.579.579,0,0,1,0-.4.488.488,0,0,1,.1-.163.477.477,0,0,1,.154-.111.482.482,0,0,1,.2-.04.394.394,0,0,1,.3.127Zm-.431,1.08a.224.224,0,0,0,.017.088.232.232,0,0,0,.046.071.215.215,0,0,0,.07.048.236.236,0,0,0,.088.017.233.233,0,0,0,.086-.017.212.212,0,0,0,.07-.048.231.231,0,0,0,.047-.07.205.205,0,0,0,.018-.085.212.212,0,0,0-.018-.086.238.238,0,0,0-.047-.071.221.221,0,0,0-.242-.047.213.213,0,0,0-.07.047.259.259,0,0,0-.047.069.2.2,0,0,0-.018.084" transform="translate(-494.183 -2738.428)"/>
  <path id="패스_19205" data-name="패스 19205" d="M596.573,2809.408a.186.186,0,0,1,.015-.075.184.184,0,0,1,.042-.061.2.2,0,0,1,.061-.042.188.188,0,0,1,.149,0,.206.206,0,0,1,.062.042.2.2,0,0,1,.041.061.2.2,0,0,1,0,.15.192.192,0,0,1-.1.1.188.188,0,0,1-.149,0,.187.187,0,0,1-.061-.041.183.183,0,0,1-.042-.061.188.188,0,0,1-.015-.075m.364,1.341H596.6v-.969h.342Z" transform="translate(-504.546 -2738.614)"/>
  <path id="패스_19206" data-name="패스 19206" d="M600.228,2812.747h.342v.123a.376.376,0,0,1,.142-.114.45.45,0,0,1,.168-.029.432.432,0,0,1,.175.032.354.354,0,0,1,.124.094.271.271,0,0,1,.057.11.569.569,0,0,1,.015.138v.616h-.342v-.489a.526.526,0,0,0-.01-.116.144.144,0,0,0-.037-.071.136.136,0,0,0-.051-.032.19.19,0,0,0-.061-.009.169.169,0,0,0-.133.052.215.215,0,0,0-.047.148v.518h-.342Z" transform="translate(-507.634 -2741.581)"/>
  <path id="패스_19207" data-name="패스 19207" d="M511.454,2824.546h.551a.427.427,0,0,1,.3.094.355.355,0,0,1,.1.272.369.369,0,0,1-.039.178.326.326,0,0,1-.118.12.447.447,0,0,1,.135.046.288.288,0,0,1,.091.077.282.282,0,0,1,.05.1.465.465,0,0,1,.015.121.427.427,0,0,1-.035.177.367.367,0,0,1-.1.131.43.43,0,0,1-.154.079.728.728,0,0,1-.2.026h-.595Zm.37.559h.068q.174,0,.174-.138t-.174-.138h-.068Zm0,.578h.081a.418.418,0,0,0,.2-.035.14.14,0,0,0,0-.231.411.411,0,0,0-.2-.036h-.081Z" transform="translate(-432.619 -2751.569)"/>
  <path id="패스_19208" data-name="패스 19208" d="M519.572,2827.828c0,.147.069.222.208.222a.187.187,0,0,0,.168-.091h.331a.462.462,0,0,1-.5.332.667.667,0,0,1-.225-.037.5.5,0,0,1-.174-.1.462.462,0,0,1-.112-.162.538.538,0,0,1-.04-.211.6.6,0,0,1,.038-.218.458.458,0,0,1,.108-.166.477.477,0,0,1,.169-.1.649.649,0,0,1,.224-.037.635.635,0,0,1,.221.037.446.446,0,0,1,.166.106.461.461,0,0,1,.1.171.68.68,0,0,1,.036.227v.036Zm.4-.2a.2.2,0,0,0-.07-.115.218.218,0,0,0-.258,0,.188.188,0,0,0-.063.117Z" transform="translate(-439.187 -2753.854)"/>
  <path id="패스_19209" data-name="패스 19209" d="M527.588,2827.318h.344v.969h-.344v-.107a.359.359,0,0,1-.3.138.486.486,0,0,1-.195-.039.474.474,0,0,1-.155-.109.5.5,0,0,1-.1-.164.561.561,0,0,1-.037-.206.545.545,0,0,1,.036-.2.5.5,0,0,1,.1-.163.461.461,0,0,1,.349-.151.4.4,0,0,1,.3.127Zm-.431.481a.224.224,0,0,0,.017.088.219.219,0,0,0,.046.071.209.209,0,0,0,.07.048.231.231,0,0,0,.088.017.226.226,0,0,0,.086-.017.212.212,0,0,0,.07-.048.239.239,0,0,0,.047-.069.207.207,0,0,0,.018-.085.21.21,0,0,0-.018-.086.238.238,0,0,0-.047-.071.21.21,0,0,0-.07-.047.213.213,0,0,0-.086-.017.218.218,0,0,0-.088.017.207.207,0,0,0-.07.047.227.227,0,0,0-.046.069.205.205,0,0,0-.017.084" transform="translate(-445.589 -2753.885)"/>
  <path id="패스_19210" data-name="패스 19210" d="M535.029,2827.483l.231.5.234-.5h.382l-.5.969h-.228l-.5-.969Z" transform="translate(-452.214 -2754.051)"/>
  <path id="패스_19211" data-name="패스 19211" d="M542.745,2827.828c0,.147.069.222.208.222a.187.187,0,0,0,.168-.091h.331a.462.462,0,0,1-.5.332.669.669,0,0,1-.225-.037.5.5,0,0,1-.174-.1.461.461,0,0,1-.113-.162.539.539,0,0,1-.04-.211.6.6,0,0,1,.038-.218.459.459,0,0,1,.108-.166.479.479,0,0,1,.169-.1.648.648,0,0,1,.224-.037.636.636,0,0,1,.221.037.445.445,0,0,1,.166.106.467.467,0,0,1,.1.171.676.676,0,0,1,.036.227v.036Zm.4-.2a.206.206,0,0,0-.07-.115.219.219,0,0,0-.258,0,.188.188,0,0,0-.063.117Z" transform="translate(-458.768 -2753.854)"/>
  <path id="패스_19212" data-name="패스 19212" d="M549.917,2827.37h.342v.159a.387.387,0,0,1,.134-.133.358.358,0,0,1,.185-.046h.029a.193.193,0,0,1,.037,0v.327a.324.324,0,0,0-.147-.034.221.221,0,0,0-.179.07.316.316,0,0,0-.059.208v.415h-.342Z" transform="translate(-465.121 -2753.938)"/>
  <path id="패스_19213" data-name="패스 19213" d="M555.7,2826.181v.684h-.342v-.684h-.113v-.285h.113v-.291h.342v.291h.194v.285Z" transform="translate(-469.621 -2752.464)"/>
  <path id="패스_19214" data-name="패스 19214" d="M559.92,2827.763a.471.471,0,0,1,.043-.2.493.493,0,0,1,.121-.162.569.569,0,0,1,.184-.109.672.672,0,0,1,.233-.04.66.66,0,0,1,.231.039.566.566,0,0,1,.185.107.488.488,0,0,1,.122.165.5.5,0,0,1,.043.21.491.491,0,0,1-.166.375.549.549,0,0,1-.186.107.725.725,0,0,1-.235.038.69.69,0,0,1-.23-.038.55.55,0,0,1-.183-.108.5.5,0,0,1-.12-.167.527.527,0,0,1-.043-.217m.361,0a.222.222,0,0,0,.018.09.239.239,0,0,0,.047.07.2.2,0,0,0,.07.047.219.219,0,0,0,.172,0,.212.212,0,0,0,.07-.047.245.245,0,0,0,.047-.07.217.217,0,0,0,.018-.088.212.212,0,0,0-.018-.086.241.241,0,0,0-.047-.071.212.212,0,0,0-.07-.047.225.225,0,0,0-.172,0,.2.2,0,0,0-.07.047.237.237,0,0,0-.047.07.2.2,0,0,0-.018.085" transform="translate(-473.574 -2753.855)"/>
  <path id="패스_19215" data-name="패스 19215" d="M568.084,2827.37h.342v.123a.374.374,0,0,1,.142-.115.446.446,0,0,1,.168-.029.432.432,0,0,1,.175.032.352.352,0,0,1,.124.094.274.274,0,0,1,.057.11.57.57,0,0,1,.015.138v.616h-.342v-.489a.522.522,0,0,0-.011-.116.144.144,0,0,0-.037-.071.13.13,0,0,0-.051-.032.178.178,0,0,0-.061-.009.168.168,0,0,0-.133.052.215.215,0,0,0-.047.148v.517h-.342Z" transform="translate(-480.472 -2753.938)"/>
  <path id="패스_19216" data-name="패스 19216" d="M575.052,2831.974h.321l-.348.625h-.219Z" transform="translate(-486.153 -2757.846)"/>
  <path id="패스_19217" data-name="패스 19217" d="M582.077,2825.043a.75.75,0,0,1,.059-.3.732.732,0,0,1,.411-.4.9.9,0,0,1,.635,0,.745.745,0,0,1,.25.159.728.728,0,0,1,.164.239.78.78,0,0,1,0,.591.725.725,0,0,1-.164.239.746.746,0,0,1-.25.16.9.9,0,0,1-.635,0,.74.74,0,0,1-.248-.16.732.732,0,0,1-.163-.239.75.75,0,0,1-.059-.3m.387,0a.373.373,0,0,0,.032.156.391.391,0,0,0,.087.125.378.378,0,0,0,.128.082.413.413,0,0,0,.436-.082.384.384,0,0,0,.088-.125.4.4,0,0,0,0-.313.386.386,0,0,0-.088-.125.416.416,0,0,0-.436-.083.394.394,0,0,0-.214.207.376.376,0,0,0-.032.157" transform="translate(-492.297 -2751.354)"/>
  <path id="패스_19218" data-name="패스 19218" d="M594.691,2825.97h-.461l-.353-.547v.547h-.37v-1.424h.576a.571.571,0,0,1,.208.035.391.391,0,0,1,.233.235.482.482,0,0,1,.03.17.418.418,0,0,1-.078.263.394.394,0,0,1-.232.137Zm-.814-.787h.07a.27.27,0,0,0,.168-.045.174.174,0,0,0,0-.261.27.27,0,0,0-.168-.045h-.07Z" transform="translate(-501.955 -2751.569)"/>
  <path id="패스_19219" data-name="패스 19219" d="M267.981,2830.76v1.345h.537v.379h-.985v-1.724Z" transform="translate(-226.503 -2756.82)"/>
  <path id="패스_19220" data-name="패스 19220" d="M275.447,2834.117h.416v1.172h-.416v-.13a.434.434,0,0,1-.359.167.577.577,0,0,1-.235-.047.562.562,0,0,1-.188-.131.6.6,0,0,1-.124-.2.673.673,0,0,1-.045-.249.666.666,0,0,1,.043-.239.624.624,0,0,1,.121-.2.58.58,0,0,1,.185-.134.569.569,0,0,1,.238-.049.478.478,0,0,1,.363.153Zm-.522.583a.27.27,0,0,0,.021.106.262.262,0,0,0,.056.086.253.253,0,0,0,.084.057.275.275,0,0,0,.107.021.266.266,0,0,0,.1-.021.258.258,0,0,0,.085-.057.3.3,0,0,0,.057-.084.25.25,0,0,0,.022-.1.26.26,0,0,0-.022-.1.3.3,0,0,0-.057-.086.262.262,0,0,0-.085-.057.27.27,0,0,0-.1-.02.279.279,0,0,0-.107.02.256.256,0,0,0-.084.057.281.281,0,0,0-.056.084.248.248,0,0,0-.021.1" transform="translate(-232.387 -2759.625)"/>
  <path id="패스_19221" data-name="패스 19221" d="M284.4,2834.181h.414v.148a.448.448,0,0,1,.171-.138.529.529,0,0,1,.2-.036.506.506,0,0,1,.212.041.424.424,0,0,1,.15.113.328.328,0,0,1,.068.132.672.672,0,0,1,.018.167v.746h-.414v-.592a.642.642,0,0,0-.013-.141.173.173,0,0,0-.045-.086.151.151,0,0,0-.061-.039.227.227,0,0,0-.073-.011.2.2,0,0,0-.161.063.261.261,0,0,0-.056.179v.627H284.4Z" transform="translate(-240.752 -2759.689)"/>
  <path id="패스_19222" data-name="패스 19222" d="M293.575,2834.736c0,.179.084.267.251.267a.224.224,0,0,0,.2-.109h.4a.559.559,0,0,1-.606.4.79.79,0,0,1-.272-.045.62.62,0,0,1-.212-.126.578.578,0,0,1-.136-.2.662.662,0,0,1-.048-.256.727.727,0,0,1,.046-.264.561.561,0,0,1,.13-.2.58.58,0,0,1,.2-.127.782.782,0,0,1,.271-.045.77.77,0,0,1,.268.045.55.55,0,0,1,.2.129.568.568,0,0,1,.126.207.834.834,0,0,1,.043.276v.043Zm.485-.24a.248.248,0,0,0-.085-.139.261.261,0,0,0-.312,0,.23.23,0,0,0-.077.142Z" transform="translate(-248.155 -2759.588)"/>
  <path id="패스_19223" data-name="패스 19223" d="M305.885,2831.361a.9.9,0,0,1,.071-.358.891.891,0,0,1,.2-.29.9.9,0,0,1,.3-.193,1.095,1.095,0,0,1,.77,0,.917.917,0,0,1,.3.193.894.894,0,0,1,.2.29.943.943,0,0,1,0,.716.889.889,0,0,1-.2.289.914.914,0,0,1-.3.193,1.1,1.1,0,0,1-.77,0,.9.9,0,0,1-.3-.193.886.886,0,0,1-.2-.289.9.9,0,0,1-.071-.358m.469,0a.46.46,0,0,0,.039.19.475.475,0,0,0,.26.25.508.508,0,0,0,.373,0,.482.482,0,0,0,.155-.1.475.475,0,0,0,.107-.53.477.477,0,0,0-.107-.151.485.485,0,0,0-.155-.1.508.508,0,0,0-.373,0,.473.473,0,0,0-.155.1.484.484,0,0,0-.105.151.461.461,0,0,0-.039.19" transform="translate(-258.911 -2756.559)"/>
  <path id="패스_19224" data-name="패스 19224" d="M319.044,2834.181h.414v.148a.448.448,0,0,1,.171-.138.529.529,0,0,1,.2-.036.507.507,0,0,1,.212.041.424.424,0,0,1,.15.113.328.328,0,0,1,.068.132.672.672,0,0,1,.018.167v.746h-.414v-.592a.644.644,0,0,0-.013-.141.173.173,0,0,0-.045-.086.151.151,0,0,0-.061-.039.227.227,0,0,0-.073-.011.2.2,0,0,0-.161.063.261.261,0,0,0-.056.179v.627h-.414Z" transform="translate(-270.03 -2759.689)"/>
  <path id="패스_19225" data-name="패스 19225" d="M328.225,2834.736c0,.179.084.267.251.267a.224.224,0,0,0,.2-.109h.4a.559.559,0,0,1-.606.4.79.79,0,0,1-.272-.045.62.62,0,0,1-.212-.126.578.578,0,0,1-.136-.2.662.662,0,0,1-.048-.256.727.727,0,0,1,.046-.264.56.56,0,0,1,.13-.2.579.579,0,0,1,.2-.127.782.782,0,0,1,.271-.045.769.769,0,0,1,.268.045.55.55,0,0,1,.2.129.568.568,0,0,1,.126.207.832.832,0,0,1,.043.276v.043Zm.485-.24a.248.248,0,0,0-.085-.139.261.261,0,0,0-.312,0,.23.23,0,0,0-.077.142Z" transform="translate(-277.434 -2759.588)"/>
  <path id="패스_19226" data-name="패스 19226" d="M246.755,2721.756l-10.85-.9.355-1.79,6.9.789-6.668-1.956.327-1.646,6.852.725-6.618-1.906.329-1.66,10.366,3.337-.388,1.958-5.934-.651,5.733,1.663Z" transform="translate(-199.777 -2657.662)"/>
  <path id="패스_19227" data-name="패스 19227" d="M263.187,2682.438c1.415.714,2,1.871,1.407,3.051l-.179.354c-.626,1.238-1.8,1.473-3.309.713l-5.1-2.577c-1.492-.754-2.2-1.776-1.512-3.133l.179-.354c.7-1.38,1.921-1.384,3.4-.636Zm-6.072-1.009c-.428-.217-.7-.191-.845.092-.155.307-.007.53.421.746l5.295,2.674c.3.151.625.183.792-.148s-.07-.539-.368-.689Z" transform="translate(-215.262 -2628.883)"/>
  <path id="패스_19228" data-name="패스 19228" d="M282.51,2652.525l-1.156,1.326-8.155-7.106,1.825-2.093a1.539,1.539,0,0,1,2.419-.032l1.3,1.137a1.489,1.489,0,0,1,.583,1.543,1.277,1.277,0,0,1,1.46.273l2.773,2.416a1.648,1.648,0,0,0,.7.416l.055.047-1.156,1.325a1.5,1.5,0,0,1-.729-.425l-2.379-2.073c-.373-.324-.552-.34-.787-.071l-.243.279Zm-4.834-4.212.226-.259c.226-.259.212-.464-.172-.8l-1.107-.964c-.351-.306-.513-.341-.747-.073l-.261.3Z" transform="translate(-231.291 -2599.048)"/>
  <path id="패스_19229" data-name="패스 19229" d="M307.7,2621.115l5.067,7.284,1.53-1.065,1.113,1.6L312.437,2631l-6.18-8.883Z" transform="translate(-259.226 -2579.667)"/>
  <path id="패스_19230" data-name="패스 19230" d="M342.63,2599.365l2.344-.867c1.228-.454,2.03-.037,2.6,1.5l2.118,5.729c.534,1.445.385,2.415-.966,2.915l-2.344.867Zm4.776,7.845.323-.119c.372-.138.4-.4.221-.888l-2.017-5.455c-.181-.491-.376-.636-.686-.521l-.372.138Z" transform="translate(-289.961 -2560.409)"/>
  <path id="패스_19231" data-name="패스 19231" d="M399.554,2599.741l-1.757.065-.395-10.813,2.774-.1c1.07-.04,1.635.594,1.678,1.742l.063,1.729a1.491,1.491,0,0,1-.726,1.483,1.276,1.276,0,0,1,.8,1.251l.135,3.677a1.639,1.639,0,0,0,.175.794l0,.072-1.757.065a1.507,1.507,0,0,1-.188-.823l-.115-3.154c-.018-.494-.129-.636-.486-.623l-.37.014Zm-.234-6.41.343-.013c.343-.012.483-.163.465-.672l-.054-1.468c-.017-.465-.1-.608-.458-.594l-.4.015Z" transform="translate(-336.244 -2552.436)"/>
  <path id="패스_19232" data-name="패스 19232" d="M436.021,2591.146l-.393,1.864-1.876-.4-.486,2.3,1.475.312-.4,1.906-1.475-.311-.548,2.6,1.967.415-.4,1.906-3.687-.777,2.232-10.587Z" transform="translate(-363.953 -2553.702)"/>
  <path id="패스_19233" data-name="패스 19233" d="M459.953,2611.853l1.023-2.154,1.577.749-1.048,2.207c-.555,1.169-1.5,2.055-2.912,1.386l-.323-.153c-1.529-.726-1.358-1.98-.778-3.2l2.62-5.517c.561-1.182,1.52-2,2.929-1.33l.323.154c1.517.72,1.347,1.911.816,3.027l-.779,1.642-1.577-.748.748-1.577c.175-.367.161-.616-.138-.758s-.481,0-.663.377l-2.619,5.517c-.181.381-.161.648.126.784s.507-.05.675-.4" transform="translate(-386.667 -2564.865)"/>
  <path id="패스_19234" data-name="패스 19234" d="M487.31,2634.468c-1.013,1.219-2.272,1.534-3.288.688l-.3-.254c-1.067-.888-1.032-2.088.046-3.385l3.654-4.4c1.069-1.286,2.224-1.744,3.393-.771l.3.254c1.189.989.919,2.183-.141,3.458Zm2.343-5.693c.307-.369.343-.641.1-.844-.264-.22-.515-.125-.821.244l-3.793,4.563c-.214.257-.317.568-.033.8s.541.053.754-.2Z" transform="translate(-408.52 -2583.65)"/>
  <path id="패스_19235" data-name="패스 19235" d="M501.265,2659.941l-1.033-1.423,8.755-6.362,1.632,2.246a1.539,1.539,0,0,1-.511,2.365l-1.4,1.018a1.491,1.491,0,0,1-1.635.224,1.277,1.277,0,0,1-.593,1.362l-2.977,2.164a1.641,1.641,0,0,0-.562.588l-.059.043-1.034-1.423a1.513,1.513,0,0,1,.577-.616l2.553-1.855c.4-.291.456-.462.246-.751l-.217-.3Zm5.189-3.771.2.278c.2.278.405.31.817.011l1.189-.864c.376-.273.447-.423.238-.712l-.233-.321Z" transform="translate(-423.137 -2605.898)"/>
  <path id="패스_19236" data-name="패스 19236" d="M528.194,2694.092l.861,2.345c.451,1.228.033,2.03-1.51,2.6l-5.734,2.105c-1.448.531-2.417.38-2.914-.972l-.861-2.345Zm-7.859,4.758.118.323c.137.372.4.4.888.223l5.461-2c.491-.18.637-.375.523-.685l-.137-.372Z" transform="translate(-438.181 -2641.334)"/>
  <path id="패스_19237" data-name="패스 19237" d="M529.929,2738.179l1.938-.209.185,1.722-1.721.186c-.433.047-.636.2-.6.517s.307.406.828.349l.2-.021a2.09,2.09,0,0,0,1.616-.746l1.12-1.144a3.958,3.958,0,0,1,2.632-1.228l.463-.051a1.9,1.9,0,0,1,2.354,1.754l.038.355c.147,1.366-.492,1.954-1.909,2.106l-1.445.156-.181-1.683,1.345-.145c.347-.037.557-.126.523-.441s-.258-.358-.62-.319l-.246.026a1.951,1.951,0,0,0-1.33.689L534,2741.183a3.958,3.958,0,0,1-2.647,1.363l-.506.054c-1.6.173-2.734-.4-2.89-1.842l-.037-.342c-.143-1.328.565-2.082,2.011-2.238" transform="translate(-446.516 -2678.042)"/>
  <path id="패스_19238" data-name="패스 19238" d="M284.418,2862.622h1.232a1.453,1.453,0,0,1,.614.132,1.68,1.68,0,0,1,.5.35,1.632,1.632,0,0,1,.338.51,1.571,1.571,0,0,1,0,1.216,1.612,1.612,0,0,1-.336.512,1.641,1.641,0,0,1-.5.353,1.458,1.458,0,0,1-.618.132h-1.232Zm.833,2.5h.191a1.033,1.033,0,0,0,.387-.068.831.831,0,0,0,.287-.187.8.8,0,0,0,.178-.283,1.008,1.008,0,0,0,.062-.359.987.987,0,0,0-.064-.357.8.8,0,0,0-.468-.472,1.029,1.029,0,0,0-.383-.068h-.191Z" transform="translate(-240.771 -2783.744)" fill="#fff"/>
  <path id="패스_19239" data-name="패스 19239" d="M304.961,2865.27h-1.19l-.191.556h-.888l1.22-3.2h.909l1.22,3.2h-.888Zm-.221-.633-.374-1.067-.374,1.067Z" transform="translate(-256.213 -2783.744)" fill="#fff"/>
  <rect id="사각형_5648" data-name="사각형 5648" width="1.22" height="0.642" transform="translate(49.992 80.159)" fill="#fff"/>
  <path id="패스_19240" data-name="패스 19240" d="M336.839,2862.622h1.232a1.453,1.453,0,0,1,.614.132,1.681,1.681,0,0,1,.5.35,1.632,1.632,0,0,1,.338.51,1.571,1.571,0,0,1,0,1.216,1.61,1.61,0,0,1-.336.512,1.64,1.64,0,0,1-.5.353,1.458,1.458,0,0,1-.618.132h-1.232Zm.833,2.5h.191a1.034,1.034,0,0,0,.387-.068.83.83,0,0,0,.287-.187.8.8,0,0,0,.178-.283,1.008,1.008,0,0,0,.062-.359.99.99,0,0,0-.064-.357.8.8,0,0,0-.468-.472,1.029,1.029,0,0,0-.383-.068h-.191Z" transform="translate(-285.067 -2783.744)" fill="#fff"/>
  <path id="패스_19241" data-name="패스 19241" d="M357.457,2863.739a1.65,1.65,0,0,1,1.056-1.562,2.036,2.036,0,0,1,1.43,0,1.686,1.686,0,0,1,.563.359,1.646,1.646,0,0,1,.368.538,1.747,1.747,0,0,1,0,1.33,1.644,1.644,0,0,1-.368.538,1.674,1.674,0,0,1-.563.359,2.026,2.026,0,0,1-1.43,0,1.641,1.641,0,0,1-.924-.9,1.677,1.677,0,0,1-.132-.665m.871,0a.851.851,0,0,0,.072.352.88.88,0,0,0,.482.466.927.927,0,0,0,.982-.185.88.88,0,0,0,.2-.281.895.895,0,0,0,0-.705.88.88,0,0,0-.2-.281.936.936,0,0,0-.982-.185.878.878,0,0,0-.482.466.852.852,0,0,0-.072.353" transform="translate(-302.49 -2783.258)" fill="#fff"/>
  <path id="패스_19242" data-name="패스 19242" d="M382.82,2863.739a1.65,1.65,0,0,1,1.056-1.562,2.036,2.036,0,0,1,1.43,0,1.686,1.686,0,0,1,.563.359,1.645,1.645,0,0,1,.368.538,1.747,1.747,0,0,1,0,1.33,1.643,1.643,0,0,1-.368.538,1.674,1.674,0,0,1-.563.359,2.026,2.026,0,0,1-1.43,0,1.64,1.64,0,0,1-.924-.9,1.675,1.675,0,0,1-.132-.665m.871,0a.851.851,0,0,0,.072.352.88.88,0,0,0,.482.466.927.927,0,0,0,.982-.185.881.881,0,0,0,.2-.281.9.9,0,0,0,0-.705.881.881,0,0,0-.2-.281.936.936,0,0,0-.982-.185.879.879,0,0,0-.482.466.852.852,0,0,0-.072.353" transform="translate(-323.922 -2783.258)" fill="#fff"/>
  <rect id="사각형_5649" data-name="사각형 5649" width="1.22" height="0.642" transform="translate(63.075 80.159)" fill="#fff"/>
  <rect id="사각형_5650" data-name="사각형 5650" width="1.22" height="0.642" transform="translate(74.915 80.159)" fill="#fff"/>
  <path id="패스_19243" data-name="패스 19243" d="M424.416,2865.825H423.38l-.795-1.232v1.232h-.833v-3.2h1.3a1.277,1.277,0,0,1,.468.079.9.9,0,0,1,.329.214.91.91,0,0,1,.2.314,1.1,1.1,0,0,1,.066.382.939.939,0,0,1-.177.593.885.885,0,0,1-.521.308Zm-1.832-1.772h.157a.609.609,0,0,0,.379-.1.393.393,0,0,0,0-.586.6.6,0,0,0-.379-.1h-.157Z" transform="translate(-356.82 -2783.743)" fill="#fff"/>
  <path id="패스_19244" data-name="패스 19244" d="M440.751,2862.622v1.742c0,.093,0,.189.01.287a.8.8,0,0,0,.064.266.437.437,0,0,0,.168.193.588.588,0,0,0,.323.074.577.577,0,0,0,.321-.074.459.459,0,0,0,.168-.193.763.763,0,0,0,.066-.266c.007-.1.011-.194.011-.287v-1.742h.829v1.857a1.5,1.5,0,0,1-.342,1.092,1.781,1.781,0,0,1-2.105,0,1.493,1.493,0,0,1-.345-1.092v-1.857Z" transform="translate(-372.17 -2783.744)" fill="#fff"/>
  <path id="패스_19245" data-name="패스 19245" d="M461.725,2865.826v-3.2h.833l1.539,1.959v-1.959h.829v3.2H464.1l-1.539-1.959v1.959Z" transform="translate(-390.597 -2783.743)" fill="#fff"/>
  <path id="패스_19246" data-name="패스 19246" d="M500.676,2865.825H499.64l-.795-1.232v1.232h-.833v-3.2h1.3a1.277,1.277,0,0,1,.468.079.879.879,0,0,1,.525.529,1.1,1.1,0,0,1,.066.382.94.94,0,0,1-.177.593.885.885,0,0,1-.521.308Zm-1.831-1.772H499a.609.609,0,0,0,.378-.1.393.393,0,0,0,0-.586.6.6,0,0,0-.378-.1h-.157Z" transform="translate(-421.261 -2783.743)" fill="#fff"/>
  <path id="패스_19247" data-name="패스 19247" d="M518.094,2862.622v1.742c0,.093,0,.189.011.287a.793.793,0,0,0,.064.266.437.437,0,0,0,.168.193.587.587,0,0,0,.323.074.578.578,0,0,0,.321-.074.458.458,0,0,0,.168-.193.762.762,0,0,0,.066-.266c.007-.1.011-.194.011-.287v-1.742h.829v1.857a1.5,1.5,0,0,1-.342,1.092,1.781,1.781,0,0,1-2.105,0,1.493,1.493,0,0,1-.344-1.092v-1.857Z" transform="translate(-437.526 -2783.744)" fill="#fff"/>
  <path id="패스_19248" data-name="패스 19248" d="M539.607,2865.826v-3.2h.833l1.539,1.959v-1.959h.828v3.2h-.828l-1.539-1.959v1.959Z" transform="translate(-456.409 -2783.743)" fill="#fff"/>
  <path id="패스_19249" data-name="패스 19249" d="M357.686,2576.178l.653-.191-.2-.671.452-.133.51,1.74-.452.132-.211-.718-.653.192.21.717-.452.133-.51-1.74.452-.132Z" transform="translate(-302.135 -2540.854)"/>
  <rect id="사각형_5651" data-name="사각형 5651" width="0.471" height="1.813" transform="translate(56.906 34.224) rotate(-13.562)"/>
  <path id="패스_19250" data-name="패스 19250" d="M377.1,2572.432l.919-.174a2.61,2.61,0,0,1,.037.26.916.916,0,0,1-.007.223.858.858,0,0,1-.088.273.8.8,0,0,1-.166.217.967.967,0,0,1-.231.157,1.107,1.107,0,0,1-.281.092,1.019,1.019,0,0,1-.392,0,.867.867,0,0,1-.331-.137.879.879,0,0,1-.248-.262,1.047,1.047,0,0,1-.141-.371,1.07,1.07,0,0,1,0-.395.862.862,0,0,1,.135-.333.886.886,0,0,1,.263-.248,1.085,1.085,0,0,1,.377-.143.988.988,0,0,1,.512.028.851.851,0,0,1,.4.311l-.405.264a.456.456,0,0,0-.2-.18.407.407,0,0,0-.236-.022.469.469,0,0,0-.182.075.417.417,0,0,0-.124.138.551.551,0,0,0-.062.192.773.773,0,0,0,.078.438.481.481,0,0,0,.12.151.4.4,0,0,0,.167.082.516.516,0,0,0,.211,0,.558.558,0,0,0,.13-.041.352.352,0,0,0,.105-.071.291.291,0,0,0,.067-.1.363.363,0,0,0,.02-.141l-.381.072Z" transform="translate(-318.289 -2537.807)"/>
  <path id="패스_19251" data-name="패스 19251" d="M390.384,2570.157l.676-.08-.082-.695.469-.055.212,1.8-.468.055-.087-.743-.676.079.087.743-.468.055-.212-1.8.468-.055Z" transform="translate(-329.849 -2535.906)"/>
  <path id="패스_19252" data-name="패스 19252" d="M409.722,2568.947l-.567.02.01.3.517-.018.014.4-.517.018.025.711-.471.016-.063-1.812,1.038-.036Z" transform="translate(-345.765 -2535.248)"/>
  <rect id="사각형_5652" data-name="사각형 5652" width="1.813" height="0.471" transform="matrix(0.016, -1, 1, 0.016, 64.277, 35.111)"/>
  <path id="패스_19253" data-name="패스 19253" d="M422.947,2568.548l.7.033a.817.817,0,0,1,.344.091.939.939,0,0,1,.274.211.925.925,0,0,1,.177.3.891.891,0,0,1-.031.687.919.919,0,0,1-.2.281.953.953,0,0,1-.293.187.846.846,0,0,1-.353.058l-.7-.033Zm.4,1.435.108,0a.6.6,0,0,0,.22-.028.463.463,0,0,0,.167-.1.451.451,0,0,0,.108-.155.572.572,0,0,0,.044-.2.563.563,0,0,0-.027-.2.46.46,0,0,0-.094-.166.467.467,0,0,0-.157-.113.577.577,0,0,0-.214-.049l-.108-.005Z" transform="translate(-357.759 -2535.248)"/>
  <path id="패스_19254" data-name="패스 19254" d="M436.091,2569.769l-.558-.056-.031.3.526.054-.04.4-.526-.053-.032.312.557.056-.04.4-1.027-.1.183-1.8,1.026.1Z" transform="translate(-367.948 -2535.856)"/>
  <path id="패스_19255" data-name="패스 19255" d="M444.335,2570.342l-.205,1.4.559.082-.058.4-1.026-.151.263-1.794Z" transform="translate(-375.287 -2536.706)"/>
  <rect id="사각형_5653" data-name="사각형 5653" width="1.813" height="0.471" transform="matrix(0.18, -0.984, 0.984, 0.18, 69.564, 35.555)"/>
  <path id="패스_19256" data-name="패스 19256" d="M458.749,2573.014l-.306,1.381-.46-.1.305-1.381-.378-.083.086-.39,1.216.269-.087.39Z" transform="translate(-387.374 -2538.536)"/>
  <path id="패스_19257" data-name="패스 19257" d="M467.8,2575.489l-.383-1.085.542.151.19.568.456-.387.542.151-.893.729-.235.839-.454-.127Z" transform="translate(-395.409 -2540.196)"/>
</svg>
