<svg id="그룹_11072" data-name="그룹 11072" xmlns="http://www.w3.org/2000/svg" xmlns:xlink="http://www.w3.org/1999/xlink" width="153.248" height="136.825" viewBox="0 0 153.248 136.825">
  <defs>
    <clipPath id="clip-path">
      <rect id="사각형_5662" data-name="사각형 5662" width="153.248" height="136.825" fill="none"/>
    </clipPath>
  </defs>
  <g id="그룹_11071" data-name="그룹 11071" clip-path="url(#clip-path)">
    <path id="패스_19267" data-name="패스 19267" d="M153.134,77.918a.424.424,0,0,0,.114-.312l-.263-4.582a.419.419,0,0,0-.448-.394l-3.9.278-.476-8.218.444-.018a.419.419,0,0,0,.4-.439l-.166-3.612a.418.418,0,0,0-.437-.4l-6.613.287-.2-7.027.15.017a.421.421,0,0,0,.467-.434l-.129-3.244a.418.418,0,0,0-.367-.4l-2.154-.271-.226-7.061h.362a.42.42,0,0,0,.42-.42V37.906a.42.42,0,0,0-.42-.42H118.165a.421.421,0,0,0-.178.04l-7.1,3.339a.42.42,0,0,0-.239.414l.265,3.287a.418.418,0,0,0,.526.371l.287-.076.181,4.834-3.016.192c0-.061-.009-.122-.013-.183-.015-.193-.031-.384-.046-.575-.009-.115-.018-.231-.028-.346-.01-.136-.021-.271-.032-.406l-.009-.109c-.016-.192-.032-.381-.048-.57-.02-.243-.041-.487-.062-.73l-.009-.1c-.011-.137-.024-.273-.036-.41,0-.029,0-.059-.008-.088-.021-.233-.041-.467-.063-.7-.018-.191-.035-.381-.053-.571-.016-.161-.031-.322-.047-.482-.007-.08-.015-.16-.023-.24h0q-.029-.3-.058-.6l-.033-.321c-.018-.179-.036-.357-.055-.536-.014-.14-.028-.28-.043-.419q-.039-.372-.08-.739c0-.035-.008-.071-.011-.106l-.039-.349c0-.023,0-.045-.007-.067-.045-.406-.091-.812-.139-1.215l-.021-.176c-.02-.168-.041-.334-.061-.5q-.064-.537-.133-1.07c-.022-.177-.045-.353-.067-.528q-.075-.574-.153-1.142c-.018-.127-.034-.254-.052-.38q-.1-.751-.215-1.489c-.015-.1-.031-.206-.047-.309q-.088-.587-.182-1.166c-.024-.153-.049-.305-.074-.457q-.085-.525-.175-1.04c-.024-.141-.048-.283-.073-.424-.083-.471-.167-.939-.254-1.4a.42.42,0,0,0-.172-.266s-5.031-3.523-12.183-7.794S77.656,12.6,69.13,9.581a.279.279,0,0,0-.039-.01.187.187,0,0,0-.034-.008l-.032,0h-.052a.441.441,0,0,0-.062.009h0l-.017,0h0a.391.391,0,0,0-.081.029l-5.238,2.508a.42.42,0,0,0-.226.48l.127.508L50.189,20.051l.04-.421.268.043.028,0a.463.463,0,0,0,.083.005h0l.019,0a.341.341,0,0,0,.064-.01c.01,0,.018-.006.028-.009a.429.429,0,0,0,.05-.019.254.254,0,0,0,.028-.016.408.408,0,0,0,.044-.028l.006,0,.019-.019a.384.384,0,0,0,.03-.027l0,0,0-.005.023-.03c.009-.012.018-.024.026-.037s.012-.024.017-.036.01-.019.014-.029l0-.012a.262.262,0,0,0,.011-.04.229.229,0,0,0,.007-.028v-.015l0-.014.305-3.415a.42.42,0,0,0-.348-.451l-7.09-1.208.457-4.654.128.057a.42.42,0,0,0,.587-.335l.4-3.479a.42.42,0,0,0-.214-.415L38.4,1.621l0,0a.4.4,0,0,0-.091-.036l-.017,0a.375.375,0,0,0-.06-.01L17.228,0a.42.42,0,0,0-.448.37l-.414,3.564v0h0v.005a.415.415,0,0,0,.1.325.408.408,0,0,0,.264.138l-.743,6.854-2.173.108a.42.42,0,0,0-.4.407l-.1,3.191a.418.418,0,0,0,.119.305.355.355,0,0,0,.047.04l-.671,7.23-6.75-.859a.421.421,0,0,0-.47.367L5.147,25.8a.42.42,0,0,0,.361.466l.7.094L5.4,34.688,1.059,34a.419.419,0,0,0-.481.36L0,38.727a.426.426,0,0,0,.084.312.42.42,0,0,0,.281.159l.28.035L0,45.749a.42.42,0,0,0,.359.457l1.513.211,1.05.147-.3,3.289a.42.42,0,0,0,.355.453l.216.033-.547,6.849A.419.419,0,0,0,3,57.636l6.66.992a.59.59,0,0,0,.138.33,2.1,2.1,0,0,1,.245.367A8.55,8.55,0,0,0,7.3,58.936a15.233,15.233,0,0,0-2.118.157,4.836,4.836,0,0,0-3.1,1.693,4.542,4.542,0,0,0-1.067,2.852,3.037,3.037,0,0,0,.723,2.05,2.562,2.562,0,0,0,.93.656,3.265,3.265,0,0,0,1.263.235A8.727,8.727,0,0,1,8.957,68.2a9.519,9.519,0,0,1,1.324,1.116c.149.151.26.276.334.362.035.041.061.072.078.094a8.891,8.891,0,0,0,2.259,3.15,10.483,10.483,0,0,0,5.913,2.465,36,36,0,0,0,10.261,4.058,26.827,26.827,0,0,0,5.685.634,17.921,17.921,0,0,0,4.9-.6,17.955,17.955,0,0,0,7.818,3.894l.017,0,.043.008c.129.027.257.05.385.074l.076.013a16.931,16.931,0,0,0,1.685.221c-.07,1.7-.15,3.228-.23,4.56-.019.31-.038.605-.056.894-.081-.006-.232-.015-.447-.018h-.15a17.118,17.118,0,0,0-9.587,3.205,22.524,22.524,0,0,0-6.1,6.528,38.663,38.663,0,0,0-4.77,11.985,72.4,72.4,0,0,0-2.281,15.974c0,4.177.77,6.606,1.75,8.043a4.719,4.719,0,0,0,1.538,1.469,3.75,3.75,0,0,0,1.3.46,2.923,2.923,0,0,0,.446.034,3.954,3.954,0,0,0,2.485-.99,4.48,4.48,0,0,0,.875-.987,3.329,3.329,0,0,0,.43-.971,17.772,17.772,0,0,0,2.755-2.491,16.125,16.125,0,0,0,3.881-7.228c.07-.084.186-.227.313-.395.1-.133.207-.281.3-.43.048-.076.094-.151.135-.226l.072-.016a2.73,2.73,0,0,0,.668-.263,1.955,1.955,0,0,0,1.033-1.789,2.94,2.94,0,0,0-.043-.481,3.68,3.68,0,0,0,.506-.382,2.756,2.756,0,0,0,.563-.7,2.13,2.13,0,0,0,.269-1.035,2.186,2.186,0,0,0-.024-.308c-.008-.056-.017-.112-.03-.169a3.285,3.285,0,0,0,.376-.267,2.363,2.363,0,0,0,.5-.567,1.582,1.582,0,0,0,.2-1.252,2.884,2.884,0,0,0,.343-.274,2.372,2.372,0,0,0,.473-.614,1.973,1.973,0,0,0,.188-.552c.03.067.06.134.091.2a31.657,31.657,0,0,0,3.059,5.4c-.119,1.451-.173,2.753-.174,3.919,0,4.4.767,6.91,1.739,8.366a4.433,4.433,0,0,0,1.529,1.46,3.408,3.408,0,0,0,1.284.41,2.658,2.658,0,0,0,.281.014,3.046,3.046,0,0,0,1.228-.271,4.071,4.071,0,0,0,1.473-1.127,3.32,3.32,0,0,0,.709-1.4,15.855,15.855,0,0,0,2.336-2.316,14.365,14.365,0,0,0,3.161-6.581c.059-.078.154-.207.257-.356.084-.123.173-.259.253-.4.037-.064.071-.127.1-.19a2.48,2.48,0,0,0,.61-.261,1.881,1.881,0,0,0,.612-.579,1.818,1.818,0,0,0,.285-1,2.624,2.624,0,0,0-.055-.506,3.17,3.17,0,0,0,.393-.326,2.534,2.534,0,0,0,.477-.631,1.95,1.95,0,0,0,.229-.914,2.045,2.045,0,0,0-.062-.487,2.784,2.784,0,0,0,.284-.223,2.147,2.147,0,0,0,.43-.514,1.5,1.5,0,0,0,.215-.765,1.48,1.48,0,0,0-.055-.395,2.631,2.631,0,0,0,.254-.223,2.176,2.176,0,0,0,.4-.549,1.773,1.773,0,0,0,.191-.8,1.928,1.928,0,0,0-.049-.419c.134-.1.321-.251.542-.428a47.354,47.354,0,0,0,2.551,4.547,24.426,24.426,0,0,0,4.543,5.434,11.417,11.417,0,0,0,2.725,1.754,7.423,7.423,0,0,0,3.016.667,6.893,6.893,0,0,0,1.74-.225,6.723,6.723,0,0,0,2.554-1.272,7,7,0,0,0,1.811-2.247,11.877,11.877,0,0,0,1.114-5.467,30.03,30.03,0,0,0-.779-6.323c-.153-.7-.319-1.374-.486-2.007l6.411-3.475,1.81,1.2v2.03l0,.021,0,.034.009.047c0,.01,0,.019.009.029a.478.478,0,0,0,.019.048c0,.008.007.016.012.024a.309.309,0,0,0,.032.048l.009.014,0,0a.379.379,0,0,0,.053.053l0,0a.381.381,0,0,0,.068.045l.007,0a.371.371,0,0,0,.065.027l.028.007c.014,0,.027.007.041.009l4.418.606a.4.4,0,0,0,.056.052,12.457,12.457,0,0,0,1.6.906,10.235,10.235,0,0,0,3.612,1.044,13.7,13.7,0,0,1,3.115.5,4.235,4.235,0,0,1,1.9,1.132,9.887,9.887,0,0,0,1.647,1.564,5.123,5.123,0,0,0,3.022.94,8.462,8.462,0,0,0,3.079-.654,23.474,23.474,0,0,1,8.667-1.821c.289,0,.561.007.815.018.071,0,.142,0,.213,0a9.087,9.087,0,0,0,3.56-.876,7.922,7.922,0,0,0,2.885-2.066c.483-.612.837-1.134,1.16-1.592a8.062,8.062,0,0,1,1.6-1.795,15.487,15.487,0,0,1,3.391-1.925,6.36,6.36,0,0,1,2.6-.507,8.684,8.684,0,0,1,1.308.1c.162.026.29.051.377.07l.1.021.023.006h0a.419.419,0,0,0,.312-.039,3.535,3.535,0,0,0,.941-.85,4.306,4.306,0,0,0,.908-2.73,5.6,5.6,0,0,0-.031-.581,4.819,4.819,0,0,0-.511-1.773,3.51,3.51,0,0,0-1-1.182L148.893,96a.42.42,0,0,0,.392-.419V89.332h.222a.42.42,0,0,0,.42-.419v-3.63l2.675-.118a.419.419,0,0,0,.4-.435l-.262-6.681h.088a.421.421,0,0,0,.305-.131M48.576,59.021a7.042,7.042,0,0,0-1.841-.227c-.144,0-.285.005-.426.012l.232-1.894.3-.082a.423.423,0,0,0,.3-.355l.551-4.687a.42.42,0,0,0-.333-.46l-6.173-1.25.82-5.936h.084a.42.42,0,0,0,.417-.371l.4-3.4a.421.421,0,0,0-.1-.321.409.409,0,0,0-.169-.118l1.7-.087a.42.42,0,0,0,.4-.385l.674-8.49a152.322,152.322,0,0,1,4.145,28.459,3.776,3.776,0,0,0-.977-.411m34.6,59.489a1.1,1.1,0,0,1-.294.385.87.87,0,0,1-.327.147,1.093,1.093,0,0,1-.271.033,2.047,2.047,0,0,1-.941-.28,8.331,8.331,0,0,1-2.152-1.867,30.856,30.856,0,0,1-3.548-5.251c-.643-1.164-1.26-2.4-1.829-3.669.236-.372.479-.779.708-1.2.188-.349.364-.71.52-1.071l7.558,3.283c.109.425.215.854.312,1.285a26.423,26.423,0,0,1,.729,5.518,6.127,6.127,0,0,1-.465,2.69" fill="#0d0002"/>
    <path id="패스_19268" data-name="패스 19268" d="M140.512,65.151l-24.276,1.488.139,8.553.137.005L147.8,72.968l-.477-8.234Z" fill="#47545d"/>
    <path id="패스_19269" data-name="패스 19269" d="M147.7,63.87l.448-.019-.127-2.773-6.207.27v.016a.419.419,0,0,1-.419.432h-9.61l-15.909.679v3.346L147.69,63.87Z" fill="#47545d"/>
    <path id="패스_19270" data-name="패스 19270" d="M6.228,34.818l30.327,4.511.923-8.8L7.044,26.467Z" fill="#47545d"/>
    <path id="패스_19271" data-name="패스 19271" d="M6.03,25.484l32.011,4.272.28-3.126L6.378,22.568Z" fill="#47545d"/>
    <path id="패스_19272" data-name="패스 19272" d="M131.59,45.734l5.852-.129a.329.329,0,0,1,.336.322l.059,2.459a.329.329,0,0,1-.322.338l-1.165.026,2.358.295-.222-6.948-19.394.359.425,6.632,11.8-.954-.049-2.062a.329.329,0,0,1,.322-.338" fill="#ff3600"/>
    <path id="패스_19273" data-name="패스 19273" d="M138.884,41.25h.383V38.325H118.826l.211,3.292Z" fill="#ff3600"/>
    <path id="패스_19274" data-name="패스 19274" d="M122.543,99.449c-1.237.359-2.237.642-2.735.768l-.035,4.893,8.67-2.525c.044-.349.1-.706.17-1.066.046-.231.1-.463.161-.695l.334-3.289-1.943.555c-1.561.463-3.237.957-4.622,1.359" fill="#ff3600"/>
    <path id="패스_19275" data-name="패스 19275" d="M108.454,99.485l-4.034,4.584,2.023.211,12.255,1.153.038-5.191-10.278-.763,0,.006" fill="#ff3600"/>
    <path id="패스_19276" data-name="패스 19276" d="M116.545,87.06h0l-6.524.375v3.527l.66-.028,38.159-2.44h.248v-3.3Z" fill="#ff3600"/>
    <path id="패스_19277" data-name="패스 19277" d="M111.122,91.747V97.64l21.117-1.384a7.62,7.62,0,0,1,2.768-.613,3.827,3.827,0,0,1,1.435.258c.053.021.1.046.151.07l11.854-.777V89.361Z" fill="#ff3600"/>
    <path id="패스_19278" data-name="패스 19278" d="M49.486,27.414a.427.427,0,0,1-.155.287.421.421,0,0,1-.313.09l-2.44-.292v2.876a.374.374,0,0,1-.008.082.2.2,0,0,1-.013.042c0,.012-.006.025-.011.037s-.013.025-.02.038-.012.024-.019.035-.016.019-.024.029a.42.42,0,0,1-.028.034h0c-.009.009-.02.016-.029.024s-.021.019-.034.027-.025.013-.038.02-.023.013-.035.018l-.039.012-.04.012h-.011A156.757,156.757,0,0,1,50.51,61.56L54.965,62.8c.008,0,.015.006.024.009l.028.011a.3.3,0,0,1,.047.024l.023.014a.218.218,0,0,1,.043.035l.016.011,0,0a.6.6,0,0,1,.045.053l.005.008a.408.408,0,0,1,.062.147.051.051,0,0,1,0,.021c0,.019.005.038.007.057v4.159a.42.42,0,0,1-.42.42h-.28v4.9a.419.419,0,0,1-.39.418l-3.389.232c0,2.06-.028,4.017-.072,5.852.176.007.349.011.52.012a14.606,14.606,0,0,0,7.185-1.955h0a2.142,2.142,0,0,1,1.135-.351,1.808,1.808,0,0,1,.981.292,2.53,2.53,0,0,1,.75.784,2.935,2.935,0,0,1,.468,1.535,2.041,2.041,0,0,1-.2.911,1.833,1.833,0,0,1-.666.732c-.011.007-.082.052-.208.126L56.435,89.33l.159-.1c4-2.522,8.761-5.559,11.88-7.674.416-6.51.6-12.618.6-18.288,0-28.679-4.515-46.265-5.372-49.345l-13.6,7.126Z" fill="#ff3600"/>
    <path id="패스_19279" data-name="패스 19279" d="M51.208,83.747h-.08c-.075,0-.152,0-.227,0l-.177,0-.151,0c-.194,4.71-.468,8.135-.6,9.634l.263-.163,4.774-9.848a19.224,19.224,0,0,1-3.8.387" fill="#ff3600"/>
    <path id="패스_19280" data-name="패스 19280" d="M68.639,82.686l-.012,0c-.011-.007-.02-.018-.031-.026a.422.422,0,0,1-.046-.038.438.438,0,0,1-.033-.04.223.223,0,0,1-.019-.024c-3.13,2.106-7.637,4.98-11.457,7.387-2.647,1.668-4.961,3.11-6.254,3.913l-.006,0-.4.25,3.145,1.367-.017-.036a2.548,2.548,0,0,1-.272-1.1,1.982,1.982,0,0,1,.5-1.311,3.717,3.717,0,0,1,1.233-.885,4.337,4.337,0,0,1,1.829-.466,2.308,2.308,0,0,1,1.152.283,2.1,2.1,0,0,1,.856.945c.076.161,1.225,2.578,2.555,5.972l20.957,9.1c-.316-1.114-.662-2.169-1.006-3.079a2.5,2.5,0,0,1-.173-.88,1.914,1.914,0,0,1,.165-.783,2.119,2.119,0,0,1,.448-.636,3.986,3.986,0,0,1,1.415-.849,4.569,4.569,0,0,1,1.574-.324,2.277,2.277,0,0,1,1.222.321,2.1,2.1,0,0,1,.843,1.073c.036.1.6,1.6,1.21,3.758l8.883-4.816a.737.737,0,0,1,.078-.089,1.525,1.525,0,0,1,.186-.147c.136-.1.31-.2.516-.318.412-.235.95-.516,1.487-.787.52-.263,1.037-.517,1.435-.709L68.65,82.694l-.011-.008" fill="#ff3600"/>
    <path id="패스_19281" data-name="패스 19281" d="M101.18,91.749c-1.029-.609-2.1-1.23-3.2-1.853a4.567,4.567,0,0,1-.624.651,5.614,5.614,0,0,1-7.12,0A4.146,4.146,0,0,1,88.731,87.4a3.969,3.969,0,0,1,.684-2.213C82.752,81.634,76.831,78.679,75.469,78l-.044-.022a54.151,54.151,0,0,1-5.74,4.313l32.992,17.575.723-.393,5.284-2.868a86.806,86.806,0,0,0-7.5-4.859" fill="#ff3600"/>
    <path id="패스_19282" data-name="패스 19282" d="M69.842,11.208c.114.362.247.8.395,1.3,1.848,6.278,6.058,23.4,6.058,49.175q0,3.788-.128,7.823-.06,1.865-.151,3.78-.051,1.065-.111,2.145c-.033.6-.07,1.2-.108,1.8,1.97.977,15.223,7.587,25.144,13.405a94.587,94.587,0,0,1,8.114,5.2l0-.11c.014-.607.034-1.5.054-2.631.04-2.268.08-5.51.08-9.407,0-5.862-.091-13.205-.4-20.938l-.215.008a.42.42,0,0,1-.433-.389l-.582-8.147v-.172a.418.418,0,0,1-.308-.368l-.275-3.245a.419.419,0,0,1,.391-.454l.685-.043a187.709,187.709,0,0,0-2.405-19.667l-.086-.06c-.151-.1-.374-.257-.664-.454-.58-.4-1.429-.966-2.5-1.671-2.144-1.408-5.178-3.35-8.741-5.478-6.9-4.118-15.774-8.931-23.983-11.939l.015.046c.047.145.1.309.157.49" fill="#ff3600"/>
    <path id="패스_19283" data-name="패스 19283" d="M69.909,63.268c0,5.664-.178,11.764-.592,18.263.315-.2.724-.476,1.216-.819a55.136,55.136,0,0,0,4.42-3.434q.062-.954.115-1.9c.269-4.805.388-9.376.388-13.7,0-22.886-3.332-38.916-5.352-46.529l-.129-.484q-.256-.947-.477-1.7c-.334-1.15-.6-1.956-.75-2.41l-4.506,2.157.122.486c.128.426,5.545,18.6,5.545,50.067" fill="#ff3600"/>
    <path id="패스_19284" data-name="패스 19284" d="M23.7,69.482l7.619,4V68.357L23.7,64.969Z" fill="#ff3600"/>
    <path id="패스_19285" data-name="패스 19285" d="M53.733,67.778l-21.571.62v5.354l21.571-1.471Z" fill="#ff3600"/>
    <path id="패스_19286" data-name="패스 19286" d="M31.126,63.985l-8.215-3.238v2.936l.549.259,7.666,3.409Z" fill="#ff3600"/>
    <path id="패스_19287" data-name="패스 19287" d="M53.764,66.938h.668v-3.3l-22.468.474v3.455l21.788-.627Z" fill="#ff3600"/>
    <path id="패스_19288" data-name="패스 19288" d="M44.235,55.742l.2-1.371.281-1.883L40.992,51.9l-.472-.067h0l-4.9-.693L3.757,46.681l-.263,2.855,40.706,6.2Z" fill="#ff3600"/>
    <path id="패스_19289" data-name="패스 19289" d="M42.931,61.261l.155-1.185.47-3.588L4.024,50.467l-.511,6.4,39.229,5.842Z" fill="#ff3600"/>
    <path id="패스_19290" data-name="패스 19290" d="M37.546,5.621l.206-3.245L17.568.868l-.316,2.708L37.478,5.621Z" fill="#ff3600"/>
    <path id="패스_19291" data-name="패스 19291" d="M23.626,11.718l-9.383.47-.071,2.372H23.53Z" fill="#ff3600"/>
    <path id="패스_19292" data-name="패스 19292" d="M36.6,13.837,24.463,11.771l-.1,2.853L49.92,18.73h0l.293.048.23-2.581-7.093-1.209h0L36.6,13.837h0" fill="#ff3600"/>
    <path id="패스_19293" data-name="패스 19293" d="M46.578,26.654l2.113.253L49.4,19.5,24.11,15.433l-.688,8.454,17.055,2.038,5.706.321a.418.418,0,0,1,.4.408" fill="#ff3600"/>
    <path id="패스_19294" data-name="패스 19294" d="M22.588,23.784l.683-8.385H14.32l-.672,7.248,5.172.658Z" fill="#ff3600"/>
    <path id="패스_19295" data-name="패스 19295" d="M108.4,54.178l.552,7.728,3.607-.129,18.788-.8-.226-8.452L108.936,54h0l-.542.038Z" fill="#ff3600"/>
    <path id="패스_19296" data-name="패스 19296" d="M131.851,49.764l.078,1.928,9.262.9h.007l.145.016-.1-2.4-9.427-1.182Z" fill="#ff3600"/>
    <path id="패스_19297" data-name="패스 19297" d="M108.05,53.207l.834-.044,22.2-1.48L130.98,49l-18.609,1.5h-.007l-4.519.287Z" fill="#ff3600"/>
    <path id="패스_19298" data-name="패스 19298" d="M132.182,60.956h8.779l-.219-7.565-8.785-.853Z" fill="#ff3600"/>
    <path id="패스_19299" data-name="패스 19299" d="M23.61,10.878l.429-.022h0a.226.226,0,0,1,.026,0,.308.308,0,0,1,.061,0h0L36.3,12.935l.7-6.52L17.569,4.452l-.733,6.765,5.9-.3Z" fill="#ff3600"/>
    <path id="패스_19300" data-name="패스 19300" d="M146.867,97.766a2.73,2.73,0,0,0-.624-.811,2.367,2.367,0,0,0-.285-.215l-7.895.869a2.935,2.935,0,0,1,.128.373,7.48,7.48,0,0,1,.2,1.832,19.632,19.632,0,0,1-.8,5.128,9.477,9.477,0,0,1,.954-.689,21.259,21.259,0,0,1,2.679-1.4,7.2,7.2,0,0,1,2.941-.581,9.121,9.121,0,0,1,1.835.184c.024-.017.049-.036.077-.058a3.121,3.121,0,0,0,.494-.5,3.455,3.455,0,0,0,.726-2.208,4.759,4.759,0,0,0-.026-.494,4,4,0,0,0-.4-1.433" fill="#fff"/>
    <path id="패스_19301" data-name="패스 19301" d="M137.084,97.522a2.508,2.508,0,0,0-.453-.557c-.016-.014-.031-.022-.047-.035a2.152,2.152,0,0,0-.455-.251,2.983,2.983,0,0,0-1.122-.2,6.865,6.865,0,0,0-2.516.575,4.041,4.041,0,0,0-1.73,1.358,6.955,6.955,0,0,0-1.027,2.092,15.29,15.29,0,0,0-.593,4.409c0,.464.017.842.032,1.088a2.792,2.792,0,0,1,.3.088,2.315,2.315,0,0,1,1.141.835,2.184,2.184,0,0,1,.379,1.2.42.42,0,0,1-.839.027,1.373,1.373,0,0,0-.2-.709,1.265,1.265,0,0,0-.416-.4,2.043,2.043,0,0,0-.706-.258l-1.1.428a16.841,16.841,0,0,1-1.507,1.306,6.618,6.618,0,0,1-2.676,1.087,13.222,13.222,0,0,0-2.659.755,4.749,4.749,0,0,0-2.1,1.565,3.284,3.284,0,0,0-.519,1.207c.225-.071.457-.151.7-.246a24.29,24.29,0,0,1,8.973-1.879c.3,0,.586.007.851.019q.087,0,.177,0a8.294,8.294,0,0,0,3.214-.8,7.147,7.147,0,0,0,2.572-1.822q.27-.344.526-.7a6.976,6.976,0,0,0,1.172-1.982c.089-.294.189-.585.28-.88.13-.418.264-.929.385-1.485a17.6,17.6,0,0,0,.427-3.553,6.658,6.658,0,0,0-.171-1.621,2.562,2.562,0,0,0-.295-.671" fill="#fff"/>
    <path id="패스_19302" data-name="패스 19302" d="M131.348,48.131a.4.4,0,0,1,.085,0h0l4.915.616,1.165-.025a.33.33,0,0,0,.323-.338l-.059-2.459a.33.33,0,0,0-.337-.322l-5.851.128a.331.331,0,0,0-.323.338l.05,2.063Z" fill="#fff"/>
    <path id="패스_19303" data-name="패스 19303" d="M116.045,76.019a.449.449,0,0,1-.1.009l-5.171-.179,0,3.5H116.1V76.021Z" fill="#fff"/>
    <path id="패스_19304" data-name="패스 19304" d="M152.172,73.5l-3.9.278-31.33,2.233v3.31l35.339-2.107h.106Z" fill="#fff"/>
    <path id="패스_19305" data-name="패스 19305" d="M116.94,80.159V85.9l22.335-.986,10.209-.586a.419.419,0,0,1,.312.113l.007.008,2.346-.1-.247-6.271Z" fill="#fff"/>
    <path id="패스_19306" data-name="패스 19306" d="M65.119,119.343a8.846,8.846,0,0,1-.411,1.186c-.032.074-.068.144-.1.217.039-.013.081-.028.126-.047a1.173,1.173,0,0,0,.542-.42.968.968,0,0,0,.148-.547,1.772,1.772,0,0,0-.037-.338c-.089-.017-.179-.031-.266-.051" fill="#fff"/>
    <path id="패스_19307" data-name="패스 19307" d="M59.48,116.074a1.123,1.123,0,0,0-.211.649,1.294,1.294,0,0,0,.123.536,1.393,1.393,0,0,0,.13.23,8.075,8.075,0,0,0,.15-1.583.221.221,0,0,0-.047.019.476.476,0,0,0-.145.149" fill="#fff"/>
    <path id="패스_19308" data-name="패스 19308" d="M65.517,116.791a13.362,13.362,0,0,1-.206,1.724c.112.027.226.051.342.073.051-.033.111-.074.181-.129a1.881,1.881,0,0,0,.5-.579,1.12,1.12,0,0,0,.134-.524,1.231,1.231,0,0,0-.045-.314,7.894,7.894,0,0,1-.906-.251" fill="#fff"/>
    <path id="패스_19309" data-name="패스 19309" d="M65.5,114.512c.028.447.044.881.044,1.3,0,.025,0,.048,0,.073a9.477,9.477,0,0,0,1.134.35c.04-.025.085-.054.135-.091a1.542,1.542,0,0,0,.419-.436.672.672,0,0,0,.1-.342.644.644,0,0,0-.027-.179,5.8,5.8,0,0,1-1.8-.675" fill="#fff"/>
    <path id="패스_19310" data-name="패스 19310" d="M66.219,112.006c-.36-.292-.713-.613-1.168-1.006.161.865.282,1.687.364,2.471.111.075.22.146.326.21a4.985,4.985,0,0,0,1.776.69c.036-.024.075-.052.12-.088a1.446,1.446,0,0,0,.385-.459.933.933,0,0,0,.1-.426,1.083,1.083,0,0,0-.036-.268,7.7,7.7,0,0,1-1.869-1.124" fill="#fff"/>
    <path id="패스_19311" data-name="패스 19311" d="M41.546,120.087c-.07-.033-.137-.067-.205-.1s-.117-.059-.174-.09a10.58,10.58,0,0,1-2.133-1.475,9.8,9.8,0,0,1-1.5-1.653,1.661,1.661,0,0,0-.281-.214.581.581,0,0,0-.28-.094.253.253,0,0,0-.126.033.6.6,0,0,0-.181.172,1.3,1.3,0,0,0-.283.807,1.551,1.551,0,0,0,.113.562,1.666,1.666,0,0,0,.16.312l.011.017.021.031a8.692,8.692,0,0,0,2.745,2.941,6.876,6.876,0,0,0,2.135.872c.144.03.287.061.44.086l.033.006.021.006c.043-.008.107-.021.182-.042a1.745,1.745,0,0,0,.528-.24,1.138,1.138,0,0,0,.3-.3,1.184,1.184,0,0,0,.186-.682,2.249,2.249,0,0,0-.035-.352,8.193,8.193,0,0,1-1.682-.6" fill="#fff"/>
    <path id="패스_19312" data-name="패스 19312" d="M41.436,116.641a9.606,9.606,0,0,1-2.01-1.845l-.223-.254.017-.014-.017.014a2.17,2.17,0,0,0-.444-.408.559.559,0,0,0-.294-.105.373.373,0,0,0-.206.066,1.227,1.227,0,0,0-.311.3,1.025,1.025,0,0,0-.219.647,1.693,1.693,0,0,0,.141.639,2.533,2.533,0,0,0,.323.557l.018.026,0,0,.014.021.063.088c.057.078.143.193.259.334a9.749,9.749,0,0,0,1.043,1.083,9.164,9.164,0,0,0,3.941,2.1,2.716,2.716,0,0,0,.245-.16,2.131,2.131,0,0,0,.614-.666,1.3,1.3,0,0,0,.166-.632,1.445,1.445,0,0,0-.044-.342,9.241,9.241,0,0,1-3.079-1.454" fill="#fff"/>
    <path id="패스_19313" data-name="패스 19313" d="M43.379,115.065a13.781,13.781,0,0,1-2.814-2.646,3.365,3.365,0,0,0-.551-.527.435.435,0,0,0-.238-.074.448.448,0,0,0-.332.155.782.782,0,0,0-.179.544,2.952,2.952,0,0,0,.807,1.745,8.96,8.96,0,0,0,2.8,2.269,10.372,10.372,0,0,0,1.933.77c.055-.03.118-.066.191-.115a1.722,1.722,0,0,0,.51-.5.766.766,0,0,0,.126-.416.817.817,0,0,0-.031-.218,6.544,6.544,0,0,1-2.223-.987" fill="#fff"/>
    <path id="패스_19314" data-name="패스 19314" d="M44.533,112.425c-.6-.528-1.164-1.132-2.16-2.013A1.5,1.5,0,0,0,41.4,110a.843.843,0,0,0-.559.187.609.609,0,0,0-.2.482,1.963,1.963,0,0,0,.557,1.187,13.018,13.018,0,0,0,2.655,2.509,5.675,5.675,0,0,0,2,.878,1.862,1.862,0,0,0,.172-.114,1.662,1.662,0,0,0,.475-.535,1.1,1.1,0,0,0,.129-.52,1.393,1.393,0,0,0-.038-.291,8.655,8.655,0,0,1-2.052-1.361" fill="#fff"/>
    <path id="패스_19315" data-name="패스 19315" d="M36.685,104.217a5.237,5.237,0,0,0,1.168-1.065c.914-1.039,2.151-2.759,4.274-5.332a14.613,14.613,0,0,1,3.817-3.452c.062-.036.122-.065.182-.1a1.877,1.877,0,0,0-.144-.5,2.092,2.092,0,0,0-.414-.6,3.863,3.863,0,0,0-1.341-.84,8.334,8.334,0,0,0-2.2-.512h-.008a.408.408,0,0,1-.177-.054c-.435.223-.878.472-1.326.752-3.428,2.143-7.152,6.064-9.763,13.293a7.617,7.617,0,0,1,.928-.538,7.538,7.538,0,0,1,3.225-.8c.136,0,.273.006.41.016h.029c.094.007.183.011.269.011a1.963,1.963,0,0,0,1.073-.288m-1.377-1.424a1.26,1.26,0,0,1-1.131-1.811,20.509,20.509,0,0,1,1.513-2.5,19.807,19.807,0,0,1,4.127-4.4h0a1.259,1.259,0,0,1,1.521,2.006,17.3,17.3,0,0,0-3.584,3.841,18.539,18.539,0,0,0-1.315,2.158,1.257,1.257,0,0,1-1.132.707" fill="#fff"/>
    <path id="패스_19316" data-name="패스 19316" d="M40.421,95.749a1.169,1.169,0,0,1-.226-.156,1.108,1.108,0,0,1-.314-.487,20.787,20.787,0,0,0-4.95,6.245.416.416,0,0,0-.043.183.422.422,0,0,0,.236.378.421.421,0,0,0,.561-.193c.007-.014.038-.076.1-.189s.148-.274.262-.474c.229-.4.565-.95,1-1.578a18.7,18.7,0,0,1,3.376-3.729" fill="#fff"/>
    <path id="패스_19317" data-name="패스 19317" d="M49.292,89.977c-.1,0-.246-.011-.437-.011a15.379,15.379,0,0,0-5.672,1.184l.076.015a6.884,6.884,0,0,1,2.269.9,3.266,3.266,0,0,1,1.2,1.331,2.645,2.645,0,0,1,.178.512,4.569,4.569,0,0,1,1.631-.336,3.029,3.029,0,0,1,.556.05l.28-3.6-.055-.042-.03,0" fill="#fff"/>
    <path id="패스_19318" data-name="패스 19318" d="M10.554,60.872c-.045-.165-.09-.322-.134-.469l-.047-.028a3.373,3.373,0,0,0-.538-.236A7.691,7.691,0,0,0,7.3,59.775a14.559,14.559,0,0,0-2,.149,4,4,0,0,0-2.574,1.4,3.715,3.715,0,0,0-.874,2.316,2.384,2.384,0,0,0,.29,1.186,1.714,1.714,0,0,0,.846.746,2.446,2.446,0,0,0,.941.17,9.569,9.569,0,0,1,5.508,1.77c.319.223.6.446.842.654q-.031-.332-.032-.666a21.905,21.905,0,0,1,.635-4.163,1.948,1.948,0,0,0,.031-.373,5.8,5.8,0,0,0-.108-1c-.066-.364-.157-.742-.251-1.089" fill="#fff"/>
    <path id="패스_19319" data-name="패스 19319" d="M41.453,74.452A5.775,5.775,0,0,0,42.732,76a13.627,13.627,0,0,0,2.939-2.328l-4.471.3c.069.142.152.3.253.475" fill="#fff"/>
    <path id="패스_19320" data-name="패스 19320" d="M49.635,60.9a.793.793,0,0,0-.215-.508,1.773,1.773,0,0,0-.62-.412,5.492,5.492,0,0,0-2.065-.352c-.179,0-.356.007-.53.02l-.084.68,3.534.987c-.007-.161-.014-.3-.02-.415" fill="#fff"/>
    <path id="패스_19321" data-name="패스 19321" d="M15.774,69.781a5.5,5.5,0,0,1,.091-1,13.64,13.64,0,0,0,.26-2.312,2.712,2.712,0,0,0-.116-.908c-.183-.481-.453-1.022-.684-1.566a4.44,4.44,0,0,1-.43-1.65,1.765,1.765,0,0,1,.1-.594,1.515,1.515,0,0,1,.334-.537,2.177,2.177,0,0,1,1.033-.568,4.087,4.087,0,0,1,.852-.121,9.094,9.094,0,0,0-.607-.867l-5.9-.879a3.714,3.714,0,0,1,.333.713,3.914,3.914,0,0,1,.129.458,16.792,16.792,0,0,1,.455,1.777,6.776,6.776,0,0,1,.136,1.231,2.826,2.826,0,0,1-.046.535,21.274,21.274,0,0,0-.619,4,4.568,4.568,0,0,0,.349,1.878l0,0,0,0a8.046,8.046,0,0,0,2.032,2.874A8.733,8.733,0,0,0,15.937,73.8a10.238,10.238,0,0,0,1.92.591c-.327-.4-.687-.885-1.027-1.357a5.575,5.575,0,0,1-1.056-3.257" fill="#fff"/>
    <path id="패스_19322" data-name="패스 19322" d="M60.92,79.493a2.116,2.116,0,0,0-.34-1.089,1.658,1.658,0,0,0-.493-.523.962.962,0,0,0-.527-.161,1.311,1.311,0,0,0-.69.225h0a15.414,15.414,0,0,1-7.629,2.081,13.851,13.851,0,0,1-8.8-3.191l0,0a6.339,6.339,0,0,1-1.712-1.959,8.208,8.208,0,0,1-.425-.836l-8.447.576a.425.425,0,0,1-.114.018.418.418,0,0,1-.319-.15l-7.905-4.15a5.578,5.578,0,0,1-.49.866,7.172,7.172,0,0,1-.476.626.42.42,0,1,1-.632-.552v0l.006-.006.024-.028.091-.112c.076-.1.182-.236.293-.4a3.829,3.829,0,0,0,.529-1.048V65.46a5.739,5.739,0,0,0-.385-1.052l-.167-.079a.422.422,0,0,1-.241-.38v-.235q-.139-.2-.291-.378l-.069-.078c-.067-.075-.156-.171-.263-.276a5.351,5.351,0,0,0-.876-.688,6.5,6.5,0,0,0-2.131-.842l-.055-.01c-.05-.008-.125-.02-.217-.032a5.751,5.751,0,0,0-.72-.047,3.491,3.491,0,0,0-.877.1,1.359,1.359,0,0,0-.641.339.66.66,0,0,0-.149.238.928.928,0,0,0-.048.311,3.719,3.719,0,0,0,.364,1.323c.216.511.489,1.057.695,1.593a3.505,3.505,0,0,1,.171,1.208,14.519,14.519,0,0,1-.274,2.465,4.614,4.614,0,0,0-.077.843,4.735,4.735,0,0,0,.9,2.767c.254.352.518.709.767,1.028s.484.6.669.8a1.887,1.887,0,0,0,.263.242c.311.179.619.35.925.516a34.388,34.388,0,0,0,9.5,3.561,25.881,25.881,0,0,0,5.179.545,17.736,17.736,0,0,0,4.467-.51l.221-.062.117-.036.018-.006a2.17,2.17,0,0,0,.39-.277c.13-.112.231-.214.248-.232l0,0a.419.419,0,1,1,.606.58c-.006.006-.117.122-.28.264-.031.027-.065.055-.1.083.333.269.666.526,1,.762a17.654,17.654,0,0,0,2.853,1.646,16.157,16.157,0,0,0,2.108.79c.258.077.514.145.77.207q.256.063.51.115a17.339,17.339,0,0,0,3.465.349,18.365,18.365,0,0,0,4.354-.532.431.431,0,0,1,.129-.054l.025-.006L55.8,82.3c.071-.017.176-.042.308-.077.265-.069.64-.173,1.078-.316l.088-.029a17.877,17.877,0,0,0,2.642-1.145c.08-.045.161-.09.239-.138a.3.3,0,0,1,.032-.012c.162-.094.251-.151.255-.154a.978.978,0,0,0,.364-.4,1.2,1.2,0,0,0,.117-.537" fill="#fff"/>
    <path id="패스_19323" data-name="패스 19323" d="M96.075,89.6a4.033,4.033,0,0,1-2.457,1.091,4.407,4.407,0,0,0,2.894-.5,3.979,3.979,0,0,0,.841-.654l-.845-.475a3.011,3.011,0,0,1-.433.539" fill="#fff"/>
    <path id="패스_19324" data-name="패스 19324" d="M64.2,118.41a.419.419,0,0,0-.508.306,6.629,6.629,0,0,1-.908,2.122,5.061,5.061,0,0,1-1.484,1.453c-.132.084-.265.164-.4.238a.419.419,0,1,0,.406.734c.149-.083.3-.171.445-.266a5.9,5.9,0,0,0,1.727-1.691,7.47,7.47,0,0,0,1.026-2.388.419.419,0,0,0-.306-.508" fill="#fff"/>
    <path id="패스_19325" data-name="패스 19325" d="M88.343,116.951a.419.419,0,0,0-.46.374,8.845,8.845,0,0,1-.867,3.17,5.525,5.525,0,0,1-1.108,1.49.419.419,0,1,0,.576.609,6.364,6.364,0,0,0,1.278-1.713,9.684,9.684,0,0,0,.955-3.47.42.42,0,0,0-.374-.46" fill="#fff"/>
    <path id="패스_19326" data-name="패스 19326" d="M36.192,44.081,15.823,41.3,1.48,39.342l-.6,6.088,34.448,4.821Z" fill="#fff"/>
    <path id="패스_19327" data-name="패스 19327" d="M1.163,38.452l34.94,4.77.288-2.783L1.354,34.9.891,38.418l.267.033Z" fill="#fff"/>
    <path id="패스_19328" data-name="패스 19328" d="M42.02,40.725l-4.794-.2L36.939,43.3h4.778Z" fill="#fff"/>
    <path id="패스_19329" data-name="패스 19329" d="M79.5,44.754A9.845,9.845,0,0,0,81.06,47.29a6.425,6.425,0,0,0,2.091,1.627,3.663,3.663,0,0,0,1.99.436,2.054,2.054,0,0,0,1.462-.96,6.6,6.6,0,0,0,.9-2.556,25.17,25.17,0,0,0,.306-4.33v-.716l-4.795-2.3v3.669l1.242.6a3.229,3.229,0,0,1-.332,1.676.616.616,0,0,1-.876.261,2.339,2.339,0,0,1-1-1.728,18.076,18.076,0,0,1-.306-3.725,13.95,13.95,0,0,1,.306-3.431q.306-1.1,1-.764a1.613,1.613,0,0,1,.8.868,5.054,5.054,0,0,1,.34,1.456l3.35-.053q-1.377-4.977-4.387-6.423a3.277,3.277,0,0,0-2.057-.365,2.525,2.525,0,0,0-1.556,1.042,6.376,6.376,0,0,0-.986,2.366A16.155,16.155,0,0,0,78.2,37.54a21.9,21.9,0,0,0,.332,3.921,15.05,15.05,0,0,0,.969,3.293" fill="#fff"/>
    <path id="패스_19330" data-name="패스 19330" d="M89.629,49.547a10.52,10.52,0,0,0,1.539,2.574,5.965,5.965,0,0,0,2,1.606,2.985,2.985,0,0,0,1.99.309A2.685,2.685,0,0,0,96.7,52.943a6.472,6.472,0,0,0,.995-2.372,15.585,15.585,0,0,0,.348-3.5,20.5,20.5,0,0,0-.348-3.837A15.944,15.944,0,0,0,96.7,39.9a10.674,10.674,0,0,0-1.547-2.589,5.935,5.935,0,0,0-1.99-1.614,2.913,2.913,0,0,0-2-.3,2.759,2.759,0,0,0-1.539,1.108,6.455,6.455,0,0,0-.994,2.372,15.523,15.523,0,0,0-.349,3.5,20.408,20.408,0,0,0,.349,3.837,15.884,15.884,0,0,0,.994,3.328m2.585-8.718q.339-1.036.952-.743t.952,1.657a15.388,15.388,0,0,1,.34,3.6,11.292,11.292,0,0,1-.34,3.264q-.34,1.024-.952.731t-.952-1.646a15.227,15.227,0,0,1-.34-3.59,11.415,11.415,0,0,1,.34-3.276" fill="#fff"/>
    <path id="패스_19331" data-name="패스 19331" d="M97.706,42.381l1.955.939V56.545l3.469,1.666V44.985l1.955.939V41.747L97.706,38.2Z" fill="#fff"/>
    <path id="패스_19332" data-name="패스 19332" d="M80.634,49.073l-2.244,7.3,3.4,1.633,1.582-7.62Z" fill="#fff"/>
    <path id="패스_19333" data-name="패스 19333" d="M83.883,68.035l6.427,3.086V66.943l-2.975-1.428V62.86L90,64.142V60.218l-2.669-1.281V56.375L90.31,57.8V53.718l-6.427-3.086Z" fill="#fff"/>
    <path id="패스_19334" data-name="패스 19334" d="M98.794,57.792l-.884,5.877q-.086.63-.162,1.33c-.051.468-.093.964-.127,1.485q-.051-.855-.1-1.606t-.136-1.463L96.6,56.74l-4.3-2.066L90.8,71.358l3.673,1.763.289-7.8c.023-.526.045-1.044.068-1.548s.04-1.023.051-1.557q.051.948.136,1.82t.17,1.674l.918,8.2L98.93,75.26l1.088-7.232q.1-.714.2-1.5t.144-1.686c.023.551.037,1.084.043,1.6s.019,1.051.042,1.6l.255,8.061,3.622,1.739-1.258-18.007Z" fill="#fff"/>
    <path id="패스_19335" data-name="패스 19335" d="M58.573,51.3l6.481.54-.219-1.5L58.4,49.789Z" fill="#fff"/>
    <path id="패스_19336" data-name="패스 19336" d="M58.088,47.036l3.071.283-2.952.632.164,1.5,6.424.557L64.572,48.5l-2.781-.262,2.678-.488-.255-1.565-6.306-.575Z" fill="#fff"/>
    <path id="패스_19337" data-name="패스 19337" d="M63.3,66.6l-3.091-7.675.633.024L60.6,57.229l1.594.091.177,1.441,1.193.067-.195-1.414,1.317.1.2,1.4L66.108,59l-.658-4.448-2-1.04,1.886.193-.236-1.52-6.472-.545.2,1.545,2.8.217-2.7.81.243,2.106-2.747-6.735a3.935,3.935,0,0,1-.188-3.277c1.034-1.951,3.6-1.349,4.362-1.095a19.506,19.506,0,0,0-2.975-1.484c-1.644-.561-3.348-.555-4.368.387-1.867,1.708-.686,4.377.277,6.05ZM62.65,54.509l2.769,1.435.121.081L59.5,55.559Z" fill="#fff"/>
    <path id="패스_19338" data-name="패스 19338" d="M74.8,95.724l1.257.615L81.9,93.01,80.635,92.4Z" fill="#fff"/>
    <path id="패스_19339" data-name="패스 19339" d="M72.467,94.582l2.807-1.595-2.012,1.969,1.262.625,5.836-3.326-1.294-.626L76.5,93.08l1.926-1.77-1.389-.648-5.816,3.325Z" fill="#fff"/>
    <path id="패스_19340" data-name="패스 19340" d="M83.3,98.591l-1.367-.635,1.376-.808,1.123.554,1.031-.6-1.115-.539L85.51,95.9l1.1.538,1.08-.619L84.133,94.1,81.72,94.7l1.728-.949-1.269-.6-5.828,3.315,1.282.606,2.483-1.423L78.45,97.488l1.679.82-7.123-1.591c-1.453-.321-2.394-.833-2.649-1.447-.652-1.534,1.986-2.7,2.836-3.013a33.5,33.5,0,0,0-3.684.965c-1.833.661-3.258,1.635-3.354,2.667-.185,1.845,2.857,2.429,4.91,2.669l19.195,2.057-7.5-1.7Zm-3.427-.8,1.877-2.18,3.313-.839.157-.028Z" fill="#fff"/>
    <path id="패스_19341" data-name="패스 19341" d="M18.269,22.351l3.225.374a.334.334,0,0,0,.372-.308l.149-2.128a.334.334,0,0,0-.307-.356l-3.216-.256a.335.335,0,0,0-.36.307l-.157,2.009a.334.334,0,0,0,.294.358" fill="#fff"/>
    <path id="패스_19342" data-name="패스 19342" d="M47.357,69.561a.385.385,0,0,0-.357.374l-.014,1.8a.325.325,0,0,0,.351.33l5.409-.33a.385.385,0,0,0,.357-.374l.014-1.8a.326.326,0,0,0-.352-.33Z" fill="#fff"/>
    <path id="패스_19343" data-name="패스 19343" d="M130.528,91.485a.286.286,0,0,0-.282-.281.269.269,0,0,0-.261.32.273.273,0,0,0,.27.253.287.287,0,0,0,.273-.292" fill="#fff"/>
    <path id="패스_19344" data-name="패스 19344" d="M126.806,91.514a11.831,11.831,0,0,0-1.231,1.545,3.4,3.4,0,0,0-.591,1.706,1.38,1.38,0,0,0,.185.732,1.317,1.317,0,0,0,.576.522,1.766,1.766,0,0,0,.748.152,5.193,5.193,0,0,0,1.967-.507l1.868-.795-.045.149.006.009.362-.023.014-.01.091-.307.364-.155c.025.121.045.216.048.228a.739.739,0,0,0,.046.163c.118.2.295.061.383-.015.12-.1.518-.481.578-.547.039-.027.049,0,.057.032a.641.641,0,0,0,.243.493c.213.124.495-.03.712-.286a1.408,1.408,0,0,0,.315-.542.319.319,0,0,0-.1-.152l-.012,0c-.1.331-.345.7-.607.728-.351.041-.155-.695-.147-.748.032-.012.069-.03.111-.051l5.778-2.458-.036-.1-4.854,1.341a.4.4,0,0,0-.384-.248.985.985,0,0,0-.649.533l-.377.1a.514.514,0,0,0,.02-.07c.041-.206.045-.374-.072-.445a.47.47,0,0,0-.368.015,1.856,1.856,0,0,0-.5.415c-.019.022-.029.018-.029.018l.456-1.53a.665.665,0,0,0,.026-.244c-.03-.072-.087-.06-.087-.06s-.43.033-.585.039c-.076.007-.083.148-.011.16.035.007.168-.025.226.041s.014.25.014.25l-.55,1.815-.654.181c.038-.123.125-.409.158-.576.042-.216-.023-.32-.093-.367a.25.25,0,0,0-.246,0,1.191,1.191,0,0,0-.253.279c-.009.015-.29.5-.546.936l-.476.131.207-.667a1.267,1.267,0,0,0,.077-.353.252.252,0,0,0-.276-.261.7.7,0,0,0-.352.194,2.244,2.244,0,0,0-.379.483l-.027-.014a1.024,1.024,0,0,0,0-.485.217.217,0,0,0-.254-.107c-.216.088-.375.384-.43.464a2.384,2.384,0,0,0-.24.54s.089.136.116.171l.011,0c.037-.079.127-.351.2-.488s.113-.147.164-.143.034.173.034.173l-.192.64a1.06,1.06,0,0,1-.467-.187,1.082,1.082,0,0,1-.431-.922,3.122,3.122,0,0,1,.476-1.447Zm6.862,1.313a.3.3,0,0,0,0-.094v-.01l4.047-1.118-4.493,1.911.016-.013.1-.1a1.092,1.092,0,0,0,.326-.578m-.345-.188a.088.088,0,0,1,.062.047l-.319.089c.066-.107.137-.163.257-.136m-.4.417c.023-.046.046-.089.065-.131l.008-.014.414-.115v.011a1.056,1.056,0,0,1-.278.555,1.831,1.831,0,0,1-.251.242l-.162.069-.008-.027a3,3,0,0,1,.213-.59m-.7,1.061a4.068,4.068,0,0,1-.477.414.159.159,0,0,1-.263-.094l-.011-.051.756-.321c0,.026,0,.044,0,.052m-.063-.958.012-.02.363-.1-.009.017c-.022.04-.044.082-.066.123a2.364,2.364,0,0,0-.208.693l-.009.065-.793.338-.01-.056c-.032-.177-.07-.392-.076-.406,0-.029-.01-.047.005-.062a1.279,1.279,0,0,0,.559-.328,2.774,2.774,0,0,0,.232-.264m-.459-.269c.13-.022.238.055.239.143l0,.056-.741.2c.063-.086.279-.366.5-.4m-.563.555.007-.022.732-.2-.015.021a1.316,1.316,0,0,1-.1.112,1.072,1.072,0,0,1-.627.313c-.014,0-.06,0-.054-.033Zm-.311,1.034.154-.519.014-.011.016.006s.043.207.084.411l.012.055-.3.127Zm-.749-.737.007-.026.654-.181-.007.023-.332,1.1-.021.068-.395.168.088-.1a1.262,1.262,0,0,0,.219-.42.563.563,0,0,0-.1-.151l-.007,0a.865.865,0,0,1-.137.3c-.214.307-.226.125-.2.033.014-.056.173-.6.237-.821m-.336-.629c.031-.05.065-.1.1-.078s.026.1-.013.247c-.033.119-.076.268-.122.423l-.352.1c.2-.349.372-.666.387-.689m-1.113,1,.435-.12-.02.035c-.147.253-.271.466-.309.529-.088.15-.173.236-.23.23-.089-.012,0-.267,0-.267l.116-.373Zm-.919.019c.023-.062.264-.468.285-.5.089-.136.331-.552.492-.527.059.009.042.158.042.158l-.254.826a3.172,3.172,0,0,1-.573.069Zm-1.393-1.111a1.2,1.2,0,0,0,.475,1.012,1.155,1.155,0,0,0,.5.2l-.019.066-.284.948.01.01.353-.018.013-.015c.023-.084.144-.521.275-.9l.019-.056a3.238,3.238,0,0,0,.578-.062l-.013.041c-.1.335-.193.635-.2.661-.047.2.081.362.244.328a.957.957,0,0,0,.551-.481l.441-.789.017-.033.389-.107-.008.027c-.128.421-.26.839-.26.839a.6.6,0,0,0,.015.383l.054.037-1.045.444a5.1,5.1,0,0,1-1.923.5,1.684,1.684,0,0,1-.7-.141,1.207,1.207,0,0,1-.528-.479,1.268,1.268,0,0,1-.17-.674,3.277,3.277,0,0,1,.575-1.647,9.212,9.212,0,0,1,.912-1.184,2.789,2.789,0,0,0-.274,1.091" fill="#fff"/>
    <path id="패스_19345" data-name="패스 19345" d="M26.389,7.4a.25.25,0,0,0,.035-.5c-.211-.011-.248.165-.252.258a.241.241,0,0,0,.217.241" fill="#fff"/>
    <path id="패스_19346" data-name="패스 19346" d="M22.138,10.737a1.546,1.546,0,0,0,.6.185l.869-.044a6.269,6.269,0,0,0,.917-.24l1.686-.547-.05.126,0,.009.317.008.013-.008.1-.26.329-.106c.012.106.022.191.024.2a.581.581,0,0,0,.028.144c.086.182.251.077.334.018.111-.081.487-.379.545-.432.035-.02.042.005.046.033a.562.562,0,0,0,.173.447c.176.125.433.012.642-.193a1.23,1.23,0,0,0,.316-.448.278.278,0,0,0-.071-.139h-.011c-.111.281-.354.582-.584.587-.308.009-.081-.616-.07-.662a.779.779,0,0,0,.1-.036l5.216-1.69L33.591,7.6l-4.325.79a.348.348,0,0,0-.315-.245.862.862,0,0,0-.6.414l-.336.061.023-.06c.052-.176.068-.321-.028-.392a.41.41,0,0,0-.322-.016,1.644,1.644,0,0,0-.467.322l-.026.014.514-1.3a.57.57,0,0,0,.041-.209c-.02-.065-.07-.059-.07-.059s-.377-.005-.512-.011c-.067,0-.084.121-.022.138.03.008.148-.009.193.053s-.007.218-.007.218l-.619,1.536-.582.107c.042-.1.141-.347.182-.489.053-.184,0-.28-.053-.326a.217.217,0,0,0-.213-.02,1.031,1.031,0,0,0-.242.223l-.547.771-.425.078.232-.564a1.088,1.088,0,0,0,.094-.3.22.22,0,0,0-.219-.248.618.618,0,0,0-.322.142,1.968,1.968,0,0,0-.367.391L24.224,8.6a.876.876,0,0,0,.039-.422.19.19,0,0,0-.212-.112c-.195.06-.356.305-.41.37a2.09,2.09,0,0,0-.25.451s.066.125.088.158l.009,0c.039-.066.137-.3.209-.409s.109-.119.154-.111.016.152.016.152l-.216.542a.924.924,0,0,1-.392-.2.942.942,0,0,1-.3-.835,2.717,2.717,0,0,1,.525-1.221L23.409,6.9a10.289,10.289,0,0,0-1.19,1.249,2.963,2.963,0,0,0-.646,1.438,1.2,1.2,0,0,0,.1.651,1.151,1.151,0,0,0,.46.5m7.137-2.163a.332.332,0,0,0,.009-.082V8.484l3.606-.659L28.834,9.139l.015-.01.1-.078a.952.952,0,0,0,.329-.477m-.286-.19a.079.079,0,0,1,.05.046l-.284.052c.066-.087.132-.131.234-.1m-.384.331.067-.108.007-.012.369-.068v.01A.943.943,0,0,1,28.762,9a1.62,1.62,0,0,1-.237.19l-.146.048,0-.024a2.576,2.576,0,0,1,.231-.5m-.695.868a3.622,3.622,0,0,1-.447.324.139.139,0,0,1-.221-.1l-.005-.046.681-.221-.008.045m.019-.837.012-.017.324-.059-.01.014-.066.1a2.063,2.063,0,0,0-.235.587l-.013.056-.715.232,0-.05c-.015-.156-.031-.346-.035-.358s-.005-.042.009-.054a1.117,1.117,0,0,0,.511-.242,2.467,2.467,0,0,0,.222-.211m-.378-.27c.115-.009.2.066.2.143l-.006.048-.66.121a.876.876,0,0,1,.469-.312m-.532.439.008-.018.651-.119-.014.017a1.251,1.251,0,0,1-.1.089A.933.933,0,0,1,27,9.108c-.013,0-.053,0-.045-.034Zm-.177.435.013-.008.014.007s.021.183.041.363l.006.049-.271.088.023-.059Zm-.768-.258.009-.023.582-.106-.008.018-.374.935-.024.058-.356.115.084-.078a1.105,1.105,0,0,0,.223-.348.49.49,0,0,0-.079-.139l-.006,0a.739.739,0,0,1-.142.248c-.21.251-.207.091-.178.013.016-.048.2-.507.269-.695m-.243-.573c.031-.042.063-.078.092-.06s.015.088-.03.213c-.038.1-.087.227-.139.359l-.313.057c.2-.289.375-.551.39-.569m-1.046.788.388-.071-.02.028c-.148.209-.272.385-.31.436-.088.124-.169.192-.218.182-.077-.017.019-.232.019-.232l.13-.315Zm-.8-.055c.025-.052.266-.387.287-.416.088-.111.33-.454.469-.42.05.013.024.141.024.141s-.142.349-.285.7a2.819,2.819,0,0,1-.5.016ZM21.67,9.6A2.867,2.867,0,0,1,22.3,8.209a8.117,8.117,0,0,1,.885-.959,2.445,2.445,0,0,0-.323.928,1.042,1.042,0,0,0,.335.916,1,1,0,0,0,.42.218l-.022.056-.32.8.008.009.309.012.012-.012c.027-.071.166-.442.31-.766l.02-.047a2.737,2.737,0,0,0,.508-.01l-.014.036c-.116.283-.217.536-.225.559-.056.17.042.321.187.3a.834.834,0,0,0,.516-.376c.018-.026.228-.335.445-.651l.017-.028.346-.063L25.7,9.16c-.143.356-.291.709-.291.709a.519.519,0,0,0-.016.334l.044.037-.943.306a4.435,4.435,0,0,1-1.71.284,1.46,1.46,0,0,1-.6-.177,1.056,1.056,0,0,1-.422-.457,1.1,1.1,0,0,1-.095-.6" fill="#fff"/>
    <path id="패스_19347" data-name="패스 19347" d="M131.929,70.25l1.153-3.742-.879.048-1.152,3.739Z" fill="#fac126"/>
    <path id="패스_19348" data-name="패스 19348" d="M129.421,70.378l.557-1.8-.009,1.759.885-.041,1.154-3.739-.9.05-.514,1.639.062-1.618-.955.067-1.145,3.733Z" fill="#fac126"/>
    <path id="패스_19349" data-name="패스 19349" d="M136.279,69.606l.1-.353-.94.068.262-.895.786-.037.2-.669-.775.044.23-.745.77-.041.212-.694-2.477.139-.84,1.108.358-1.087-.877.056-1.155,3.731.885-.058.487-1.6.09,1.575,1.173-.061-4.081,1.336a2.311,2.311,0,0,1-1.921.009c-1.03-.671-.349-2.169-.1-2.615a14.035,14.035,0,0,0-1.265,1.713,2.538,2.538,0,0,0-.306,2.58c.786,1.112,2.483.487,3.556-.023l9.94-4.877Zm-1.883.27-.154-1.837,1.151-1.523.06-.066Z" fill="#fac126"/>
    <path id="패스_19350" data-name="패스 19350" d="M20.845,32.794l1.634-3.251-.813-.092L20.033,32.7Z" fill="#fac126"/>
    <path id="패스_19351" data-name="패스 19351" d="M18.527,32.524l.788-1.56-.28,1.611.817.1,1.634-3.248-.832-.093-.724,1.422.307-1.473-.886-.085L17.726,32.44Z" fill="#fac126"/>
    <path id="패스_19352" data-name="패스 19352" d="M25.073,32.567l-.871-.083.378-.779.726.087.283-.583-.717-.079.327-.647.711.081.3-.6-2.291-.254-.94.885.5-.941-.813-.084-1.634,3.24.82.083.693-1.387-.161,1.457,1.084.125-3.945.6a2.146,2.146,0,0,1-1.762-.289c-.84-.773.015-2.041.313-2.411a13.076,13.076,0,0,0-1.423,1.374,2.356,2.356,0,0,0-.679,2.317c.548,1.14,2.2.829,3.261.527l9.86-2.933-4.16.61Zm-1.91.265.143-1.706,1.29-1.219.065-.05Z" fill="#fac126"/>
    <path id="패스_19353" data-name="패스 19353" d="M115.035,65.762V62.714l-.432.19-4.889,2.14v.022l.009.273c1.025.083,3.738.3,5.182.413l.129.01" fill="#252f38"/>
    <path id="패스_19354" data-name="패스 19354" d="M115.4,66.894l-4.28,1.966v5.187l4.413,1.031Z" fill="#252f38"/>
    <path id="패스_19355" data-name="패스 19355" d="M44.37,30.794h-.008l-5.7-.112-.047,0-.3-.04-.916,8.725,6.533-.334.654-8.235Z" fill="#252f38"/>
    <path id="패스_19356" data-name="패스 19356" d="M38.9,29.819l6.841.128V27.061L39.321,26.7Z" fill="#252f38"/>
    <path id="패스_19357" data-name="패스 19357" d="M54.045,96.615l-4.736-2.057c-.007,0-.012-.008-.019-.011l-.016-.007h0l-.023-.011a1.093,1.093,0,0,0-.129-.046,2.09,2.09,0,0,0-.579-.075,3.637,3.637,0,0,0-1.229.241c.11.115.232.248.363.4a8.361,8.361,0,0,1,1.38,2.218,5.4,5.4,0,0,1,.419,2.031,4.544,4.544,0,0,1-.131,1.089,3.578,3.578,0,0,1,.646-.069c.046,0,.075,0,.084,0a.42.42,0,0,1-.057.838h-.027a3.8,3.8,0,0,0-1.571.418,7.259,7.259,0,0,0-2.85,2.663.42.42,0,1,1-.7-.464,8.1,8.1,0,0,1,3.186-2.955c.108-.052.213-.1.315-.139a3.808,3.808,0,0,0,.254-1.126l-.071.059-1.121.936c-.944.789-2.244,1.876-3.668,3.069-2.847,2.385-6.19,5.195-8.165,6.887a10.916,10.916,0,0,0-1.593,1.667,6.079,6.079,0,0,0-.86,1.481,2.068,2.068,0,0,0-.153.7.677.677,0,0,0,.033.227.259.259,0,0,0,.069.109.451.451,0,0,0,.162.084,1.768,1.768,0,0,0,.334.071c.264.036.581.043.877.06a3.044,3.044,0,0,1,.572.076.9.9,0,0,1,.328.155.626.626,0,0,1,.164.192.613.613,0,0,1,.071.284.743.743,0,0,1-.06.28,1.19,1.19,0,0,1-.13.23,3.165,3.165,0,0,1-.428.468,6.627,6.627,0,0,1-1.774,1.228,3.782,3.782,0,0,1-1.551.354,3.274,3.274,0,0,1-1.946-.653l-.016-.012c-.1,1-.177,2.32-.24,3.747-.08,1.835-.127,3.846-.127,5.577,0,1.535.038,2.858.119,3.62a8.458,8.458,0,0,0,.147.951,2.008,2.008,0,0,0,.163.488.373.373,0,0,0,.04.062l.037-.013a1.287,1.287,0,0,0,.187-.115c.153-.111.347-.284.565-.477a1.221,1.221,0,0,1,.409-.239,1.365,1.365,0,0,1,.448-.073,2.4,2.4,0,0,1,1.028.276,5.643,5.643,0,0,1,.962.615,9.307,9.307,0,0,1,1.209,1.128c.134-.1.306-.233.511-.4a18.077,18.077,0,0,0,1.921-1.833,15.468,15.468,0,0,0,3.577-6.4c-.048,0-.1,0-.145,0a3.863,3.863,0,0,1-1.28-.2,2.642,2.642,0,0,1-.917-.54,2.9,2.9,0,0,1-.846-1.547,4.473,4.473,0,0,1-.1-.948c0-.2.012-.363.025-.485a11.335,11.335,0,0,1-1.4-1.864,2.35,2.35,0,0,1-.218-.388,2.422,2.422,0,0,1-.22-.987,2.159,2.159,0,0,1,.45-1.311,1.413,1.413,0,0,1,.45-.4,1.084,1.084,0,0,1,.521-.136,2.286,2.286,0,0,1-.079-.579,1.864,1.864,0,0,1,.394-1.161,2.033,2.033,0,0,1,.535-.5,1.23,1.23,0,0,1,.645-.19c.023,0,.044,0,.066,0a2.548,2.548,0,0,1-.1-.678,1.625,1.625,0,0,1,.4-1.108,1.292,1.292,0,0,1,.953-.43c.017,0,.033,0,.049,0a1.849,1.849,0,0,1-.03-.311,1.453,1.453,0,0,1,.489-1.112,1.673,1.673,0,0,1,1.112-.395,2.338,2.338,0,0,1,1.535.619c1.018.9,1.607,1.524,2.16,2.013a7.573,7.573,0,0,0,1.694,1.152,54.492,54.492,0,0,1-1.914-5.4,2.931,2.931,0,0,1,.471-2.557,2.93,2.93,0,0,1,1.554-1.07,2.969,2.969,0,0,1,.8-.112,2.939,2.939,0,0,1,2.824,2.137c.277.975.633,2.055,1.048,3.165.349-.438.822-1.066,1.289-1.771a14.262,14.262,0,0,0,1.372-2.525,4.223,4.223,0,0,0,.339-1.47,1.224,1.224,0,0,0-.217-.762c-.006-.008-.01-.017-.015-.025s-.013-.018-.019-.027a4.552,4.552,0,0,0-.522-.809,1.478,1.478,0,0,0-.67-.457,2.349,2.349,0,0,0-.742-.1,4.526,4.526,0,0,0-.517.033.419.419,0,0,1-.1-.833,5.237,5.237,0,0,1,.616-.039,3.169,3.169,0,0,1,1.008.148,2.288,2.288,0,0,1,.752.421,3.189,3.189,0,0,1,.65.787,3.5,3.5,0,0,0,.818-1.359c-.62-1.547-1.181-2.838-1.568-3.7M43.95,108.185a.534.534,0,1,1,.534-.534.535.535,0,0,1-.534.534" fill="#50cc1a"/>
    <path id="패스_19358" data-name="패스 19358" d="M33.321,132.924a5.764,5.764,0,0,0-1.217-.856,1.575,1.575,0,0,0-.66-.191.532.532,0,0,0-.172.026.4.4,0,0,0-.129.076c-.161.142-.317.282-.472.407a2.361,2.361,0,0,1-.487.319.972.972,0,0,1-.407.1.774.774,0,0,1-.277-.051.818.818,0,0,1-.243-.15,1.279,1.279,0,0,1-.312-.466,5.928,5.928,0,0,1-.33-1.591c-.088-.828-.124-2.157-.124-3.709,0-1.747.047-3.766.128-5.614s.193-3.5.327-4.57v-.03c0-.028,0-.029,0-.035v-.044l0-.015v0l0-.006a11.81,11.81,0,0,1,1.577-4.345,16.292,16.292,0,0,1,2.5-3.22c.49-1.071,1.241-2.752,1.633-3.631a6.544,6.544,0,0,0-1.941.413,6.872,6.872,0,0,0-1.832,1.006,3.434,3.434,0,0,0-.708.729q-.528,1.674-.974,3.566a71.482,71.482,0,0,0-2.258,15.784,16.71,16.71,0,0,0,1,6.439,4.622,4.622,0,0,0,1.87,2.345,2.935,2.935,0,0,0,1.014.358,2.109,2.109,0,0,0,.318.024,2.9,2.9,0,0,0,1.495-.466,3.749,3.749,0,0,0,1.159-1.126,2.583,2.583,0,0,0,.31-.664,8.35,8.35,0,0,0-.8-.806" fill="#50cc1a"/>
    <path id="패스_19359" data-name="패스 19359" d="M44.064,107.651h0" fill="#50cc1a"/>
    <path id="패스_19360" data-name="패스 19360" d="M38.219,121.5a3.252,3.252,0,0,0,.09.567,2.115,2.115,0,0,0,.418.848,1.688,1.688,0,0,0,.535.421,2.729,2.729,0,0,0,1.246.255c.14,0,.292-.01.451-.025l.38-.55a7.348,7.348,0,0,1-1.844-.646,6.927,6.927,0,0,1-1.276-.87" fill="#50cc1a"/>
    <path id="패스_19361" data-name="패스 19361" d="M28.974,116.456a.208.208,0,0,0-.009.027l.008-.022v0" fill="#50cc1a"/>
    <path id="패스_19362" data-name="패스 19362" d="M28.977,116.448v0h0l0,0,0,0" fill="#50cc1a"/>
    <path id="패스_19363" data-name="패스 19363" d="M37.816,105.1c1.64-1.15,3.372-2.256,4.954-3.221,3.163-1.93,5.723-3.294,5.728-3.3a.419.419,0,0,1,.063-.026,4.934,4.934,0,0,0-.273-.943,6.9,6.9,0,0,0-.789-1.42,8.492,8.492,0,0,0-1-1.168c-.046.025-.09.047-.138.074a13.806,13.806,0,0,0-3.589,3.259c-1.582,1.917-2.664,3.353-3.51,4.412a9.074,9.074,0,0,1-2.148,2.171,2.813,2.813,0,0,1-1.5.407l-.035,0c-.188.422-.579,1.3-.984,2.2.976-.816,2.075-1.642,3.223-2.447" fill="#50cc1a"/>
    <path id="패스_19364" data-name="패스 19364" d="M29.261,116.2l-.011,0,.007,0h0" fill="#50cc1a"/>
    <path id="패스_19365" data-name="패스 19365" d="M29.155,116.243l-.008,0h0l.008-.005" fill="#50cc1a"/>
    <path id="패스_19366" data-name="패스 19366" d="M28.962,116.493l0,.006h0v-.006" fill="#50cc1a"/>
    <path id="패스_19367" data-name="패스 19367" d="M53.773,112.286a14.574,14.574,0,0,1,2.091-2.962c.38-.941.953-2.4,1.272-3.208a5.744,5.744,0,0,0-1.5.387,6.145,6.145,0,0,0-1.657.979,3.071,3.071,0,0,0-.615.683c-.267,1-.509,2.065-.72,3.2-.017.089-.032.175-.048.264.237.536.484,1.065.74,1.58.133-.312.28-.619.438-.919" fill="#0071c2"/>
    <path id="패스_19368" data-name="패스 19368" d="M63.359,100.66q-.479.652-.876,1.212c.184.52.368,1.051.548,1.591.408-.283.811-.56,1.2-.824.507-.342,1-.666,1.458-.966Z" fill="#0071c2"/>
    <path id="패스_19369" data-name="패스 19369" d="M62.135,123.6a7.32,7.32,0,0,1-3.969,1.227,6.971,6.971,0,0,1-2.482-.466,8.923,8.923,0,0,1-2.38-1.384c.016.7.037,1.39.064,2.042.062,1.509.155,2.825.266,3.551a6.735,6.735,0,0,0,.192.917,1.337,1.337,0,0,0,.148.35,1.013,1.013,0,0,0,.141-.1c.13-.1.3-.265.486-.448a1.128,1.128,0,0,1,.4-.251,1.293,1.293,0,0,1,.443-.075,2.3,2.3,0,0,1,.925.229,5.262,5.262,0,0,1,.869.512,8.323,8.323,0,0,1,1.066.907c.109-.091.245-.206.4-.348a16.057,16.057,0,0,0,1.626-1.7,13.709,13.709,0,0,0,2.893-5.743l-.113.005a6.637,6.637,0,0,1-.98.77" fill="#0071c2"/>
    <path id="패스_19370" data-name="패스 19370" d="M68.8,103.259a2.744,2.744,0,0,1,.325-.1l-.732-.318a7.365,7.365,0,0,0-1.511,1.843.42.42,0,0,1-.72-.431,8.508,8.508,0,0,1,1.388-1.778l-.274-.119c-.61.559-1.3,1.191-2.029,1.861l-.276.253c-.028.183-.054.37-.073.562-.06.592-.079,1.212-.079,1.76,0,.836.045,1.5.056,1.651l0,.031a.418.418,0,0,1-.269.423q.095.4.18.782c.919.744,1.461,1.266,1.963,1.67a6.749,6.749,0,0,0,1.625.985l.1-.075c.156-.122.368-.29.611-.485-1-2.1-1.69-3.869-2.014-4.742a2.933,2.933,0,0,1,1.73-3.776" fill="#0071c2"/>
    <path id="패스_19371" data-name="패스 19371" d="M57.995,107c-.044-.144-.089-.287-.134-.43-.142.361-.323.821-.512,1.3q.348-.313.718-.63c-.025-.08-.047-.158-.072-.239" fill="#0071c2"/>
    <path id="패스_19372" data-name="패스 19372" d="M57.112,130.662a5.218,5.218,0,0,0-1.086-.7,1.5,1.5,0,0,0-.58-.156.466.466,0,0,0-.156.025.269.269,0,0,0-.1.066c-.14.135-.275.268-.412.388a2.074,2.074,0,0,1-.44.312.9.9,0,0,1-.392.1.742.742,0,0,1-.26-.048.78.78,0,0,1-.227-.138,1.2,1.2,0,0,1-.3-.417,5.371,5.371,0,0,1-.353-1.4c-.121-.8-.212-2.116-.275-3.643-.037-.9-.064-1.861-.08-2.823a14.719,14.719,0,0,1-1.094-1.177l-.011-.014q-.1,1.591-.1,2.922a18.1,18.1,0,0,0,.994,6.746,4.414,4.414,0,0,0,1.84,2.346,2.56,2.56,0,0,0,.967.309,1.763,1.763,0,0,0,.192.01,2.445,2.445,0,0,0,1.319-.434,3.273,3.273,0,0,0,1.007-1.045,2.258,2.258,0,0,0,.249-.583,7.291,7.291,0,0,0-.7-.646" fill="#0071c2"/>
    <path id="패스_19373" data-name="패스 19373" d="M72.382,104.578a2.849,2.849,0,0,1,.19.411c.259.694.54,1.391.835,2.084a14.515,14.515,0,0,0,.869-1.673Z" fill="#0071c2"/>
    <path id="패스_19374" data-name="패스 19374" d="M63.978,106.517c0-.376.019-.776.048-1.179l-.31.285q.136.453.262.894" fill="#0071c2"/>
    <path id="패스_19375" data-name="패스 19375" d="M56.254,113.479a1.964,1.964,0,0,0-.124.623.63.63,0,0,0,.032.218.2.2,0,0,0,.056.086.372.372,0,0,0,.132.059,1.5,1.5,0,0,0,.294.048c.233.021.516.014.783.018a2.676,2.676,0,0,1,.522.048.823.823,0,0,1,.319.142.6.6,0,0,1,.162.189.58.58,0,0,1,.068.275.7.7,0,0,1-.051.257,1.126,1.126,0,0,1-.111.212,2.877,2.877,0,0,1-.361.431,5.834,5.834,0,0,1-1.613,1.207,3.769,3.769,0,0,1-.369.154,7.411,7.411,0,0,0,.8.81,3.408,3.408,0,0,0,.973.611,1.1,1.1,0,0,0,.391.082,1.5,1.5,0,0,0,.808-.3.73.73,0,0,0,.2-.215c-.094-.128-.188-.259-.282-.4a2.266,2.266,0,0,1-.455-1.317,1.962,1.962,0,0,1,.357-1.121,1.291,1.291,0,0,1,.42-.4,1.02,1.02,0,0,1,.4-.13,2.014,2.014,0,0,1-.081-.55,1.68,1.68,0,0,1,.053-.411,31.079,31.079,0,0,0-.721-3.989l-.58.542a7.659,7.659,0,0,0-2.02,2.819" fill="#0071c2"/>
    <path id="패스_19376" data-name="패스 19376" d="M127.457,103.774l-1.351.393c-.448.933-.96,1.975-1.447,2.957l-.2.409,1.495-.579c.008-.015.016-.031.023-.047.45-.939.979-2.053,1.484-3.133" fill="#adadad"/>
    <path id="패스_19377" data-name="패스 19377" d="M128.325,106.036l0-.169-.1.205Z" fill="#adadad"/>
    <path id="패스_19378" data-name="패스 19378" d="M119.339,106.137V107.9c.337-.646.726-1.4,1.069-2.073Z" fill="#adadad"/>
    <path id="패스_19379" data-name="패스 19379" d="M123.934,104.8l-1.317.383c-.454.9-.979,1.925-1.48,2.889q-.25.481-.488.934l1.478-.572q.151-.3.318-.632c.453-.9.984-1.971,1.489-3" fill="#adadad"/>
    <path id="패스_19380" data-name="패스 19380" d="M114.761,105.947q-.246.4-.5.81l-1.289,2.1,1.824.246c.506-.826,1.171-1.91,1.829-2.98Z" fill="#adadad"/>
    <path id="패스_19381" data-name="패스 19381" d="M118.036,107.035c-.493.8-.99,1.611-1.42,2.313l1.884.254v-3.3l-.044,0v.056l-.42.683" fill="#adadad"/>
    <path id="패스_19382" data-name="패스 19382" d="M111.034,105.6l-.545.885c-.4.644-.794,1.292-1.158,1.886l1.824.246c.5-.815,1.127-1.838,1.744-2.841Z" fill="#adadad"/>
    <path id="패스_19383" data-name="패스 19383" d="M103.579,104.89c-.208.337-.421.683-.636,1.034l-.9,1.46,1.823.246,1.575-2.564Z" fill="#adadad"/>
    <path id="패스_19384" data-name="패스 19384" d="M99.851,104.538l-.682,1.108c-.258.419-.516.84-.766,1.248l1.823.245,1.49-2.425Z" fill="#adadad"/>
    <path id="패스_19385" data-name="패스 19385" d="M97.989,104.362l-.216-.02-.467-.166v1.3l.683-1.111" fill="#adadad"/>
    <path id="패스_19386" data-name="패스 19386" d="M107.306,105.242c-.193.314-.391.634-.59.959-.35.568-.7,1.139-1.028,1.674l1.823.246c.49-.8,1.081-1.762,1.66-2.7Z" fill="#adadad"/>
    <path id="패스_19387" data-name="패스 19387" d="M97.306,105.473v.434l-.014.837,1.111.15c.25-.407.508-.828.766-1.247.232-.376.461-.749.682-1.109l-1.862-.176-.683,1.111" fill="#505257"/>
    <path id="패스_19388" data-name="패스 19388" d="M100.227,107.139l1.818.245.9-1.46.636-1.034-1.862-.175c-.508.825-1.03,1.676-1.489,2.424" fill="#505257"/>
    <path id="패스_19389" data-name="패스 19389" d="M103.869,107.63l1.819.245c.328-.535.678-1.106,1.028-1.673l.59-.96-1.862-.176-1.575,2.564" fill="#505257"/>
    <path id="패스_19390" data-name="패스 19390" d="M107.512,108.121l1.819.245,1.158-1.887q.278-.448.545-.884l-1.863-.176c-.578.941-1.17,1.9-1.659,2.7" fill="#505257"/>
    <path id="패스_19391" data-name="패스 19391" d="M111.154,108.612l1.819.245,1.289-2.1c.168-.274.335-.543.5-.81l-1.863-.176c-.617,1-1.244,2.026-1.744,2.841" fill="#505257"/>
    <path id="패스_19392" data-name="패스 19392" d="M114.8,109.1l1.819.245c.43-.7.926-1.51,1.42-2.313q.211-.345.42-.683V106.3l-1.83-.173c-.657,1.07-1.323,2.154-1.829,2.98" fill="#505257"/>
    <path id="패스_19393" data-name="패스 19393" d="M120.4,105.841c-.352.686-.716,1.388-1.059,2.044v1.639l1.311-.518c.158-.3.31-.6.477-.919.5-.965,1.026-1.985,1.48-2.889Z" fill="#505257"/>
    <path id="패스_19394" data-name="패스 19394" d="M123.934,104.8c-.5,1.031-1.036,2.1-1.489,3q-.167.333-.318.632l2.328-.9c.068-.135.135-.27.2-.409.488-.981,1-2.023,1.447-2.956Z" fill="#505257"/>
    <path id="패스_19395" data-name="패스 19395" d="M127.457,103.774c-.5,1.08-1.034,2.194-1.484,3.133-.007.016-.015.032-.023.047l2.28-.882c.032-.066.063-.134.1-.2l0-.005.025-2.354Z" fill="#505257"/>
  </g>
</svg>
