<svg id="구성_요소_32_1" data-name="구성 요소 32 – 1" xmlns="http://www.w3.org/2000/svg" width="160" height="160" viewBox="0 0 160 160">
  <g id="그룹_10487" data-name="그룹 10487" transform="translate(4538 1013)">
    <g id="그룹_10486" data-name="그룹 10486">
      <rect id="사각형_4552" data-name="사각형 4552" width="160" height="160" transform="translate(-4538 -1013)" fill="none"/>
      <path id="패스_2304" data-name="패스 2304" d="M8420.268,7772.108c.452-1.759.546-3.367,1.25-4.64,2.114-3.826,4.529-7.486,6.706-11.279,1.638-2.857,3.09-5.82,4.629-8.74-2.183-1.934-4.176-1.547-5.967-.772-2.555,1.1-5.359,2.107-7.353,3.926-4.1,3.742-8.319,7.594-11.412,12.135-4.229,6.214-7.618,13.026-11.065,19.739-3.345,6.512-1.436,11.612,5.158,14.735,4.262,2.019,8.341,2.8,13.121.634,5.567-2.523,11.613-4,17.48-5.845a158.547,158.547,0,0,0,34.763-15.492c10.191-6.164,20.242-12.571,30.578-18.48,8.607-4.921,17.542-9.271,26.326-13.883,3.646-1.915,7.28-3.855,10.957-5.8-.615-2.526-2.235-3.112-4.13-2.831a32.282,32.282,0,0,0-5.17,1.4c-6.23,2.027-12.312,4.787-18.693,6-11.3,2.154-21.275,7.641-31.834,11.6-10.41,3.91-20.364,9.013-30.684,13.186C8437.435,7770.742,8429.889,7774.238,8420.268,7772.108Z" transform="translate(-12923.439 -8700.447)"/>
    </g>
  </g>
</svg>
