<svg id="구성_요소_28_1" data-name="구성 요소 28 – 1" xmlns="http://www.w3.org/2000/svg" width="160" height="160" viewBox="0 0 160 160">
  <rect id="사각형_4548" data-name="사각형 4548" width="160" height="160" fill="none"/>
  <path id="패스_2305" data-name="패스 2305" d="M7505.067,7772.108c.452-1.759.546-3.367,1.25-4.64,2.115-3.826,4.529-7.485,6.706-11.279,1.639-2.857,3.091-5.82,4.629-8.74-2.183-1.934-4.176-1.547-5.967-.772-2.554,1.1-5.359,2.107-7.353,3.926-4.1,3.742-8.32,7.594-11.411,12.135-4.23,6.214-7.619,13.027-11.067,19.739-3.344,6.512-1.435,11.612,5.159,14.735,4.262,2.019,8.34,2.8,13.121.634,5.567-2.523,11.614-4,17.48-5.844a158.581,158.581,0,0,0,34.763-15.492c10.191-6.164,20.241-12.571,30.577-18.48,8.607-4.921,17.542-9.271,26.327-13.883,3.646-1.915,7.28-3.855,10.957-5.8-.615-2.526-2.235-3.112-4.129-2.831a32.273,32.273,0,0,0-5.17,1.4c-6.23,2.027-12.313,4.787-18.693,6-11.3,2.154-21.275,7.641-31.833,11.6-10.411,3.91-20.365,9.013-30.685,13.186C7522.233,7770.742,7514.688,7774.238,7505.067,7772.108Z" transform="translate(-7470.238 -7687.447)"/>
</svg>
