<svg id="구성_요소_29_1" data-name="구성 요소 29 – 1" xmlns="http://www.w3.org/2000/svg" width="160" height="160" viewBox="0 0 160 160">
  <rect id="사각형_4549" data-name="사각형 4549" width="160" height="160" fill="none"/>
  <path id="패스_2310" data-name="패스 2310" d="M7748.58,7731.781c-11.36,8.911-22.209,18.666-30.6,30.673a81.485,81.485,0,0,0-8.264,14.992c-3.262,7.757,1.113,18.024,8.685,21.875,6.838,3.478,13.737,3.475,21.187,1.651,17.733-4.342,34.661-10.9,51.669-17.35,18.221-6.9,36.6-13.4,54.9-20.1a4.314,4.314,0,0,0,2.469-2.046c-1.894.465-3.8.876-5.681,1.4-25.244,7.086-50.4,14.505-75.774,21.095-7.59,1.972-15.615,3.393-23.761,1-9.916-2.912-13.933-8.985-12.673-19.147,1.377-11.1,7.105-19.962,13.432-28.628C7745.539,7735.321,7747.1,7733.583,7748.58,7731.781Z" transform="translate(-7698.625 -7684.781)"/>
</svg>
