<svg id="구성_요소_31_1" data-name="구성 요소 31 – 1" xmlns="http://www.w3.org/2000/svg" width="160" height="160" viewBox="0 0 160 160">
  <rect id="사각형_4551" data-name="사각형 4551" width="160" height="160" fill="none"/>
  <path id="패스_2302" data-name="패스 2302" d="M8301.3,7723.739c-3.936-.679-6.415,1.971-8.281,4.4-3.351,4.35-7.607,7.518-11.774,10.882a9.963,9.963,0,0,0-2.925,3.069c-1.563,3.33-4.408,5.412-6.992,7.733-7.686,6.9-15.351,13.834-23.22,20.523q-8.726,7.415-17.964,14.221a24.766,24.766,0,0,1-18.264,4.526c-8.52-1.111-9.444-4.514-7.835-12.638.312-1.568,1.461-2.954,2.115-4.471,1.339-3.1,1.3-3.14-2.579-5.978-4.251,3.317-9.55,5.662-11.988,11.049-4.993,11.038-6.411,22.05.923,32.783a47.855,47.855,0,0,1,2.975,4.679,8.871,8.871,0,0,0,6.086,4.848,1.8,1.8,0,0,1,.6.147c8.337,5.795,16.958,4.709,25.883,1.438,13.193-4.833,23.942-12.647,31.457-24.628a36.678,36.678,0,0,0,3.712-7.082,20.389,20.389,0,0,1,5.86-8.547c.6-.542,1.392-1.237,1.481-1.94.748-5.868,5.755-8.916,8.747-13.269,3.5-5.083,7.926-9.558,11.165-14.784,4.2-6.777,7.624-14.036,11.385-21.087C8302.958,7727.565,8302.521,7725.688,8301.3,7723.739Z" transform="translate(-8165.43 -7693.631)"/>
</svg>
