<svg id="구성_요소_30_1" data-name="구성 요소 30 – 1" xmlns="http://www.w3.org/2000/svg" width="160" height="160" viewBox="0 0 160 160">
  <rect id="사각형_4550" data-name="사각형 4550" width="160" height="160" fill="none"/>
  <path id="패스_2308" data-name="패스 2308" d="M7957.669,7745.933c-2.492,4.466-1.57,9.181-1.12,13.876.369,3.836,3.437,5.469,6.083,7.334,5.075,3.577,10.733,6.768,16.886,6.548,7.606-.271,15.424-.42,22.62-4.025,3.986-2,8.442-3.035,12.57-4.778,7.346-3.1,14.771-6.092,21.851-9.735,6.283-3.232,12.533-6.349,19.117-9,6.011-2.425,12.579-4.21,17.39-9.284,1.6-1.69,3.96-3.3,7.08-2.7-.141.988-.015,1.785-.354,2.234q-7.477,9.916-15.1,19.724a5.635,5.635,0,0,1-2.795,1.961,66.94,66.94,0,0,0-23.957,11.718c-5.472,4.091-10.82,7.7-17.346,10.346-11.466,4.648-21.553,12.279-33.075,17.183a101.98,101.98,0,0,1-11.017,4.455,17.153,17.153,0,0,1-14.933-1.942c-5.365-3.449-10.9-6.626-16.333-9.978-3.261-2.013-5.365-6.767-5.062-10.716.254-3.3.247-6.618.458-9.92.105-1.64-.01-3.519.745-4.854,5.321-9.413,9.183-19.715,16.729-27.78.278-.3.82-.347,1.477-.605.614.476,1.33,1.033,2.42,1.877C7960.35,7740.952,7959.048,7743.463,7957.669,7745.933Zm-12.8,33.287c.07,3.2,1.91,5.364,4.317,6.972,4.119,2.751,8.438,5.2,12.622,7.863,7.6,4.834,15.181,3.908,22.712-.062,12.087-6.373,23.743-13.788,36.334-18.91,9.017-3.667,15.268-10.938,23.86-14.776,4.507-2.013,8.9-4.308,13.475-6.139a12.64,12.64,0,0,0,7.609-6.972,32.52,32.52,0,0,0-3.82,1.094c-10.127,4.4-20.715,8.021-30.219,13.511-10.151,5.865-21.069,9.519-31.824,13.616-16.2,6.168-31.58,3.937-45.011-7.358-3.041-2.557-3.259-7.036-3.557-11.011-.031-.42-.16-.832-.344-1.745C7944.286,7762.615,7944.687,7770.937,7944.868,7779.22Z" transform="translate(-7930.145 -7686.035)"/>
</svg>
