<svg xmlns="http://www.w3.org/2000/svg" xmlns:xlink="http://www.w3.org/1999/xlink" width="303.718" height="26.654" viewBox="0 0 303.718 26.654">
  <defs>
    <clipPath id="clip-path">
      <rect id="사각형_2648" data-name="사각형 2648" width="303.718" height="26.654" fill="#020202"/>
    </clipPath>
  </defs>
  <g id="그룹_9908" data-name="그룹 9908" clip-path="url(#clip-path)">
    <path id="패스_10492" data-name="패스 10492" d="M.1,1.582C.547,1.706.383.265.453,0-.3.319.118,1.956.1,1.582" transform="translate(303.264 3.336)" fill="#020202"/>
    <path id="패스_10493" data-name="패스 10493" d="M.958.592,1.091,0,0,1.449Z" transform="translate(295.005 7.612)" fill="#020202"/>
    <path id="패스_10494" data-name="패스 10494" d="M0,.943c.654,2.462,2.509-.4,3.74.475l.2.569L4.5,0C3,.312,1.06,1.628,0,.943" transform="translate(289.039 7.231)" fill="#020202"/>
    <path id="패스_10495" data-name="패스 10495" d="M.111,0c.226.958-.8.826.857.3C.89.195.867.132.812.055A2.262,2.262,0,0,1,.111,0" transform="translate(285.242 2.845)" fill="#020202"/>
    <path id="패스_10496" data-name="패스 10496" d="M.114.373c.732-.07-.475-.8,0,0" transform="translate(285.94 2.527)" fill="#020202"/>
    <path id="패스_10497" data-name="패스 10497" d="M.469,1.963l.958-.857C1.225.538.368.413.688,0-.294.467-.092,1.036.469,1.963" transform="translate(282.219 1.489)" fill="#020202"/>
    <path id="패스_10498" data-name="패스 10498" d="M0,.536.5.17C.405-.064.273-.149,0,.536" transform="translate(281.777 4.716)" fill="#020202"/>
    <path id="패스_10499" data-name="패스 10499" d="M1.052,0,0,.764c.132.4.148,1.2.483-.273C.4,1.215.6.514,1.052,0" transform="translate(282.276 4.123)" fill="#020202"/>
    <path id="패스_10500" data-name="패스 10500" d="M0,.045c.538.538,1.231.873.273,1.73C2.111,1.432,1.839-.3,0,.045" transform="translate(283.927 4.452)" fill="#020202"/>
    <path id="패스_10501" data-name="패스 10501" d="M0,.287l.717.725L1.342.185C1.03.591-.045-.485,0,.287" transform="translate(288.687 10.443)" fill="#020202"/>
    <path id="패스_10502" data-name="패스 10502" d="M.007,0A14.7,14.7,0,0,0,.4,2.073l.709-.608C.747,1.106.053.779.007,0" transform="translate(276.698 2.175)" fill="#020202"/>
    <path id="패스_10503" data-name="패스 10503" d="M1.06,0,0,.9c.951.1,1.122-.327,1.06-.9" transform="translate(276.043 4.247)" fill="#020202"/>
    <path id="패스_10504" data-name="패스 10504" d="M.335,1.893,2.08,0,0,1.917Z" transform="translate(281.272 6.094)" fill="#020202"/>
    <path id="패스_10505" data-name="패스 10505" d="M.475,1.215,1.075,0,0,1.839Z" transform="translate(272.18 0.894)" fill="#020202"/>
    <path id="패스_10506" data-name="패스 10506" d="M2.057,2.322C2.5,1.317,1.449.623,1.917,0,1.184.179.561,1.044,0,1.823c.6-.436,1.231-.327,2.057.5" transform="translate(267.908 0.001)" fill="#020202"/>
    <path id="패스_10507" data-name="패스 10507" d="M0,1.13A6.527,6.527,0,0,0,.943,0,3.26,3.26,0,0,0,0,1.13" transform="translate(266.966 1.824)" fill="#020202"/>
    <path id="패스_10508" data-name="패스 10508" d="M.834,1.5A2.338,2.338,0,0,0,0,0L.413,1.473.834,1.5" transform="translate(273.401 3.39)" fill="#020202"/>
    <path id="패스_10509" data-name="패스 10509" d="M.919.132.9.086C.452.055.14.016,0,0,.117.016.39.055.919.132" transform="translate(272.91 4.777)" fill="#020202"/>
    <path id="패스_10510" data-name="패스 10510" d="M.1.008,0,0C.039.148.062.195.1.008" transform="translate(274.235 4.886)" fill="#020202"/>
    <path id="패스_10511" data-name="패스 10511" d="M1.194,0C.57.826-.731,1.706.532,2.969.976,1.956.259,1.239,1.194,0" transform="translate(277.63 6.655)" fill="#020202"/>
    <path id="패스_10512" data-name="패스 10512" d="M0,1.028l1.122.335C1.1.974.9.405,1.2,0Z" transform="translate(274.858 5.704)" fill="#020202"/>
    <path id="패스_10513" data-name="패스 10513" d="M0,.592.553.125.132,0Z" transform="translate(274.305 6.613)" fill="#020202"/>
    <path id="패스_10514" data-name="패스 10514" d="M1.621,0A2.163,2.163,0,0,1,0,.805a4.841,4.841,0,0,0,1.948.444C2.034.782,2.314-.052,1.621,0" transform="translate(267.277 4.33)" fill="#020202"/>
    <path id="패스_10515" data-name="패스 10515" d="M.109,0C.078.031.031.047,0,.086.062.21.117.249.109,0" transform="translate(271.189 4.746)" fill="#020202"/>
    <path id="패스_10516" data-name="패스 10516" d="M0,0,.094.265.117.016Z" transform="translate(261.356 5.12)" fill="#020202"/>
    <path id="패스_10517" data-name="패스 10517" d="M.133.53C.616.818.912.452,1.185,0A3.406,3.406,0,0,1,.024.257C-.015.467-.023.6.133.53" transform="translate(269.194 5.322)" fill="#020202"/>
    <path id="패스_10518" data-name="패스 10518" d="M0,.107a5.166,5.166,0,0,0,.841.81C.592.45.094-.275,0,.107" transform="translate(265.314 3.532)" fill="#020202"/>
    <path id="패스_10519" data-name="패스 10519" d="M.05.244.128.181C-.035-.138-.02.018.05.244" transform="translate(270.975 4.175)" fill="#020202"/>
    <path id="패스_10520" data-name="패스 10520" d="M.639,0A3.66,3.66,0,0,0,0,.9a2.708,2.708,0,0,0,.8-.5A1.991,1.991,0,0,1,.639,0" transform="translate(270.386 4.419)" fill="#020202"/>
    <path id="패스_10521" data-name="패스 10521" d="M1.237,9.209C1.323,7.838,2.593,6.576,3.7,8.041,4.783,7.02,4.074,2.517,3.123,0A2.113,2.113,0,0,1,1.978,1.956c.39.748,2.47,1.753,1.535,2.992-1.48.7-1.215-.491-1.924-1.208C2.2,5.438-.3,6.218.03,8.726l1.293-.888c.023.39-.444,1.013-.086,1.371" transform="translate(258.326 5.385)" fill="#020202"/>
    <path id="패스_10522" data-name="패스 10522" d="M2.1,2.026l.46-.171C2.034,1.621,1.66,1.067.966,0A2.386,2.386,0,0,0,0,1.628l2.252.195Z" transform="translate(261.473 3.507)" fill="#020202"/>
    <path id="패스_10523" data-name="패스 10523" d="M2.057.9C1.7,2.392.6,3.023,1.278,4.636c1.34-.1.935-1.247,1.738-1.886-2.166.366.623-.834-.943-1.675a3.137,3.137,0,0,1,1.177-.4A5.737,5.737,0,0,1,2.127,0l.047.093L2.182.086V.109c.094.187.125.3.023.195L2.158.335a3,3,0,0,1-.1.561c-.631-.3-.1-.39.1-.561,0-.07.023-.14.023-.226L2.174.093,0,.912A3.709,3.709,0,0,0,2.057.9" transform="translate(264.028 4.45)" fill="#020202"/>
    <path id="패스_10524" data-name="패스 10524" d="M.187.343A.73.73,0,0,1,.117,0c-.14.179-.195.3.07.343" transform="translate(276.814 12.475)" fill="#020202"/>
    <path id="패스_10525" data-name="패스 10525" d="M1.074,3.607c.156-.21.288-.8.8-.647.444.444,0,.709.023,1.2.3-.4,1.083-1.067.109-1.792l-.156.2C.981,2.057-.141.2.015,0a14.424,14.424,0,0,0,1.06,3.607" transform="translate(275.031 8.314)" fill="#020202"/>
    <path id="패스_10526" data-name="패스 10526" d="M1.808,0,0,.732.919,2.018.873,1.247c1.028.3.81-.654.935-1.247" transform="translate(269.225 9.016)" fill="#020202"/>
    <path id="패스_10527" data-name="패스 10527" d="M.8,1.574,1.044,0,0,2.221Z" transform="translate(260.344 2.809)" fill="#020202"/>
    <path id="패스_10528" data-name="패스 10528" d="M.538,1.371.623,0,0,.826Z" transform="translate(258.258 3.2)" fill="#020202"/>
    <path id="패스_10529" data-name="패스 10529" d="M.53,0,0,.39A1.582,1.582,0,0,0,.53,0" transform="translate(125.489 21.529)" fill="#020202"/>
    <path id="패스_10530" data-name="패스 10530" d="M.086.67.18,0C0,.366-.07.639.086.67" transform="translate(129.781 20.952)" fill="#020202"/>
    <path id="패스_10531" data-name="패스 10531" d="M1.557,2.281C.778,1-.087-.976.007.559l.242,1.5a1.068,1.068,0,0,1,1.309.218" transform="translate(199.454 2.442)" fill="#020202"/>
    <path id="패스_10532" data-name="패스 10532" d="M0,.982c.07.148.148.3.226.452C.413.927.592.452.748,0,.522.312.265.639,0,.982" transform="translate(161.431 12.693)" fill="#020202"/>
    <path id="패스_10533" data-name="패스 10533" d="M1.021.966,0,0A3.712,3.712,0,0,0,1.021.966" transform="translate(159.865 18.903)" fill="#020202"/>
    <path id="패스_10534" data-name="패스 10534" d="M.623,0,0,1.527C.974,1.519.545.748.623,0" transform="translate(104.358 23.118)" fill="#020202"/>
    <path id="패스_10535" data-name="패스 10535" d="M1.667.9A3.348,3.348,0,0,0,0,0C.81.857,1.457,2.15,1.667.9" transform="translate(233.026 4.216)" fill="#020202"/>
    <path id="패스_10536" data-name="패스 10536" d="M.453,0A1.089,1.089,0,0,0,0,.912.927.927,0,0,0,.453,0" transform="translate(127.077 5.626)" fill="#020202"/>
    <path id="패스_10537" data-name="패스 10537" d="M0,.643C.117.791.234.869.351.994A2.512,2.512,0,0,1,1.932.635C1.332,0,.654-.4,0,.643" transform="translate(231.094 3.581)" fill="#020202"/>
    <path id="패스_10538" data-name="패스 10538" d="M.181.179C.127.109.057.078,0,0-.014.2.064.218.181.179" transform="translate(28.507 21.7)" fill="#020202"/>
    <path id="패스_10539" data-name="패스 10539" d="M0,.18A3.326,3.326,0,0,1,.912.063C.74-.038.475-.03,0,.18" transform="translate(6.467 6.576)" fill="#020202"/>
    <path id="패스_10540" data-name="패스 10540" d="M0,.1c.5-.1.078-.164,0,0" transform="translate(249.326 3.819)" fill="#020202"/>
    <path id="패스_10541" data-name="패스 10541" d="M.2,0A1.393,1.393,0,0,0,0,.732,1.774,1.774,0,0,1,.2,0" transform="translate(251.554 9.841)" fill="#020202"/>
    <path id="패스_10542" data-name="패스 10542" d="M.039.008,0,0C.148.3.117.242.039.008" transform="translate(226.084 13.542)" fill="#020202"/>
    <path id="패스_10543" data-name="패스 10543" d="M.639.444A2.243,2.243,0,0,0,0,0,2.4,2.4,0,0,0,.639.444" transform="translate(249.443 4.154)" fill="#020202"/>
    <path id="패스_10544" data-name="패스 10544" d="M0,.135c.171.07.3.1.436.148C.5.034.444-.129,0,.135" transform="translate(249.98 3.753)" fill="#020202"/>
    <path id="패스_10545" data-name="패스 10545" d="M0,.078A1.646,1.646,0,0,1,.8.234C.709.132.67.047.693,0A6.844,6.844,0,0,1,0,.078" transform="translate(248.632 3.92)" fill="#020202"/>
    <path id="패스_10546" data-name="패스 10546" d="M.4.14A1.1,1.1,0,0,1,.289,0C-.209.623.009.522.4.14" transform="translate(69.171 17.726)" fill="#020202"/>
    <path id="패스_10547" data-name="패스 10547" d="M.016.125.07.055,0,0Z" transform="translate(188.004 20.162)" fill="#020202"/>
    <path id="패스_10548" data-name="패스 10548" d="M0,5.563C.764,3.7,1.2,3.927,1.776,4.324L1.184,0Z" transform="translate(186.231 15.841)" fill="#020202"/>
    <path id="패스_10549" data-name="패스 10549" d="M115.446,20.123l1.254,1.348c-1.519,2.213-2.618,1.449-1.434,3.343.179-4.69,4.893-.483,5.064-5.166l.834.99c-.242-.047-.28.226-.514.179,1.613,2.244,1.2-3.389,3.28-2.719.725.358,1.231,1.036.732,1.6l1.621-1.161c.467.086.351.9-.117.81l2.462-.374-.016.14a16.079,16.079,0,0,1,1.535-2.361c.623.678-.312.5-.156,1.083l1.364-1.13a1.564,1.564,0,0,1-1.512,2.221c1.27,4.683,1.13-1.184,3.88,1.55l-1.293.6c.834,2.657,1.839,1.691,3.3,3.35-.343-.865-2.914-4.176-1.434-5.345.413.351.966.522,1.761-.421.008,1.667.787,1.254,1.761,1.161l-.062,2.213c1.052-.639.974-1.769,1.589-2.758,1.176.218,1.418,1.924,1.7,3.366,1.878.351-1.3-2.743.927-3.156,1.566.841,2.665-.062,4.535-1.379,1.1.756-.187,1.348.2,1.979l.974-1.761c.234.039.156.584.117.857.818-.686.07-2.2,1.356-2.8.351-2.439,2.641,3.553,4.239.787.39.631-.195,1.356-.078,2.213,2.189-1.815,1.878-1.317,3.67-3.755l1.535,1.449c-1.13-1.66.3-3.623,1.566-5.236-.405-.8-.74-1.5-.966-1.839l2-1.184c.242.366.039,1.122-.288,2.041.132-.179.265-.358.366-.53.717.818.343,2.1-.164,3.327-.249-.436-.491-.9-.725-1.364a10.349,10.349,0,0,0-.857,4.122,1.427,1.427,0,0,1,.654-.592,1.743,1.743,0,0,0-.148.912c.07.226.273-.257.6-.826l.46,2.462.109-.974,2.626,1.543c1.878-2.478,3.514-6.132,6.49-7.145-.74,1.8-.164,2.945-.2,5.088-.81-2.267-2.306.958-3.849.5.8.242.623,1.262.421,1.621l2.758-2.065c-.062,1.753.584,1.309,1.3,2.034-.538-3.459,2.049-2.3,3.179-3.366.062,1.169-.2,2.353-1.574,2.073,1.512,2.6,1.956-4.067,3.436-1.854-.335.031-.514-.148-.647.444.779-1.036,2.688-.218,2.236.795l-.335.023c2.213.413,6.747.031,7.075-2.914.023.382-.288,3.545-.421,4.137l3.958-9.88c-.351,2.517.982,8.532-.857,9.957a1.634,1.634,0,0,0,2.3-.117c-.358-.358-.9-3.646-.405-3.88,1.348,2.813.935,1.5,2.6,3.9-.545-.545.055-4.5.912-4.371-.132.592.07,3.9-.242,4.316l2.119-3.888c-.53.7-.093,3.3.382,4.394-.218-.764,1.839.07,2.4-.319l-.9-.9c2.4.584,2.369-5.462,4.745-5.259-.288.8-.717,4.94.5,5.423.553-1.987,2.454-9.568,4.55-11.095l.405,1.138,1.613-1.3a78.592,78.592,0,0,1-5.36,11.749c.9.9.249,1.34,1.589,1.231.475,1.067-.732,1.621-1.122,1.683l3.124.686c-.14-2.322,2.392-2.33,2.267-4.262l-3.389,2.408c-.14-2.314,1.963-6.592,4.176-6.179.561.919-.421,4.129-.374,4.909.281-.8,2.1-1.527,2.306-.966l-.943,1.247c1.231.873,2.01-3.078,3.5-.865.506.148,1.527,2.992,1.613,1.613-.834-2.649-1-10.846-.436-12.832.179.179,2.68,2.532,3.265,3.841.841,2.08-1.262,4.955-.545,6.74a3.706,3.706,0,0,1,.686-1.667c.545.538-.218,1.963.943,1.675.2-2.353,2.376.195.553-1.987,1.145-.678,1.215.483,2.556.374-.421-1.519,1.208-5.174,2.353-5.844a4.374,4.374,0,0,0,.312,1.73c2.337.218,3.6,1.286,5.781,1.3.195.577,1.254,1.262.8,2.275.319-.413.6-1.215,1.278-1.27,1.3,2.034-1.5.319-.506,2.766.078-1.371,1.737-1.893,2.7-2.743-.3-2.119-2.213-.405-3.179.444a8.9,8.9,0,0,1,3.95-7.316c1.815-.717.787,1.886,1.106,1.473,3.4.506,2.9-5.088,5.727-2.984,1.122,1.854.055,3.693.3,5.033-1.473.7-2.267-1.184-3.265-1.106l1.231.88c-.468.616-1.457,1.083-1.995.545.943,1.667,5.758.319,8.384,1.862.467-.623,1.27-1.27.888-2.018l-.834.265c-.756-1.5,1.566-2.073.514-2.774,1.122-1.052,2.369-2.7,3.935-1.862l.3,2.119c-.031-.616-1.021-1.262-1.465-.616.654-.935,2.408,2.867,3.124.093l-1.1-1.465c1.114-1.067,2.5-3.311,3.9-2.649-.639-2.088-.327.242-1.309-2.2.857,3.046-3.561-.125-2.189,3.07-1.013-2.836-1.753-1.2-3.078-3.623.039.693.468,1.332-.7.99a2.982,2.982,0,0,1-.257.616l-.078-.055.07.086c-.055.1-.062.125.023.031a2.514,2.514,0,0,1,.592,1.06c-.584,1.605-2.439,1.55-3.062,2.384-.693-.335.288-.8-.093-1.55l-.935,1.247c-.094-1.55-1.847-2.579-.21-3.491l-1.465-.07c-.873-.865-2.065-1.215-2.8-.561-.693-.335-1.745,1.714-1.145.506l-2.3.958-.023-.39c-2.275-.195-4.683,2.571-7.285-.226a3.209,3.209,0,0,1-2.836.429l-.249-1.348c-.982.475-2.953-1.34-3.374.062-1.06-3.615-4.768-.795-6.5-1.434l-.07,1.753a7.621,7.621,0,0,0-3.8,1.1l.086,1.55c-1.27,1.27-3.272-1.1-5.283-.943.132-.592.647-.436,1.005-.078-2.4-3.5-5.072,2.548-7.254,0a.783.783,0,0,1-1.317-.023.185.185,0,0,0,.132-.078.672.672,0,0,0-.226-.023c-.242-.265-.491-.577-.756-.818a3.027,3.027,0,0,0,.639.826,3.991,3.991,0,0,0-1.683.616l-.265-1.667-.14.047c-.615-.616-.5.787-.171,2.041a3.779,3.779,0,0,0-.826,1.005c-.491-2.688-1.636.9-2.314-1.963-.413,1.395-3.132,1.052-3.467,3.989-.016-.382-.2-.561.132-.584-.693-.335-1.387-.67-2.01.156l-.3-2.111-1.519,2.836c-.919-1.286-1.3-2.034-.382-3.662-2.213,2.5-1.8.943-3.678,3.428l.094-1.371c-.67.055-1.745,1.886-2.15.756-1.5-2.6-7.441-.358-11.3-2.774.74,4.02-1.8-1.808-1.948,1.317-.226-.958-.764-1.5-.14-2.322-1.971.935-2.961-1.512-4.316,1.122-.226-.958.421-1.395.218-1.963-.156.21-.623.834-.834.265-.195-.569.3-.8.6-1.215-2.01.156-2.213,3.093-2.361,5.844-1.013-1.3-1.527-1.114-2.26.693-.358-.9-.951-1.847.3-2.174-.709-.125-4.3-1.317-4.371.888-.218-.561-.982-.164-1.169.093a10.717,10.717,0,0,0-3.265-.125l.429.366c-.608,2.657-1.286.592-2.54.912l.039-.273c-2.859-1.924-1.239.919-4.059-1.27l.148,1.652c-.257,3.568-2.5-2.1-4.137-.74l.584.951c-.888,1.215-2.5-4.846-3.4-5.29-.195-.312.312-.5.584-.725-2.361-2.1-.3,2.166-2.065,2.672-.319-1.169.421-2.976-.764-3.194-.592-.951-3.428,3.8-5.041,1.558.358.9.709,1.8-.1,2.478-1.254.319-3.381-3.413-4.5-.569a1.306,1.306,0,0,1-.226-.709c-.958.74-3.109,1.223-3.685,2.766-.88-5.727-5.937,2.782-5.914-2.493l-2.937.28.078-.538c-1.878-.351-2.548.912-3.2,2.182-.436-.358-.117-.849-.078-1.13-2.75-1.067-3.023-.841-5.322,1.792l-.242-1.714c-.616,1-3.966-2.688-6.654-.686a1.4,1.4,0,0,1,.3-.771c-3.031,2.01-7.254-4.745-8.36,1.488L87.716,7.407c2.579.483-.39,2.7.678,3.74-1.021.366-2.634-1.878-1.379-2.2l.195.312C87.669,6.013,84,8.109,84.07,5.9c-5.088.164-10.051-1.636-14.812-1.776L69.8,6.644,68.144,6.5c-.436-.584-.584-1.971.6-1.87-.623-1.434-1.987,1.2-2.018,1.753-2.322-1.028.9-2.953.195-3.007l-.966.187.218.3c-.787,1.028-.857,2.127-2.283,2-.9-.506-.46-1.558-.818-1.66,0-.179-.117-.265-.545-.07l-2.088-.218L61.272,5.9c-.927.982-1.971-.1-1,2.158-1.426-3.483-7.815-1.254-8.687-2.33-1.3,1.449-2.579,1.426-4.168,1.247.39.421.631,2.657-.74,2.384.5-4.628-2.509-2.01-3.623-5.337,1,2.2-3.9.545-2.345,3.678-1.138-.374-.062-1.73-.935-2.82-2.719,1.792-6-1.161-9.365-.561-.055.608.514,1.543-.21,2.447L28.423,3.73c-.662.3-.608,3.506-1.823,1.395.171.514.429,1.286-.016,1.48-6.6-2.961-13.479,2.423-20.172-3.14.912,1.177.3,1.293-.39,1.34.452.28-.008,1.5.078,2.322L3.3,4.836C2.789,7.127.3,4.992,0,7.181l.888-.4c-1.177,2.579,1.652,5.734,1.48,9.038,1.325-2.93,3.483,4.348,5.657.148.475.678-.413,1.067-.156,1.831.553-1.418,1.215-1.714,2.447-1.075l-.14.351c3.459-.343,4.94,1.052,8.82,1.987l-.288-1.636c.834.218,1.013.732,1.4,1.138.958-2.478-2.345-.14-1.473-2.875,1.106,3.327,5.883.055,6.631,3.833,1.286.023-.374-1.893.912-1.87l.335,1.021.327-1.317c.841.218,1.262,1.5,1.293,2.361-.2-.1-.577.249-.795.319,1.091,1.208,3.078-.413,3.452-.016l-1.239-.631c3.506-.958,7.784.382,11.165-1.7l-.257-.771c2.587-1.426,2.073.849,4.909.187l-.1.187a2.3,2.3,0,0,1,2.1-1.067c-.717.9,1.348,1.753.405,2.75,2.8-1.527,1.387-1.2,3.241-4.067l.429,1.278c.631-1.161.678-1.769,2.1-2.1-1.161,1.1.9,1.956-.4,3.4,2.976,2.8,4.41-2.828,5.781,1.27,1.363-3.545-2.579-1.971-1.808-2.727-.647-1.161,1.122-2.649,2.057-2.291.951.078,1.613,4.535,4,4.464-.242-.016-.257.249-.491.234.9.9,1.753-1.223,2.852.249.608-2.143,1.418.125,1.6-2.61l-2.189.631c1.239-.717,2.408-3.919,4.449-2.361a4.774,4.774,0,0,1-1.184,1.675c.6.81,1.153-.53,1.776.3-.179,2.735-2.665.6-4,2.68.639,1.161,2.517-1.979,1.847.982.966-3.763,2.361.475,3.974-2.4l-.1,1.636c.249-.257.779-1.028,1.254-.99l-.857,2.127c1.309-1.815,2.532,1.589,3.787.6-2.633.047-.592-1.979-1.7-3.171,3.241-2.2,1.862,4.285,5.493,3.5-.491.234-1.847-.982-1.075-1.737a4.441,4.441,0,0,1,2.026,1.823c2.408-.343-.366-1.691.654-2.7.818,2,1.184-.81,2.244-1.449l.008,1.667c2.743,1.067.725-3.475,3.194-2.182L85.7,19.017l1.286-.592-.265,1.893c1.4-1.4,1.839-1.044,3.21-.506-.319-1.177.179-3.031,1.395-3.078.826.99-.467,1.582,1.254,1.34-.39,1.044-.81,2.353-1.558.818-.078.545-.39,1.044-.467,1.582.888,1.138,2.244.265,2.867.249a1.043,1.043,0,0,1-.67-.39l2.493-2.314c.39.631.078,1.13-.226,1.621.5-.179.849-.943,1.6-1.091-.195,1.356-.148,2.758-1.2,3.4l2.376-1.5c.164.584,1.223,1.613.919,2.111,1.317.8,3.233-2.626,4.979-1.574a1.241,1.241,0,0,1,.647-.709c1.644.3,3.1,1.971,5.041.109l1.106,2.431c1.527-.553-1.5-3.062,1.044-3.974,1.8-.779.67,2.073,1.3,2.743.9-1.223,2.447-3.709,4.106-1.737-.553.46-.982.1-1.488.28m18.808-1.075c-.366.351-1.091,1.426-1.356.444.413-1.909.732-1,1.356-.444m28.595-4.013c-.273.553-.686.28-1.161-.351a1.023,1.023,0,0,1,1.161.351m79.66-11.6-.039.078c-.81-.647-.53-.39.039-.078m1.683.725a.741.741,0,0,0,.093-.7c-.117.429-.5.452-.935.335.125.436.343.74.841.366M62.885,4.813l.327.436c-.74.483-.53.047-.327-.436" transform="translate(1.348 1.842)" fill="#020202"/>
    <path id="패스_10550" data-name="패스 10550" d="M.249.9A3.431,3.431,0,0,1,.093,0,.725.725,0,0,0,.249.9" transform="translate(160.706 18.248)" fill="#020202"/>
    <path id="패스_10551" data-name="패스 10551" d="M.117.016.062,0A1.813,1.813,0,0,0,0,.3Z" transform="translate(104.982 22.822)" fill="#020202"/>
    <path id="패스_10552" data-name="패스 10552" d="M.671.857A1.87,1.87,0,0,1,0,0a.757.757,0,0,0,.67.857" transform="translate(218.72 19.269)" fill="#020202"/>
    <path id="패스_10553" data-name="패스 10553" d="M1.083,0,0,.436C.53.351.709.717.982.982.951.592.748.023,1.083,0" transform="translate(253.408 3.164)" fill="#020202"/>
    <path id="패스_10554" data-name="패스 10554" d="M.342,1.005C.5.8.677.982.833.779L.794,0C.116.055-.351.678.342,1.005" transform="translate(263.538 12.467)" fill="#020202"/>
    <path id="패스_10555" data-name="패스 10555" d="M0,.645c.086,1.4.764.927,1.519.662a.193.193,0,0,1-.132,0C1.613-.649.8,0,0,.645" transform="translate(255.497 8.059)" fill="#020202"/>
    <path id="패스_10556" data-name="패스 10556" d="M0,.423A1.348,1.348,0,0,1,.7.384C.787-.4.421.22,0,.423" transform="translate(257.187 8.897)" fill="#020202"/>
    <path id="패스_10557" data-name="패스 10557" d="M.706,1.693C1.065,2.051.932-.1,1.135.47,1.54-1.315-1.257,2.628.706,1.693" transform="translate(246.983 3.373)" fill="#020202"/>
    <path id="패스_10558" data-name="패스 10558" d="M.693,1.73.421,0,0,1.395Z" transform="translate(255.414 11.59)" fill="#020202"/>
    <path id="패스_10559" data-name="패스 10559" d="M0,.279,1.209.754A.629.629,0,0,1,1.536.17C.788.107-.03-.236,0,.279" transform="translate(250.127 11.768)" fill="#020202"/>
    <path id="패스_10560" data-name="패스 10560" d="M0,.288A1.033,1.033,0,0,0,.974,0,2.285,2.285,0,0,0,0,.288" transform="translate(251.663 11.649)" fill="#020202"/>
    <path id="패스_10561" data-name="패스 10561" d="M1.215.491.857.132,0,0Z" transform="translate(253.239 13.348)" fill="#020202"/>
    <path id="패스_10562" data-name="패스 10562" d="M1.352,0,.028.5c-.132.592.226.951.725.717.312-.413.8-.639.6-1.215" transform="translate(235.764 11.711)" fill="#020202"/>
    <path id="패스_10563" data-name="패스 10563" d="M.623,1.317A3.062,3.062,0,0,1,.047,0L0,2.143Z" transform="translate(240.482 15.14)" fill="#020202"/>
    <path id="패스_10564" data-name="패스 10564" d="M.955,0C.822.592-.962,1.706.713,1.574.845.982,2.17.491.955,0" transform="translate(236.302 16.955)" fill="#020202"/>
    <path id="패스_10565" data-name="패스 10565" d="M0,3.545l.335-.023L.288,0Z" transform="translate(217.351 10.697)" fill="#020202"/>
    <path id="패스_10566" data-name="패스 10566" d="M.156,2.7C1.722,3.537.53.522,1.941,1.574,2.315.748.787.717,1.161,0,.219.88-.272.382.156,2.7" transform="translate(199.647 19.963)" fill="#020202"/>
    <path id="패스_10567" data-name="패스 10567" d="M0,.538A3.839,3.839,0,0,0,.483,0,1.823,1.823,0,0,0,0,.538" transform="translate(200.816 19.425)" fill="#020202"/>
    <path id="패스_10568" data-name="패스 10568" d="M1.005.732,0,0,.647,1.184Z" transform="translate(1.771 4.136)" fill="#020202"/>
    <path id="패스_10569" data-name="패스 10569" d="M.841,2.244.6,0,0,2.034c.226-.1.67-.3.841.21" transform="translate(0 5.237)" fill="#020202"/>
    <path id="패스_10570" data-name="패스 10570" d="M.787,1.254.865.717C.709.132.475.086,0,0Z" transform="translate(137.612 24.147)" fill="#020202"/>
    <path id="패스_10571" data-name="패스 10571" d="M.2,1.979l.234.047L0,0Z" transform="translate(124.545 21.746)" fill="#020202"/>
    <path id="패스_10572" data-name="패스 10572" d="M.016,1.113C.484,1.2,1.037.747,1.5.833.484,1.2-.108-1.411.016,1.113" transform="translate(113.271 25.199)" fill="#020202"/>
  </g>
</svg>
