<svg xmlns="http://www.w3.org/2000/svg" width="50.01" height="50.01" viewBox="0 0 50.01 50.01">
  <g id="그룹_11921" data-name="그룹 11921" transform="translate(5210.481 20136)">
    <rect id="사각형_6661" data-name="사각형 6661" width="3.847" height="3.847" transform="translate(-5168.163 -20124.461)"/>
    <rect id="사각형_6662" data-name="사각형 6662" width="3.848" height="3.847" transform="translate(-5210.481 -20120.613)"/>
    <rect id="사각형_6663" data-name="사각형 6663" width="3.848" height="3.848" transform="translate(-5210.481 -20116.768)"/>
    <rect id="사각형_6664" data-name="사각형 6664" width="3.848" height="3.847" transform="translate(-5210.481 -20112.918)"/>
    <rect id="사각형_6665" data-name="사각형 6665" width="3.848" height="3.848" transform="translate(-5210.481 -20109.072)"/>
    <rect id="사각형_6666" data-name="사각형 6666" width="3.848" height="3.848" transform="translate(-5210.481 -20105.225)"/>
    <rect id="사각형_6667" data-name="사각형 6667" width="3.843" height="3.847" transform="translate(-5164.315 -20120.613)"/>
    <rect id="사각형_6668" data-name="사각형 6668" width="3.843" height="3.848" transform="translate(-5164.315 -20116.768)"/>
    <rect id="사각형_6669" data-name="사각형 6669" width="3.843" height="3.847" transform="translate(-5164.315 -20112.918)"/>
    <rect id="사각형_6670" data-name="사각형 6670" width="3.843" height="3.848" transform="translate(-5164.315 -20109.072)"/>
    <rect id="사각형_6671" data-name="사각형 6671" width="3.843" height="3.847" transform="translate(-5164.315 -20105.225)"/>
    <rect id="사각형_6672" data-name="사각형 6672" width="3.848" height="3.847" transform="translate(-5179.705 -20136)"/>
    <rect id="사각형_6673" data-name="사각형 6673" width="3.848" height="3.847" transform="translate(-5183.553 -20136)"/>
    <rect id="사각형_6674" data-name="사각형 6674" width="3.847" height="3.847" transform="translate(-5187.4 -20136)"/>
    <rect id="사각형_6675" data-name="사각형 6675" width="3.843" height="3.847" transform="translate(-5191.244 -20136)"/>
    <rect id="사각형_6676" data-name="사각형 6676" width="3.848" height="3.847" transform="translate(-5195.091 -20136)"/>
    <rect id="사각형_6677" data-name="사각형 6677" width="3.847" height="3.848" transform="translate(-5179.705 -20089.838)"/>
    <rect id="사각형_6678" data-name="사각형 6678" width="3.847" height="3.848" transform="translate(-5183.553 -20089.838)"/>
    <rect id="사각형_6679" data-name="사각형 6679" width="3.847" height="3.848" transform="translate(-5187.4 -20089.838)"/>
    <rect id="사각형_6680" data-name="사각형 6680" width="3.843" height="3.848" transform="translate(-5191.244 -20089.838)"/>
    <rect id="사각형_6681" data-name="사각형 6681" width="3.847" height="3.848" transform="translate(-5195.091 -20089.838)"/>
    <rect id="사각형_6682" data-name="사각형 6682" width="3.847" height="3.847" transform="translate(-5198.938 -20093.686)"/>
    <rect id="사각형_6683" data-name="사각형 6683" width="3.848" height="3.847" transform="translate(-5202.787 -20097.533)"/>
    <rect id="사각형_6684" data-name="사각형 6684" width="3.847" height="3.843" transform="translate(-5206.634 -20101.377)"/>
    <rect id="사각형_6685" data-name="사각형 6685" width="3.848" height="3.847" transform="translate(-5175.857 -20093.686)"/>
    <rect id="사각형_6686" data-name="사각형 6686" width="3.847" height="3.847" transform="translate(-5206.634 -20124.461)"/>
    <rect id="사각형_6687" data-name="사각형 6687" width="3.848" height="3.843" transform="translate(-5202.787 -20128.305)"/>
    <rect id="사각형_6688" data-name="사각형 6688" width="3.847" height="3.847" transform="translate(-5198.938 -20132.152)"/>
    <rect id="사각형_6689" data-name="사각형 6689" width="3.847" height="3.843" transform="translate(-5172.01 -20128.305)"/>
    <rect id="사각형_6690" data-name="사각형 6690" width="3.847" height="3.847" transform="translate(-5172.01 -20097.533)"/>
    <rect id="사각형_6691" data-name="사각형 6691" width="3.847" height="3.843" transform="translate(-5168.163 -20101.377)"/>
    <rect id="사각형_6692" data-name="사각형 6692" width="3.848" height="3.847" transform="translate(-5175.857 -20132.152)"/>
  </g>
</svg>
