<svg id="구성_요소_8_1" data-name="구성 요소 8 – 1" xmlns="http://www.w3.org/2000/svg" width="56.374" height="56.374" viewBox="0 0 56.374 56.374">
  <g id="패스_20087" data-name="패스 20087" transform="translate(-11.194 -469.57)" fill="rgba(255,255,255,0)" stroke-linejoin="round">
    <path d="M 48.72185897827148 520.1063232421875 L 30.0406379699707 520.1063232421875 L 30.0406379699707 517.26904296875 L 30.0406379699707 515.76904296875 L 28.5406379699707 515.76904296875 L 25.7036075592041 515.76904296875 L 25.7036075592041 512.9320068359375 L 25.7036075592041 511.4320068359375 L 24.2036075592041 511.4320068359375 L 21.36601829528809 511.4320068359375 L 21.36601829528809 508.5994262695312 L 21.36601829528809 507.0994262695312 L 19.86601829528809 507.0994262695312 L 17.02898788452148 507.0994262695312 L 17.02898788452148 488.4134826660156 L 19.86601829528809 488.4134826660156 L 21.36601829528809 488.4134826660156 L 21.36601829528809 486.9134826660156 L 21.36601829528809 484.0764465332031 L 24.2036075592041 484.0764465332031 L 25.7036075592041 484.0764465332031 L 25.7036075592041 482.5764465332031 L 25.7036075592041 479.743896484375 L 28.5406379699707 479.743896484375 L 30.0406379699707 479.743896484375 L 30.0406379699707 478.243896484375 L 30.0406379699707 475.4065856933594 L 48.72185897827148 475.4065856933594 L 48.72185897827148 478.243896484375 L 48.72185897827148 479.743896484375 L 50.22185897827148 479.743896484375 L 53.05915832519531 479.743896484375 L 53.05915832519531 482.5764465332031 L 53.05915832519531 484.0764465332031 L 54.55915832519531 484.0764465332031 L 57.39647674560547 484.0764465332031 L 57.39647674560547 486.9134826660156 L 57.39647674560547 488.4134826660156 L 58.89647674560547 488.4134826660156 L 61.73349761962891 488.4134826660156 L 61.73349761962891 507.0994262695312 L 58.89647674560547 507.0994262695312 L 57.39647674560547 507.0994262695312 L 57.39647674560547 508.5994262695312 L 57.39647674560547 511.4320068359375 L 54.55915832519531 511.4320068359375 L 53.05915832519531 511.4320068359375 L 53.05915832519531 512.9320068359375 L 53.05915832519531 515.76904296875 L 50.22185897827148 515.76904296875 L 48.72185897827148 515.76904296875 L 48.72185897827148 517.26904296875 L 48.72185897827148 520.1063232421875 Z" stroke="none"/>
    <path d="M 31.5406379699707 476.9066162109375 L 31.5406379699707 478.243896484375 C 31.5406379699707 479.9007568359375 30.19748687744141 481.243896484375 28.5406379699707 481.243896484375 L 27.20360946655273 481.243896484375 L 27.20360946655273 482.576416015625 C 27.20360946655273 484.2332763671875 25.86045837402344 485.576416015625 24.20360946655273 485.576416015625 L 22.86602020263672 485.576416015625 L 22.86602020263672 486.9134826660156 C 22.86602020263672 488.5703430175781 21.52286911010742 489.9134826660156 19.86602020263672 489.9134826660156 L 18.52898788452148 489.9134826660156 L 18.52898788452148 505.5994262695312 L 19.86602020263672 505.5994262695312 C 21.52286911010742 505.5994262695312 22.86602020263672 506.9425659179688 22.86602020263672 508.5994262695312 L 22.86602020263672 509.9320068359375 L 24.20360946655273 509.9320068359375 C 25.86045837402344 509.9320068359375 27.20360946655273 511.275146484375 27.20360946655273 512.9320068359375 L 27.20360946655273 514.26904296875 L 28.5406379699707 514.26904296875 C 30.19748687744141 514.26904296875 31.5406379699707 515.6121826171875 31.5406379699707 517.26904296875 L 31.5406379699707 518.6063232421875 L 47.22185897827148 518.6063232421875 L 47.22185897827148 517.26904296875 C 47.22185897827148 515.6121826171875 48.56501007080078 514.26904296875 50.22185897827148 514.26904296875 L 51.55915832519531 514.26904296875 L 51.55915832519531 512.9320068359375 C 51.55915832519531 511.275146484375 52.90230941772461 509.9320068359375 54.55915832519531 509.9320068359375 L 55.89646911621094 509.9320068359375 L 55.89646911621094 508.5994262695312 C 55.89646911621094 506.9425659179688 57.23961639404297 505.5994262695312 58.89646911621094 505.5994262695312 L 60.23349761962891 505.5994262695312 L 60.23349761962891 489.9134826660156 L 58.89646911621094 489.9134826660156 C 57.23961639404297 489.9134826660156 55.89646911621094 488.5703430175781 55.89646911621094 486.9134826660156 L 55.89646911621094 485.576416015625 L 54.55915832519531 485.576416015625 C 52.90230941772461 485.576416015625 51.55915832519531 484.2332763671875 51.55915832519531 482.576416015625 L 51.55915832519531 481.243896484375 L 50.22185897827148 481.243896484375 C 48.56501007080078 481.243896484375 47.22185897827148 479.9007568359375 47.22185897827148 478.243896484375 L 47.22185897827148 476.9066162109375 L 31.5406379699707 476.9066162109375 M 28.5406379699707 473.9066162109375 L 50.22185897827148 473.9066162109375 L 50.22185897827148 478.243896484375 L 54.55915832519531 478.243896484375 L 54.55915832519531 482.576416015625 L 58.89646911621094 482.576416015625 L 58.89646911621094 486.9134826660156 L 63.23349761962891 486.9134826660156 L 63.23349761962891 508.5994262695312 L 58.89646911621094 508.5994262695312 L 58.89646911621094 512.9320068359375 L 54.55915832519531 512.9320068359375 L 54.55915832519531 517.26904296875 L 50.22185897827148 517.26904296875 L 50.22185897827148 521.6063232421875 L 28.5406379699707 521.6063232421875 L 28.5406379699707 517.26904296875 L 24.20360946655273 517.26904296875 L 24.20360946655273 512.9320068359375 L 19.86602020263672 512.9320068359375 L 19.86602020263672 508.5994262695312 L 15.52898788452148 508.5994262695312 L 15.52898788452148 486.9134826660156 L 19.86602020263672 486.9134826660156 L 19.86602020263672 482.576416015625 L 24.20360946655273 482.576416015625 L 24.20360946655273 478.243896484375 L 28.5406379699707 478.243896484375 L 28.5406379699707 473.9066162109375 Z" stroke="none" fill="#000"/>
  </g>
  <g id="사각형_6949" data-name="사각형 6949" transform="translate(47.702 13.007)" fill="rgba(255,255,255,0)" stroke="#000" stroke-linejoin="round" stroke-width="3">
    <rect width="4.337" height="4.337" stroke="none"/>
    <rect x="1.5" y="1.5" width="1.337" height="1.337" fill="none"/>
  </g>
  <g id="사각형_6950" data-name="사각형 6950" transform="translate(13.009 47.699)" fill="rgba(255,255,255,0)" stroke="#000" stroke-linejoin="round" stroke-width="3">
    <rect width="4.337" height="4.337" stroke="none"/>
    <rect x="1.5" y="1.5" width="1.337" height="1.337" fill="none"/>
  </g>
  <g id="사각형_6951" data-name="사각형 6951" transform="translate(8.672 43.362)" fill="rgba(255,255,255,0)" stroke="#000" stroke-linejoin="round" stroke-width="3">
    <rect width="4.337" height="4.337" stroke="none"/>
    <rect x="1.5" y="1.5" width="1.337" height="1.337" fill="none"/>
  </g>
  <g id="사각형_6952" data-name="사각형 6952" transform="translate(4.335 39.03)" fill="rgba(255,255,255,0)" stroke="#000" stroke-linejoin="round" stroke-width="3">
    <rect width="4.337" height="4.333" stroke="none"/>
    <rect x="1.5" y="1.5" width="1.337" height="1.333" fill="none"/>
  </g>
  <g id="사각형_6953" data-name="사각형 6953" transform="translate(39.028 47.699)" fill="rgba(255,255,255,0)" stroke="#000" stroke-linejoin="round" stroke-width="3">
    <rect width="4.337" height="4.337" stroke="none"/>
    <rect x="1.5" y="1.5" width="1.337" height="1.337" fill="none"/>
  </g>
  <g id="사각형_6954" data-name="사각형 6954" transform="translate(4.335 13.007)" fill="rgba(255,255,255,0)" stroke="#000" stroke-linejoin="round" stroke-width="3">
    <rect width="4.337" height="4.337" stroke="none"/>
    <rect x="1.5" y="1.5" width="1.337" height="1.337" fill="none"/>
  </g>
  <g id="사각형_6955" data-name="사각형 6955" transform="translate(8.672 8.674)" fill="rgba(255,255,255,0)" stroke="#000" stroke-linejoin="round" stroke-width="3">
    <rect width="4.337" height="4.333" stroke="none"/>
    <rect x="1.5" y="1.5" width="1.337" height="1.333" fill="none"/>
  </g>
  <g id="사각형_6956" data-name="사각형 6956" transform="translate(13.009 4.337)" fill="rgba(255,255,255,0)" stroke="#000" stroke-linejoin="round" stroke-width="3">
    <rect width="4.337" height="4.337" stroke="none"/>
    <rect x="1.5" y="1.5" width="1.337" height="1.337" fill="none"/>
  </g>
  <g id="사각형_6957" data-name="사각형 6957" transform="translate(43.365 8.674)" fill="rgba(255,255,255,0)" stroke="#000" stroke-linejoin="round" stroke-width="3">
    <rect width="4.337" height="4.333" stroke="none"/>
    <rect x="1.5" y="1.5" width="1.337" height="1.333" fill="none"/>
  </g>
  <g id="사각형_6958" data-name="사각형 6958" transform="translate(43.365 43.362)" fill="rgba(255,255,255,0)" stroke="#000" stroke-linejoin="round" stroke-width="3">
    <rect width="4.337" height="4.337" stroke="none"/>
    <rect x="1.5" y="1.5" width="1.337" height="1.337" fill="none"/>
  </g>
  <g id="사각형_6959" data-name="사각형 6959" transform="translate(47.702 39.03)" fill="rgba(255,255,255,0)" stroke="#000" stroke-linejoin="round" stroke-width="3">
    <rect width="4.337" height="4.333" stroke="none"/>
    <rect x="1.5" y="1.5" width="1.337" height="1.333" fill="none"/>
  </g>
  <g id="사각형_6960" data-name="사각형 6960" transform="translate(39.028 4.337)" fill="rgba(255,255,255,0)" stroke="#000" stroke-linejoin="round" stroke-width="3">
    <rect width="4.337" height="4.337" stroke="none"/>
    <rect x="1.5" y="1.5" width="1.337" height="1.337" fill="none"/>
  </g>
  <g id="사각형_6961" data-name="사각형 6961" transform="translate(17.347)" fill="rgba(255,255,255,0)" stroke="#000" stroke-linejoin="round" stroke-width="3">
    <rect width="21.681" height="4.337" stroke="none"/>
    <rect x="1.5" y="1.5" width="18.681" height="1.337" fill="none"/>
  </g>
  <g id="사각형_6962" data-name="사각형 6962" transform="translate(17.347 52.036)" fill="rgba(255,255,255,0)" stroke="#000" stroke-linejoin="round" stroke-width="3">
    <rect width="21.681" height="4.337" stroke="none"/>
    <rect x="1.5" y="1.5" width="18.681" height="1.337" fill="none"/>
  </g>
  <g id="사각형_6963" data-name="사각형 6963" transform="translate(52.037 17.346)" fill="rgba(255,255,255,0)" stroke="#000" stroke-linejoin="round" stroke-width="3">
    <rect width="4.337" height="21.681" stroke="none"/>
    <rect x="1.5" y="1.5" width="1.337" height="18.681" fill="none"/>
  </g>
  <g id="사각형_6964" data-name="사각형 6964" transform="translate(0 17.346)" fill="rgba(255,255,255,0)" stroke="#000" stroke-linejoin="round" stroke-width="3">
    <rect width="4.337" height="21.681" stroke="none"/>
    <rect x="1.5" y="1.5" width="1.337" height="18.681" fill="none"/>
  </g>
</svg>
