<svg xmlns="http://www.w3.org/2000/svg" width="56" height="56" viewBox="0 0 56 56">
  <g id="그룹_12518" data-name="그룹 12518" transform="translate(91 -2434)">
    <rect id="사각형_8177" data-name="사각형 8177" width="56" height="56" transform="translate(-91 2434)"/>
    <rect id="사각형_8178" data-name="사각형 8178" width="4" height="4" transform="translate(-54 2449)" fill="#fff"/>
    <rect id="사각형_8191" data-name="사각형 8191" width="4" height="4" transform="translate(-79 2466)" fill="#fff"/>
    <rect id="사각형_8192" data-name="사각형 8192" width="4" height="4" transform="translate(-79 2449)" fill="#fff"/>
    <rect id="사각형_8184" data-name="사각형 8184" width="4" height="4" transform="translate(-54 2466)" fill="#fff"/>
    <rect id="사각형_8181" data-name="사각형 8181" width="13" height="4" transform="translate(-71 2441)" fill="#fff"/>
    <rect id="사각형_8182" data-name="사각형 8182" width="17" height="4" transform="translate(-73 2458)" fill="#fff"/>
    <rect id="사각형_8194" data-name="사각형 8194" width="13" height="4" transform="translate(-83 2466) rotate(-90)" fill="#fff"/>
    <rect id="사각형_8179" data-name="사각형 8179" width="13" height="4" transform="translate(-50 2466) rotate(-90)" fill="#fff"/>
    <rect id="사각형_8187" data-name="사각형 8187" width="13" height="4" transform="translate(-71 2474)" fill="#fff"/>
    <rect id="사각형_8180" data-name="사각형 8180" width="4" height="4" transform="translate(-58 2445)" fill="#fff"/>
    <rect id="사각형_8188" data-name="사각형 8188" width="4" height="4" transform="translate(-75 2470)" fill="#fff"/>
    <rect id="사각형_8189" data-name="사각형 8189" width="4" height="4" transform="translate(-75 2445)" fill="#fff"/>
    <rect id="사각형_8185" data-name="사각형 8185" width="4" height="4" transform="translate(-58 2470)" fill="#fff"/>
    <rect id="사각형_8186" data-name="사각형 8186" width="4" height="4" transform="translate(-54 2470)" fill="#fff"/>
    <rect id="사각형_8190" data-name="사각형 8190" width="4" height="4" transform="translate(-50 2474)" fill="#fff"/>
    <rect id="사각형_8193" data-name="사각형 8193" width="4" height="4" transform="translate(-46 2478)" fill="#fff"/>
  </g>
</svg>
