<svg xmlns="http://www.w3.org/2000/svg" width="56" height="56" viewBox="0 0 56 56">
  <g id="그룹_12517" data-name="그룹 12517" transform="translate(91 -2367)">
    <rect id="사각형_8176" data-name="사각형 8176" width="56" height="56" transform="translate(-91 2367)"/>
    <rect id="사각형_8144" data-name="사각형 8144" width="4" height="4" transform="translate(-54 2382)" fill="#fff"/>
    <rect id="사각형_8166" data-name="사각형 8166" width="4" height="4" transform="translate(-79 2399)" fill="#fff"/>
    <rect id="사각형_8162" data-name="사각형 8162" width="4" height="4" transform="translate(-79 2382)" fill="#fff"/>
    <rect id="사각형_8168" data-name="사각형 8168" width="4" height="4" transform="translate(-54 2399)" fill="#fff"/>
    <rect id="사각형_8147" data-name="사각형 8147" width="13" height="4" transform="translate(-71 2374)" fill="#fff"/>
    <rect id="사각형_8171" data-name="사각형 8171" width="17" height="4" transform="translate(-73 2391)" fill="#fff"/>
    <rect id="사각형_8169" data-name="사각형 8169" width="13" height="4" transform="translate(-83 2399) rotate(-90)" fill="#fff"/>
    <rect id="사각형_8170" data-name="사각형 8170" width="13" height="4" transform="translate(-50 2399) rotate(-90)" fill="#fff"/>
    <rect id="사각형_8165" data-name="사각형 8165" width="13" height="4" transform="translate(-71 2407)" fill="#fff"/>
    <rect id="사각형_8145" data-name="사각형 8145" width="4" height="4" transform="translate(-58 2378)" fill="#fff"/>
    <rect id="사각형_8164" data-name="사각형 8164" width="4" height="4" transform="translate(-75 2403)" fill="#fff"/>
    <rect id="사각형_8163" data-name="사각형 8163" width="4" height="4" transform="translate(-75 2378)" fill="#fff"/>
    <rect id="사각형_8167" data-name="사각형 8167" width="4" height="4" transform="translate(-58 2403)" fill="#fff"/>
    <rect id="사각형_8173" data-name="사각형 8173" width="4" height="4" transform="translate(-54 2403)" fill="#fff"/>
    <rect id="사각형_8174" data-name="사각형 8174" width="4" height="4" transform="translate(-50 2407)" fill="#fff"/>
    <rect id="사각형_8175" data-name="사각형 8175" width="4" height="4" transform="translate(-46 2411)" fill="#fff"/>
    <rect id="사각형_8172" data-name="사각형 8172" width="17" height="4" transform="translate(-66.5 2401.5) rotate(-90)" fill="#fff"/>
  </g>
</svg>
