<svg id="BACK_1_1" xmlns="http://www.w3.org/2000/svg" width="59" height="59" viewBox="0 0 59 59">
  <rect id="사각형_5744" data-name="사각형 5744" width="59" height="59"/>
  <g id="그룹_11087" data-name="그룹 11087" transform="translate(147 -331)">
    <rect id="사각형_5731" data-name="사각형 5731" width="4" height="18" transform="translate(-138 353)" fill="#fff"/>
    <rect id="사각형_5736" data-name="사각형 5736" width="4" height="18" transform="translate(-126 345) rotate(-90)" fill="#fff"/>
    <rect id="사각형_5740" data-name="사각형 5740" width="4" height="18" transform="translate(-114 357) rotate(-90)" fill="#fff"/>
    <rect id="사각형_5741" data-name="사각형 5741" width="4" height="18" transform="translate(-96 357) rotate(180)" fill="#fff"/>
    <rect id="사각형_5737" data-name="사각형 5737" width="4" height="18" transform="translate(-126 383) rotate(-90)" fill="#fff"/>
    <rect id="사각형_5732" data-name="사각형 5732" width="4" height="4" transform="translate(-134 349)" fill="#fff"/>
    <rect id="사각형_5742" data-name="사각형 5742" width="4" height="4" transform="translate(-108 375)" fill="#fff"/>
    <rect id="사각형_5734" data-name="사각형 5734" width="4" height="4" transform="translate(-134 371)" fill="#fff"/>
    <rect id="사각형_5733" data-name="사각형 5733" width="4" height="4" transform="translate(-130 345)" fill="#fff"/>
    <rect id="사각형_5743" data-name="사각형 5743" width="4" height="4" transform="translate(-104 371)" fill="#fff"/>
    <rect id="사각형_5738" data-name="사각형 5738" width="4" height="4" transform="translate(-108 345)" fill="#fff"/>
    <rect id="사각형_5739" data-name="사각형 5739" width="6" height="7" transform="translate(-104 349)" fill="#fff"/>
    <rect id="사각형_5735" data-name="사각형 5735" width="4" height="4" transform="translate(-130 375)" fill="#fff"/>
  </g>
</svg>
