<svg id="PEN_1_2" xmlns="http://www.w3.org/2000/svg" width="47" height="212" viewBox="0 0 47 212">
  <rect id="사각형_5685" data-name="사각형 5685" width="19" height="30" transform="translate(36 36) rotate(90)" fill="#2d2d2d"/>
  <rect id="사각형_5686" data-name="사각형 5686" width="34" height="21" transform="translate(32 10) rotate(90)" fill="#2d2d2d"/>
  <rect id="사각형_5681" data-name="사각형 5681" width="36" height="148" transform="translate(6 58)" fill="#fff"/>
  <rect id="사각형_5684" data-name="사각형 5684" width="6" height="47" transform="translate(47 52) rotate(90)"/>
  <rect id="사각형_5689" data-name="사각형 5689" width="6" height="47" transform="translate(47 81) rotate(90)" fill="#acacac"/>
  <rect id="사각형_5690" data-name="사각형 5690" width="12" height="47" transform="translate(47 92) rotate(90)" fill="#acacac"/>
  <rect id="사각형_5688" data-name="사각형 5688" width="6" height="16" transform="translate(11 52) rotate(180)"/>
  <rect id="사각형_5691" data-name="사각형 5691" width="6" height="26" transform="translate(17 36) rotate(180)"/>
  <rect id="사각형_5687" data-name="사각형 5687" width="6" height="16" transform="translate(41 52) rotate(180)"/>
  <rect id="사각형_5692" data-name="사각형 5692" width="6" height="26" transform="translate(35 36) rotate(180)"/>
  <rect id="사각형_5682" data-name="사각형 5682" width="6" height="35" transform="translate(41 206) rotate(90)"/>
  <rect id="사각형_5693" data-name="사각형 5693" width="6" height="10" transform="translate(23 10) rotate(180)"/>
  <rect id="사각형_5694" data-name="사각형 5694" width="6" height="10" transform="translate(29 10) rotate(180)"/>
  <rect id="사각형_5680" data-name="사각형 5680" width="6" height="148" transform="translate(41 58)"/>
  <rect id="사각형_5683" data-name="사각형 5683" width="6" height="148" transform="translate(0 58)"/>
</svg>
