<svg id="구성_요소_5_1" data-name="구성 요소 5 – 1" xmlns="http://www.w3.org/2000/svg" width="82" height="197" viewBox="0 0 82 197">
  <g id="그룹_10686" data-name="그룹 10686" transform="translate(-0.133 0.002)">
    <rect id="사각형_5230" data-name="사각형 5230" width="82" height="197" transform="translate(0.133 -0.002)" fill="#fff"/>
    <g id="그룹_10685" data-name="그룹 10685" transform="translate(4.001 4.999)">
      <rect id="사각형_5231" data-name="사각형 5231" width="63" height="5" transform="translate(6.132 176.999)" fill="#fefefe"/>
      <rect id="사각형_5232" data-name="사각형 5232" width="63" height="6" transform="translate(6.132 40.999)" fill="#fefefe"/>
      <rect id="사각형_5233" data-name="사각형 5233" width="53" height="5" transform="translate(10.132 25.999)" fill="#acacac"/>
      <rect id="사각형_5234" data-name="사각형 5234" width="63" height="5" transform="translate(6.132 181.999)"/>
      <rect id="사각형_5235" data-name="사각형 5235" width="63" height="4" transform="translate(6.132 46.999)"/>
      <rect id="사각형_5236" data-name="사각형 5236" width="63" height="6" transform="translate(6.132 30.999)" fill="#fefefe"/>
      <rect id="사각형_5237" data-name="사각형 5237" width="63" height="4" transform="translate(6.132 36.999)"/>
      <rect id="사각형_5238" data-name="사각형 5238" width="53" height="5" transform="translate(10.132 20.999)" fill="#fefefe"/>
      <rect id="사각형_5239" data-name="사각형 5239" width="53" height="4" transform="translate(10.132 16.999)"/>
      <rect id="사각형_5240" data-name="사각형 5240" width="6" height="5" transform="translate(0.132 176.999)"/>
      <rect id="사각형_5241" data-name="사각형 5241" width="6" height="6" transform="translate(0.132 40.999)"/>
      <rect id="사각형_5242" data-name="사각형 5242" width="6" height="4" transform="translate(0.132 46.999)"/>
      <rect id="사각형_5243" data-name="사각형 5243" width="4" height="5" transform="translate(69.132 176.999)"/>
      <rect id="사각형_5244" data-name="사각형 5244" width="4" height="6" transform="translate(69.132 40.999)"/>
      <rect id="사각형_5245" data-name="사각형 5245" width="6" height="11" transform="translate(63.132 25.999)"/>
      <rect id="사각형_5246" data-name="사각형 5246" width="5" height="9" transform="translate(58.132 16.999)"/>
      <rect id="사각형_5247" data-name="사각형 5247" width="6" height="9" transform="translate(10.132 16.999)"/>
      <rect id="사각형_5248" data-name="사각형 5248" width="4" height="11" transform="translate(6.132 25.999)"/>
      <rect id="사각형_5249" data-name="사각형 5249" width="4" height="11" transform="translate(25.132 5.999)"/>
      <rect id="사각형_5250" data-name="사각형 5250" width="6" height="16" transform="translate(45.132 -0.001) rotate(90)"/>
      <rect id="사각형_5251" data-name="사각형 5251" width="3" height="11" transform="translate(45.132 5.999)"/>
      <rect id="사각형_5252" data-name="사각형 5252" width="4" height="4" transform="translate(69.132 46.999)"/>
      <rect id="사각형_5253" data-name="사각형 5253" width="73" height="5" transform="translate(0.132 171.999)"/>
      <rect id="사각형_5254" data-name="사각형 5254" width="121" height="53" transform="translate(63.132 50.999) rotate(90)" fill="#2d2d2d"/>
      <rect id="사각형_5255" data-name="사각형 5255" width="121" height="4" transform="translate(10.132 50.999) rotate(90)"/>
      <rect id="사각형_5256" data-name="사각형 5256" width="121" height="6" transform="translate(69.132 50.999) rotate(90)"/>
      <rect id="사각형_5257" data-name="사각형 5257" width="16" height="11" transform="translate(29.132 5.999)" fill="#2d2d2d"/>
      <rect id="사각형_5258" data-name="사각형 5258" width="4" height="2" transform="translate(35.132 9.999)" fill="#fff"/>
    </g>
  </g>
</svg>
