<svg id="PEN_1_1" xmlns="http://www.w3.org/2000/svg" width="48" height="212" viewBox="0 0 48 212">
  <rect id="사각형_5667" data-name="사각형 5667" width="19" height="36" transform="translate(42 36) rotate(90)" fill="#2d2d2d"/>
  <rect id="사각형_5679" data-name="사각형 5679" width="16" height="26" transform="translate(37 28) rotate(90)" fill="#2d2d2d"/>
  <rect id="사각형_5662" data-name="사각형 5662" width="36" height="148" transform="translate(6 58)" fill="#fff"/>
  <rect id="사각형_5663" data-name="사각형 5663" width="6" height="148" transform="translate(42 58)"/>
  <rect id="사각형_5664" data-name="사각형 5664" width="6" height="148" transform="translate(0 58)"/>
  <rect id="사각형_5665" data-name="사각형 5665" width="6" height="48" transform="translate(48 52) rotate(90)"/>
  <rect id="사각형_5669" data-name="사각형 5669" width="6" height="16" transform="translate(11 52) rotate(180)"/>
  <rect id="사각형_5672" data-name="사각형 5672" width="6" height="16" transform="translate(43 52) rotate(180)"/>
  <rect id="사각형_5668" data-name="사각형 5668" width="10" height="26" transform="translate(37 26) rotate(90)" fill="#2d2d2d"/>
  <rect id="사각형_5678" data-name="사각형 5678" width="10" height="14" transform="translate(31 21) rotate(90)" fill="#2d2d2d"/>
  <rect id="사각형_5673" data-name="사각형 5673" width="26" height="6" transform="translate(27) rotate(90)" fill="#2d2d2d"/>
  <rect id="사각형_5666" data-name="사각형 5666" width="6" height="36" transform="translate(42 206) rotate(90)"/>
  <rect id="사각형_5670" data-name="사각형 5670" width="6" height="10" transform="translate(17 36) rotate(180)"/>
  <rect id="사각형_5675" data-name="사각형 5675" width="6" height="16" transform="translate(23 26) rotate(180)"/>
  <rect id="사각형_5671" data-name="사각형 5671" width="6" height="10" transform="translate(37 36) rotate(180)"/>
  <rect id="사각형_5674" data-name="사각형 5674" width="6" height="16" transform="translate(31 26) rotate(180)"/>
  <rect id="사각형_5677" data-name="사각형 5677" width="6" height="10" transform="translate(27 10) rotate(180)"/>
</svg>
